{
.appVersion = "3098";
classes = (
{
automatic = 1;

glyphs = (
{
color = 6;
glyphname = A;
layers = (
{
anchors = (
{
name = bottom;
position = "{350, 0}";
},
{
name = ogonek;
position = "{675, 0}";
},
{
name = top;
position = "{350, 700}";
}
);
layerId = "5A878C7E-547A-4951-B48F-676DBBC9B762";
paths = (
{
closed = 1;
nodes = (
"135 0 LINE",
"294 418 LINE SMOOTH",
"311 462 OFFCURVE",
"344 568 OFFCURVE",
"360 613 CURVE",
"337 612 LINE",
"344.935 589.781 OFFCURVE",
"393 441 OFFCURVE",
"400 422 CURVE SMOOTH",
"560 0 LINE",
"675 0 LINE",
"406 700 LINE",
"296 700 LINE",
"25 0 LINE"
);
},
{
closed = 1;
nodes = (
"549 174 LINE",
"503 278 LINE",
"185 278 LINE",
"145 174 LINE"
);
}
);
width = 700;
},
{
anchors = (
{
name = bottom;
position = "{496, 0}";
},
{
name = ogonek;
position = "{899, 0}";
},
{
name = top;
position = "{496, 700}";
}
);
layerId = "649E0662-786D-44F6-8E8D-A6782F19FFAA";
paths = (
{
closed = 1;
nodes = (
"206 0 LINE",
"439 478 LINE SMOOTH",
"464 529 OFFCURVE",
"486 573 OFFCURVE",
"510 638 CURVE",
"478 637 LINE",
"499 573 OFFCURVE",
"521 533 OFFCURVE",
"546 482 CURVE SMOOTH",
"781 0 LINE",
"900 0 LINE",
"560 700 LINE",
"434 700 LINE",
"92 0 LINE"
);
},
{
closed = 1;
nodes = (
"716 164 LINE",
"699 268 LINE",
"284 268 LINE",
"241 164 LINE"
);
}
);
width = 992;
},
{
anchors = (
{
name = bottom;
position = "{316, 0}";
},
{
name = ogonek;
position = "{591, 0}";
},
{
name = top;
position = "{316, 700}";
}
);
layerId = "E41BA830-E06B-4916-8D61-039D08A6FFE2";
paths = (
{
closed = 1;
nodes = (
"67 0 LINE",
"250 483 LINE SMOOTH",
"262 514 OFFCURVE",
"304 628 OFFCURVE",
"321 675 CURVE",
"307 676 LINE",
"332 613 OFFCURVE",
"372 503 OFFCURVE",
"379 485 CURVE SMOOTH",
"564 0 LINE",
"611 0 LINE",
"342 700 LINE",
"290 700 LINE",
"21 0 LINE"
);
},
{
closed = 1;
nodes = (
"506 217 LINE",
"489 259 LINE",
"141 259 LINE",
"126 217 LINE"
);
}
);
width = 631.69768;
},
{
anchors = (
{
name = bottom;
position = "{462, 0}";
},
{
name = ogonek;
position = "{812, 0}";
},
{
name = top;
position = "{462, 700}";
}
);
layerId = "60FFA52A-095B-47EE-98E9-9B5B7A5F3F54";
paths = (
{
closed = 1;
nodes = (
"138 0 LINE",
"403 543 LINE SMOOTH",
"424 586 OFFCURVE",
"445 627 OFFCURVE",
"465 673 CURVE",
"456 673 LINE",
"476 630 OFFCURVE",
"498 586 OFFCURVE",
"518 545 CURVE SMOOTH",
"785 0 LINE",
"832 0 LINE",
"489 700 LINE",
"436 700 LINE",
"92 0 LINE"
);
},
{
closed = 1;
nodes = (
"697 208 LINE",
"685 249 LINE",
"239 249 LINE",
"221 208 LINE"
);
}
);
width = 923.69767;
},
{
anchors = (
{
name = bottom;
position = "{348, 0}";
},
{
name = ogonek;
position = "{653, 0}";
},
{
name = top;
position = "{348, 700}";
}
);
layerId = "CC139F8F-4E38-4355-A9C7-97F3CAE4F8B4";
paths = (
{
closed = 1;
nodes = (
"162 0 LINE",
"298 363 LINE SMOOTH",
"321 426 OFFCURVE",
"344 492 OFFCURVE",
"360 556 CURVE",
"332 555 LINE",
"345 503 OFFCURVE",
"374 416 OFFCURVE",
"392 365 CURVE SMOOTH",
"529 0 LINE",
"692 0 LINE",
"418 700 LINE",
"279 700 LINE",
"3 0 LINE"
);
},
{
closed = 1;
nodes = (
"557 140 LINE",
"505 265 LINE",
"184 265 LINE",
"133 140 LINE"
);
}
);
width = 695.1;
},
{
anchors = (
{
name = bottom;
position = "{494, 0}";
},
{
name = ogonek;
position = "{877, 0}";
},
{
name = top;
position = "{494, 700}";
}
);
layerId = "7CDCAA7C-A29A-47F9-8FBC-7C0A555C33C4";
paths = (
{
closed = 1;
nodes = (
"233 0 LINE",
"443 423 LINE SMOOTH",
"470 478 OFFCURVE",
"491 524 OFFCURVE",
"510 581 CURVE",
"473 580 LINE",
"491 525 OFFCURVE",
"510 482 OFFCURVE",
"538 425 CURVE SMOOTH",
"750 0 LINE",
"917 0 LINE",
"572 700 LINE",
"417 700 LINE",
"70 0 LINE"
);
},
{
closed = 1;
nodes = (
"724 130 LINE",
"701 255 LINE",
"283 255 LINE",
"229 130 LINE"
);
}
);
width = 987.1;
}
);
leftKerningGroup = A;
rightKerningGroup = A;
unicode = 0041;
},
{
color = 6;
glyphname = AE;
layers = (
{
anchors = (
{
name = bottom;
position = "{485, 0}";
},
{
name = top;
position = "{645, 700}";
}
);
layerId = "5A878C7E-547A-4951-B48F-676DBBC9B762";
paths = (
{
closed = 1;
nodes = (
"114 0 LINE",
"490 550 LINE",
"465 558 LINE",
"465 245 LINE",
"266 245 LINE",
"203 153 LINE",
"465 153 LINE",
"465 0 LINE",
"894 0 LINE",
"894 93 LINE",
"566 93 LINE",
"566 308 LINE",
"849 308 LINE",
"849 402 LINE",
"566 402 LINE",
"566 607 LINE",
"894 607 LINE",
"894 700 LINE",
"493 700 LINE",
"5 0 LINE"
);
}
);
width = 969;
},
{
anchors = (
{
name = bottom;
position = "{712, 0}";
},
{
name = top;
position = "{945, 700}";
}
);
layerId = "649E0662-786D-44F6-8E8D-A6782F19FFAA";
paths = (
{
closed = 1;
nodes = (
"221 0 LINE",
"722 563 LINE",
"692 575 LINE",
"692 257 LINE",
"434 257 LINE",
"341 153 LINE",
"692 153 LINE",
"692 0 LINE",
"1261 0 LINE",
"1261 104 LINE",
"800 104 LINE",
"800 293 LINE",
"1216 293 LINE",
"1216 397 LINE",
"800 397 LINE",
"800 596 LINE",
"1261 596 LINE",
"1261 700 LINE",
"720 700 LINE",
"92 0 LINE"
);
}
);
width = 1421;
},
{
anchors = (
{
name = bottom;
position = "{469, 0}";
},
{
name = top;
position = "{637, 700}";
}
);
layerId = "E41BA830-E06B-4916-8D61-039D08A6FFE2";
paths = (
{
closed = 1;
nodes = (
"48 0 LINE",
"492 655 LINE",
"482 660 LINE",
"482 239 LINE",
"202 239 LINE",
"176 202 LINE",
"482 202 LINE",
"482 0 LINE",
"869 0 LINE",
"869 39 LINE",
"521 39 LINE",
"521 340 LINE",
"814 340 LINE",
"814 379 LINE",
"521 379 LINE",
"521 661 LINE",
"869 661 LINE",
"869 700 LINE",
"480 700 LINE",
"1 0 LINE"
);
}
);
userData = {
com.schriftgestaltung.Glyphs.glyph.rightMetricsKey = E;
};
width = 936;
},
{
anchors = (
{
name = bottom;
position = "{695, 0}";
},
{
name = top;
position = "{924, 700}";
}
);
layerId = "60FFA52A-095B-47EE-98E9-9B5B7A5F3F54";
paths = (
{
closed = 1;
nodes = (
"144 0 LINE",
"722 650 LINE",
"710 657 LINE",
"710 242 LINE",
"350 242 LINE",
"313 201 LINE",
"710 201 LINE",
"710 0 LINE",
"1233 0 LINE",
"1233 41 LINE",
"752 41 LINE",
"752 329 LINE",
"1178 329 LINE",
"1178 370 LINE",
"752 370 LINE",
"752 659 LINE",
"1233 659 LINE",
"1233 700 LINE",
"713 700 LINE",
"90 0 LINE"
);
}
);
userData = {
com.schriftgestaltung.Glyphs.glyph.rightMetricsKey = E;
};
width = 1384.93023;
},
{
anchors = (
{
name = bottom;
position = "{530, 0}";
},
{
name = top;
position = "{709, 700}";
}
);
layerId = "CC139F8F-4E38-4355-A9C7-97F3CAE4F8B4";
paths = (
{
closed = 1;
nodes = (
"166 0 LINE",
"542 550 LINE",
"517 558 LINE",
"517 271 LINE",
"336 271 LINE",
"249 144 LINE",
"517 144 LINE",
"517 0 LINE",
"998 0 LINE",
"998 133 LINE",
"670 133 LINE",
"670 290 LINE",
"953 290 LINE",
"953 419 LINE",
"670 419 LINE",
"670 567 LINE",
"998 567 LINE",
"998 700 LINE",
"481 700 LINE",
"-7 0 LINE"
);
}
);
width = 1059;
},
{
anchors = (
{
name = bottom;
position = "{757, 0}";
},
{
name = top;
position = "{1014, 700}";
}
);
layerId = "7CDCAA7C-A29A-47F9-8FBC-7C0A555C33C4";
paths = (
{
closed = 1;
nodes = (
"273 0 LINE",
"774 563 LINE",
"744 575 LINE",
"744 283 LINE",
"504 283 LINE",
"387 144 LINE",
"744 144 LINE",
"744 0 LINE",
"1365 0 LINE",
"1365 144 LINE",
"904 144 LINE",
"904 275 LINE",
"1320 275 LINE",
"1320 414 LINE",
"904 414 LINE",
"904 556 LINE",
"1365 556 LINE",
"1365 700 LINE",
"708 700 LINE",
"80 0 LINE"
);
}
);
width = 1511;
}
);
leftKerningGroup = AE;
rightKerningGroup = E;
rightMetricsKey = E;
unicode = 00C6;
},
{
color = 6;
glyphname = B;
layers = (
{
anchors = (
{
name = bottom;
position = "{341, 0}";
},
{
name = top;
position = "{341, 700}";
}
);
layerId = "5A878C7E-547A-4951-B48F-676DBBC9B762";
paths = (
{
closed = 1;
nodes = (
"400 0 LINE SMOOTH",
"546.667 0 OFFCURVE",
"633 72.667 OFFCURVE",
"633 206 CURVE SMOOTH",
"633 304 OFFCURVE",
"570 371 OFFCURVE",
"477 392 CURVE",
"477 372 LINE",
"552 392 OFFCURVE",
"596 448 OFFCURVE",
"596 524 CURVE SMOOTH",
"596 638.667 OFFCURVE",
"524.667 700 OFFCURVE",
"390 700 CURVE SMOOTH",
"98 700 LINE",
"98 0 LINE"
);
},
{
closed = 1;
nodes = (
"206 306 LINE",
"389 306 LINE SMOOTH",
"470.333 306 OFFCURVE",
"523 270.667 OFFCURVE",
"523 208 CURVE SMOOTH",
"523 141.333 OFFCURVE",
"475.333 104 OFFCURVE",
"394 104 CURVE SMOOTH",
"206 104 LINE"
);
},
{
closed = 1;
nodes = (
"206 596 LINE",
"372 596 LINE SMOOTH",
"446.667 596 OFFCURVE",
"488 563 OFFCURVE",
"488 503 CURVE SMOOTH",
"488 448.333 OFFCURVE",
"444 410 OFFCURVE",
"384 410 CURVE SMOOTH",
"206 410 LINE"
);
}
);
width = 681;
},
{
anchors = (
{
name = bottom;
position = "{500, 0}";
},
{
name = top;
position = "{500, 700}";
}
);
layerId = "649E0662-786D-44F6-8E8D-A6782F19FFAA";
paths = (
{
closed = 1;
nodes = (
"590 0 LINE SMOOTH",
"721 0 OFFCURVE",
"867 43 OFFCURVE",
"867 206 CURVE SMOOTH",
"867 316 OFFCURVE",
"781 370 OFFCURVE",
"692 390 CURVE",
"685 371 LINE",
"780 393 OFFCURVE",
"830 451 OFFCURVE",
"830 524 CURVE SMOOTH",
"830 637 OFFCURVE",
"739 700 OFFCURVE",
"564 700 CURVE SMOOTH",
"182 700 LINE",
"182 0 LINE"
);
},
{
closed = 1;
nodes = (
"290 311 LINE",
"589 311 LINE SMOOTH",
"665 311 OFFCURVE",
"757 287 OFFCURVE",
"757 208 CURVE SMOOTH",
"757 137 OFFCURVE",
"689 104 OFFCURVE",
"594 104 CURVE SMOOTH",
"290 104 LINE"
);
},
{
closed = 1;
nodes = (
"290 596 LINE",
"572 596 LINE SMOOTH",
"655 596 OFFCURVE",
"719 572 OFFCURVE",
"719 508 CURVE SMOOTH",
"719 451 OFFCURVE",
"656 416 OFFCURVE",
"584 416 CURVE SMOOTH",
"290 416 LINE"
);
}
);
width = 995;
},
{
anchors = (
{
name = bottom;
position = "{329, 0}";
},
{
name = top;
position = "{329, 700}";
}
);
layerId = "E41BA830-E06B-4916-8D61-039D08A6FFE2";
paths = (
{
closed = 1;
nodes = (
"378 0 LINE SMOOTH",
"535 0 OFFCURVE",
"606 82 OFFCURVE",
"606 195 CURVE SMOOTH",
"606 292 OFFCURVE",
"539 366 OFFCURVE",
"414 378 CURVE",
"419 363 LINE",
"510 379 OFFCURVE",
"569 446 OFFCURVE",
"569 530 CURVE SMOOTH",
"569 627 OFFCURVE",
"497 700 OFFCURVE",
"381 700 CURVE SMOOTH",
"107 700 LINE",
"107 0 LINE"
);
},
{
closed = 1;
nodes = (
"149 345 LINE",
"380 345 LINE SMOOTH",
"495 345 OFFCURVE",
"562 283 OFFCURVE",
"562 192 CURVE SMOOTH",
"562 105 OFFCURVE",
"508 41 OFFCURVE",
"378 41 CURVE SMOOTH",
"149 41 LINE"
);
},
{
closed = 1;
nodes = (
"149 659 LINE",
"374 659 LINE SMOOTH",
"468 659 OFFCURVE",
"526 602 OFFCURVE",
"526 525 CURVE SMOOTH",
"526 447 OFFCURVE",
"459 386 OFFCURVE",
"375 386 CURVE SMOOTH",
"149 386 LINE"
);
}
);
userData = {
com.schriftgestaltung.Glyphs.glyph.leftMetricsKey = H;
com.schriftgestaltung.Glyphs.glyph.rightMetricsKey = O;
};
width = 658.74419;
},
{
anchors = (
{
name = bottom;
position = "{489, 0}";
},
{
name = top;
position = "{489, 700}";
}
);
layerId = "60FFA52A-095B-47EE-98E9-9B5B7A5F3F54";
paths = (
{
closed = 1;
nodes = (
"585 0 LINE SMOOTH",
"738 0 OFFCURVE",
"840 61 OFFCURVE",
"840 194 CURVE SMOOTH",
"840 306 OFFCURVE",
"763 369 OFFCURVE",
"638 381 CURVE",
"637 368 LINE",
"745 385 OFFCURVE",
"803 443 OFFCURVE",
"803 531 CURVE SMOOTH",
"803 639 OFFCURVE",
"720 700 OFFCURVE",
"568 700 CURVE SMOOTH",
"191 700 LINE",
"191 0 LINE"
);
},
{
closed = 1;
nodes = (
"233 350 LINE",
"581 350 LINE SMOOTH",
"712 350 OFFCURVE",
"797 298 OFFCURVE",
"797 194 CURVE SMOOTH",
"796 91 OFFCURVE",
"716 37 OFFCURVE",
"578 41 CURVE",
"233 41 LINE"
);
},
{
closed = 1;
nodes = (
"233 659 LINE",
"575 659 LINE SMOOTH",
"690 659 OFFCURVE",
"760 613 OFFCURVE",
"760 528 CURVE SMOOTH",
"760 441 OFFCURVE",
"694 391 OFFCURVE",
"585 391 CURVE SMOOTH",
"233 391 LINE"
);
}
);
userData = {
com.schriftgestaltung.Glyphs.glyph.leftMetricsKey = H;
com.schriftgestaltung.Glyphs.glyph.rightMetricsKey = O;
};
width = 973;
},
{
anchors = (
{
name = bottom;
position = "{349, 0}";
},
{
name = top;
position = "{349, 700}";
}
);
layerId = "CC139F8F-4E38-4355-A9C7-97F3CAE4F8B4";
paths = (
{
closed = 1;
nodes = (
"406 0 LINE SMOOTH",
"553 0 OFFCURVE",
"654 71 OFFCURVE",
"654 211 CURVE SMOOTH",
"654 304 OFFCURVE",
"592 370 OFFCURVE",
"500 392 CURVE",
"501 372 LINE",
"575 392 OFFCURVE",
"617 448 OFFCURVE",
"617 527 CURVE SMOOTH",
"617 636 OFFCURVE",
"539 700 OFFCURVE",
"396 700 CURVE SMOOTH",
"89 700 LINE",
"89 0 LINE"
);
},
{
closed = 1;
nodes = (
"242 294 LINE",
"395 294 LINE SMOOTH",
"457 294 OFFCURVE",
"495 267 OFFCURVE",
"495 218 CURVE SMOOTH",
"495 165 OFFCURVE",
"460 136 OFFCURVE",
"400 136 CURVE SMOOTH",
"242 136 LINE"
);
},
{
closed = 1;
nodes = (
"242 564 LINE",
"368 564 LINE SMOOTH",
"429 564 OFFCURVE",
"460 536 OFFCURVE",
"460 491 CURVE SMOOTH",
"460 447 OFFCURVE",
"428 418 OFFCURVE",
"375 418 CURVE SMOOTH",
"242 418 LINE"
);
}
);
width = 697.66;
},
{
anchors = (
{
name = bottom;
position = "{508, 0}";
},
{
name = top;
position = "{508, 700}";
}
);
layerId = "7CDCAA7C-A29A-47F9-8FBC-7C0A555C33C4";
paths = (
{
closed = 1;
nodes = (
"596 0 LINE SMOOTH",
"727 0 OFFCURVE",
"888 42 OFFCURVE",
"888 211 CURVE SMOOTH",
"888 316 OFFCURVE",
"803 369 OFFCURVE",
"715 390 CURVE",
"709 371 LINE",
"803 393 OFFCURVE",
"851 451 OFFCURVE",
"851 527 CURVE SMOOTH",
"851 635 OFFCURVE",
"753 700 OFFCURVE",
"570 700 CURVE SMOOTH",
"173 700 LINE",
"173 0 LINE"
);
},
{
closed = 1;
nodes = (
"326 299 LINE",
"595 299 LINE SMOOTH",
"651 299 OFFCURVE",
"729 283 OFFCURVE",
"729 218 CURVE SMOOTH",
"729 161 OFFCURVE",
"673 136 OFFCURVE",
"600 136 CURVE SMOOTH",
"326 136 LINE"
);
},
{
closed = 1;
nodes = (
"326 564 LINE",
"568 564 LINE SMOOTH",
"637 564 OFFCURVE",
"691 546 OFFCURVE",
"691 496 CURVE SMOOTH",
"691 449 OFFCURVE",
"640 424 OFFCURVE",
"575 424 CURVE SMOOTH",
"326 424 LINE"
);
}
);
width = 1011.66;
}
);
leftKerningGroup = H;
leftMetricsKey = H;
rightKerningGroup = B;
rightMetricsKey = O;
unicode = 0042;
},
{
color = 6;
glyphname = C;
layers = (
{
anchors = (
{
name = bottom;
position = "{376, 0}";
},
{
name = top;
position = "{390, 700}";
}
);
layerId = "5A878C7E-547A-4951-B48F-676DBBC9B762";
paths = (
{
closed = 1;
nodes = (
"480.667 -10 OFFCURVE",
"583.333 31.333 OFFCURVE",
"630 86 CURVE",
"576 174 LINE",
"530.667 127.333 OFFCURVE",
"466.667 99 OFFCURVE",
"400 99 CURVE SMOOTH",
"256 99 OFFCURVE",
"158 196.667 OFFCURVE",
"158 350 CURVE SMOOTH",
"158 494 OFFCURVE",
"260.333 598 OFFCURVE",
"391 598 CURVE SMOOTH",
"453.667 598 OFFCURVE",
"513.667 568.667 OFFCURVE",
"571 510 CURVE",
"643 585 LINE",
"593.667 655.667 OFFCURVE",
"492.333 706 OFFCURVE",
"391 706 CURVE SMOOTH",
"200.333 706 OFFCURVE",
"48 550 OFFCURVE",
"48 350 CURVE SMOOTH",
"48 138 OFFCURVE",
"187.333 -10 OFFCURVE",
"382 -10 CURVE SMOOTH"
);
}
);
width = 679;
},
{
anchors = (
{
name = bottom;
position = "{526, 0}";
},
{
name = top;
position = "{532, 700}";
}
);
layerId = "649E0662-786D-44F6-8E8D-A6782F19FFAA";
paths = (
{
closed = 1;
nodes = (
"671 -10 OFFCURVE",
"793 57 OFFCURVE",
"850 104 CURVE",
"798 194 LINE",
"738 150 OFFCURVE",
"659 95 OFFCURVE",
"540 95 CURVE SMOOTH",
"385 95 OFFCURVE",
"238 183 OFFCURVE",
"238 350 CURVE SMOOTH",
"238 503 OFFCURVE",
"381 600 OFFCURVE",
"522 600 CURVE SMOOTH",
"633 600 OFFCURVE",
"719 557 OFFCURVE",
"791 498 CURVE",
"855 589 LINE",
"794 646 OFFCURVE",
"667 706 OFFCURVE",
"532 706 CURVE SMOOTH",
"316 706 OFFCURVE",
"128 555 OFFCURVE",
"128 350 CURVE SMOOTH",
"128 133 OFFCURVE",
"307 -10 OFFCURVE",
"532 -10 CURVE SMOOTH"
);
}
);
width = 981;
},
{
anchors = (
{
name = bottom;
position = "{385, 0}";
},
{
name = top;
position = "{397, 700}";
}
);
layerId = "E41BA830-E06B-4916-8D61-039D08A6FFE2";
paths = (
{
closed = 1;
nodes = (
"492 -10 OFFCURVE",
"580 25 OFFCURVE",
"637 82 CURVE",
"613 117 LINE",
"559 64 OFFCURVE",
"484 32 OFFCURVE",
"399 32 CURVE SMOOTH",
"224 32 OFFCURVE",
"97 162 OFFCURVE",
"97 347 CURVE SMOOTH",
"97 532 OFFCURVE",
"224 667 OFFCURVE",
"397 667 CURVE SMOOTH",
"486 667 OFFCURVE",
"563 627 OFFCURVE",
"621 562 CURVE",
"652 592 LINE",
"593 663 OFFCURVE",
"502 709 OFFCURVE",
"397 709 CURVE SMOOTH",
"198 709 OFFCURVE",
"54 556 OFFCURVE",
"54 347 CURVE SMOOTH",
"54 137 OFFCURVE",
"196 -10 OFFCURVE",
"395 -10 CURVE SMOOTH"
);
}
);
userData = {
com.schriftgestaltung.Glyphs.glyph.leftMetricsKey = O;
};
width = 687.44186;
},
{
anchors = (
{
name = bottom;
position = "{545, 0}";
},
{
name = top;
position = "{553, 700}";
}
);
layerId = "60FFA52A-095B-47EE-98E9-9B5B7A5F3F54";
paths = (
{
closed = 1;
nodes = (
"679 -10 OFFCURVE",
"788 38 OFFCURVE",
"858 99 CURVE",
"837 134 LINE",
"768 75 OFFCURVE",
"674 31 OFFCURVE",
"555 31 CURVE SMOOTH",
"338 31 OFFCURVE",
"177 162 OFFCURVE",
"177 349 CURVE SMOOTH",
"177 533 OFFCURVE",
"337 668 OFFCURVE",
"550 668 CURVE SMOOTH",
"671 668 OFFCURVE",
"773 623 OFFCURVE",
"842 556 CURVE",
"863 594 LINE",
"793 661 OFFCURVE",
"682 709 OFFCURVE",
"553 709 CURVE SMOOTH",
"310 709 OFFCURVE",
"133 554 OFFCURVE",
"133 349 CURVE SMOOTH",
"133 141 OFFCURVE",
"308 -10 OFFCURVE",
"553 -10 CURVE SMOOTH"
);
}
);
userData = {
com.schriftgestaltung.Glyphs.glyph.leftMetricsKey = O;
};
width = 989.44186;
},
{
anchors = (
{
name = bottom;
position = "{394, 0}";
},
{
name = top;
position = "{408, 700}";
}
);
layerId = "CC139F8F-4E38-4355-A9C7-97F3CAE4F8B4";
paths = (
{
closed = 1;
nodes = (
"505 -10 OFFCURVE",
"612 31 OFFCURVE",
"661 86 CURVE",
"583 211 LINE",
"544 169 OFFCURVE",
"486 141 OFFCURVE",
"423 141 CURVE SMOOTH",
"294 141 OFFCURVE",
"209 223 OFFCURVE",
"209 351 CURVE SMOOTH",
"209 479 OFFCURVE",
"297 562 OFFCURVE",
"409 562 CURVE SMOOTH",
"473 562 OFFCURVE",
"525 534 OFFCURVE",
"568 487 CURVE",
"668 599 LINE",
"609 671 OFFCURVE",
"509 713 OFFCURVE",
"410 713 CURVE SMOOTH",
"200 713 OFFCURVE",
"44 559 OFFCURVE",
"44 352 CURVE SMOOTH",
"44 140 OFFCURVE",
"193 -10 OFFCURVE",
"403 -10 CURVE SMOOTH"
);
}
);
width = 691.74;
},
{
anchors = (
{
name = bottom;
position = "{549, 0}";
},
{
name = top;
position = "{549, 700}";
}
);
layerId = "7CDCAA7C-A29A-47F9-8FBC-7C0A555C33C4";
paths = (
{
closed = 1;
nodes = (
"695 -10 OFFCURVE",
"821 57 OFFCURVE",
"881 104 CURVE",
"805 231 LINE",
"751 192 OFFCURVE",
"678 137 OFFCURVE",
"563 137 CURVE SMOOTH",
"423 137 OFFCURVE",
"289 209 OFFCURVE",
"289 351 CURVE SMOOTH",
"289 488 OFFCURVE",
"418 564 OFFCURVE",
"540 564 CURVE SMOOTH",
"652 564 OFFCURVE",
"730 522 OFFCURVE",
"788 475 CURVE",
"880 603 LINE",
"809 661 OFFCURVE",
"684 713 OFFCURVE",
"551 713 CURVE SMOOTH",
"316 713 OFFCURVE",
"124 564 OFFCURVE",
"124 352 CURVE SMOOTH",
"124 134 OFFCURVE",
"312 -10 OFFCURVE",
"553 -10 CURVE SMOOTH"
);
}
);
width = 993.74;
}
);
leftKerningGroup = C;
leftMetricsKey = O;
rightKerningGroup = C;
unicode = 0043;
},
{
color = 6;
glyphname = D;
layers = (
{
anchors = (
{
name = bottom;
position = "{374, 0}";
},
{
name = center;
position = "{188, 350}";
},
{
name = top;
position = "{374, 700}";
}
);
layerId = "5A878C7E-547A-4951-B48F-676DBBC9B762";
paths = (
{
closed = 1;
nodes = (
"372 0 LINE SMOOTH",
"573.333 0 OFFCURVE",
"700 140.667 OFFCURVE",
"700 350 CURVE SMOOTH",
"700 558 OFFCURVE",
"572 700 OFFCURVE",
"372 700 CURVE SMOOTH",
"98 700 LINE",
"98 0 LINE"
);
},
{
closed = 1;
nodes = (
"206 605 LINE",
"200 596 LINE",
"367 596 LINE SMOOTH",
"507 596 OFFCURVE",
"590 502 OFFCURVE",
"590 350 CURVE SMOOTH",
"590 196.667 OFFCURVE",
"508.333 104 OFFCURVE",
"367 104 CURVE SMOOTH",
"203 104 LINE",
"206 93 LINE"
);
}
);
width = 748;
},
{
anchors = (
{
name = bottom;
position = "{531, 0}";
},
{
name = center;
position = "{303, 350}";
},
{
name = top;
position = "{531, 700}";
}
);
layerId = "649E0662-786D-44F6-8E8D-A6782F19FFAA";
paths = (
{
closed = 1;
nodes = (
"536 0 LINE SMOOTH",
"793 0 OFFCURVE",
"929 158 OFFCURVE",
"929 350 CURVE SMOOTH",
"929 539 OFFCURVE",
"793 700 OFFCURVE",
"536 700 CURVE SMOOTH",
"182 700 LINE",
"182 0 LINE"
);
},
{
closed = 1;
nodes = (
"290 605 LINE",
"284 596 LINE",
"531 596 LINE SMOOTH",
"730 596 OFFCURVE",
"814 482 OFFCURVE",
"814 350 CURVE SMOOTH",
"814 215 OFFCURVE",
"730 104 OFFCURVE",
"531 104 CURVE SMOOTH",
"287 104 LINE",
"290 93 LINE"
);
}
);
width = 1057;
},
{
anchors = (
{
name = bottom;
position = "{370, 0}";
},
{
name = center;
position = "{165, 350}";
},
{
name = top;
position = "{370, 700}";
}
);
layerId = "E41BA830-E06B-4916-8D61-039D08A6FFE2";
paths = (
{
closed = 1;
nodes = (
"360 0 LINE SMOOTH",
"538 0 OFFCURVE",
"686 147 OFFCURVE",
"686 350 CURVE SMOOTH",
"686 554 OFFCURVE",
"538 700 OFFCURVE",
"360 700 CURVE SMOOTH",
"107 700 LINE",
"107 0 LINE"
);
},
{
closed = 1;
nodes = (
"149 669 LINE",
"140 659 LINE",
"355 659 LINE SMOOTH",
"512 659 OFFCURVE",
"643 528 OFFCURVE",
"643 350 CURVE SMOOTH",
"643 172 OFFCURVE",
"512 41 OFFCURVE",
"355 41 CURVE SMOOTH",
"141 41 LINE",
"149 32 LINE"
);
}
);
userData = {
com.schriftgestaltung.Glyphs.glyph.leftMetricsKey = H;
com.schriftgestaltung.Glyphs.glyph.rightMetricsKey = O;
};
width = 739;
},
{
anchors = (
{
name = bottom;
position = "{526, 0}";
},
{
name = center;
position = "{301, 350}";
},
{
name = top;
position = "{526, 700}";
}
);
layerId = "60FFA52A-095B-47EE-98E9-9B5B7A5F3F54";
paths = (
{
closed = 1;
nodes = (
"524 0 LINE SMOOTH",
"758 0 OFFCURVE",
"915 149 OFFCURVE",
"915 350 CURVE SMOOTH",
"915 551 OFFCURVE",
"758 700 OFFCURVE",
"524 700 CURVE SMOOTH",
"191 700 LINE",
"191 0 LINE"
);
},
{
closed = 1;
nodes = (
"233 669 LINE",
"223 659 LINE",
"519 659 LINE SMOOTH",
"732 659 OFFCURVE",
"871 527 OFFCURVE",
"871 350 CURVE SMOOTH",
"871 172 OFFCURVE",
"732 41 OFFCURVE",
"519 41 CURVE SMOOTH",
"225 41 LINE",
"233 32 LINE"
);
}
);
userData = {
com.schriftgestaltung.Glyphs.glyph.leftMetricsKey = H;
com.schriftgestaltung.Glyphs.glyph.rightMetricsKey = O;
};
width = 1048;
},
{
anchors = (
{
name = bottom;
position = "{384, 0}";
},
{
name = center;
position = "{198, 350}";
},
{
name = top;
position = "{384, 700}";
}
);
layerId = "CC139F8F-4E38-4355-A9C7-97F3CAE4F8B4";
paths = (
{
closed = 1;
nodes = (
"380 0 LINE SMOOTH",
"586 0 OFFCURVE",
"725 143 OFFCURVE",
"725 350 CURVE SMOOTH",
"725 556 OFFCURVE",
"585 700 OFFCURVE",
"380 700 CURVE SMOOTH",
"89 700 LINE",
"89 0 LINE"
);
},
{
closed = 1;
nodes = (
"250 585 LINE",
"227 557 LINE",
"375 557 LINE SMOOTH",
"489 557 OFFCURVE",
"562 475 OFFCURVE",
"562 350 CURVE SMOOTH",
"562 225 OFFCURVE",
"489 143 OFFCURVE",
"375 143 CURVE SMOOTH",
"230 143 LINE",
"250 113 LINE"
);
}
);
width = 768.58;
},
{
anchors = (
{
name = bottom;
position = "{541, 0}";
},
{
name = center;
position = "{313, 350}";
},
{
name = top;
position = "{541, 700}";
}
);
layerId = "7CDCAA7C-A29A-47F9-8FBC-7C0A555C33C4";
paths = (
{
closed = 1;
nodes = (
"544 0 LINE SMOOTH",
"806 0 OFFCURVE",
"954 160 OFFCURVE",
"954 350 CURVE SMOOTH",
"954 537 OFFCURVE",
"806 700 OFFCURVE",
"544 700 CURVE SMOOTH",
"173 700 LINE",
"173 0 LINE"
);
},
{
closed = 1;
nodes = (
"334 585 LINE",
"311 557 LINE",
"539 557 LINE SMOOTH",
"711 557 OFFCURVE",
"786 455 OFFCURVE",
"786 350 CURVE SMOOTH",
"786 243 OFFCURVE",
"711 143 OFFCURVE",
"539 143 CURVE SMOOTH",
"314 143 LINE",
"334 113 LINE"
);
}
);
width = 1077.58;
}
);
leftKerningGroup = H;
leftMetricsKey = H;
rightKerningGroup = D;
rightMetricsKey = O;
unicode = 0044;
},
{
color = 3;
glyphname = Eth;
layers = (
{
components = (
{
name = D;
}
);
layerId = "5A878C7E-547A-4951-B48F-676DBBC9B762";
paths = (
{
closed = 1;
nodes = (
"317 305 LINE",
"317 395 LINE",
"49 395 LINE",
"49 305 LINE"
);
}
);
width = 748;
},
{
components = (
{
name = D;
}
);
layerId = "649E0662-786D-44F6-8E8D-A6782F19FFAA";
paths = (
{
closed = 1;
nodes = (
"507 307 LINE",
"507 393 LINE",
"99 393 LINE",
"99 307 LINE"
);
}
);
width = 1057;
},
{
components = (
{
alignment = -1;
name = D;
}
);
layerId = "E41BA830-E06B-4916-8D61-039D08A6FFE2";
paths = (
{
closed = 1;
nodes = (
"298 331 LINE",
"298 368 LINE",
"30 368 LINE",
"30 331 LINE"
);
}
);
width = 739.55814;
},
{
components = (
{
alignment = -1;
name = D;
}
);
layerId = "60FFA52A-095B-47EE-98E9-9B5B7A5F3F54";
paths = (
{
closed = 1;
nodes = (
"505 333 LINE",
"505 366 LINE",
"97 366 LINE",
"97 333 LINE"
);
}
);
width = 1048.55814;
},
{
components = (
{
alignment = -1;
name = D;
}
);
layerId = "CC139F8F-4E38-4355-A9C7-97F3CAE4F8B4";
paths = (
{
closed = 1;
nodes = (
"354 293 LINE",
"354 407 LINE",
"37 407 LINE",
"37 293 LINE"
);
}
);
width = 768.58;
},
{
components = (
{
alignment = -1;
name = D;
}
);
layerId = "7CDCAA7C-A29A-47F9-8FBC-7C0A555C33C4";
paths = (
{
closed = 1;
nodes = (
"544 295 LINE",
"544 405 LINE",
"87 405 LINE",
"87 295 LINE"
);
}
);
width = 1077.58;
}
);
leftKerningGroup = H;
rightKerningGroup = D;
unicode = 00D0;
},
{
color = 6;
glyphname = E;
layers = (
{
anchors = (
{
name = bottom;
position = "{307, 0}";
},
{
name = ogonek;
position = "{509, 0}";
},
{
name = top;
position = "{327, 700}";
},
{
name = topleft;
position = "{20, 700}";
}
);
layerId = "5A878C7E-547A-4951-B48F-676DBBC9B762";
paths = (
{
closed = 1;
nodes = (
"539 0 LINE",
"539 104 LINE",
"206 104 LINE",
"206 596 LINE",
"539 596 LINE",
"539 700 LINE",
"98 700 LINE",
"98 0 LINE"
);
},
{
closed = 1;
nodes = (
"484 307 LINE",
"484 411 LINE",
"147 411 LINE",
"147 307 LINE"
);
}
);
width = 614;
},
{
anchors = (
{
name = bottom;
position = "{461, 0}";
},
{
name = ogonek;
position = "{723, 0}";
},
{
name = top;
position = "{481, 700}";
},
{
name = topleft;
position = "{104, 700}";
}
);
layerId = "649E0662-786D-44F6-8E8D-A6782F19FFAA";
paths = (
{
closed = 1;
nodes = (
"763 0 LINE",
"763 104 LINE",
"290 104 LINE",
"290 596 LINE",
"763 596 LINE",
"763 700 LINE",
"182 700 LINE",
"182 0 LINE"
);
},
{
closed = 1;
nodes = (
"708 307 LINE",
"708 411 LINE",
"241 411 LINE",
"241 307 LINE"
);
}
);
width = 923;
},
{
anchors = (
{
name = bottom;
position = "{289, 0}";
},
{
name = ogonek;
position = "{483, 0}";
},
{
name = top;
position = "{316, 700}";
},
{
name = topleft;
position = "{20, 700}";
}
);
layerId = "E41BA830-E06B-4916-8D61-039D08A6FFE2";
paths = (
{
closed = 1;
nodes = (
"505 0 LINE",
"505 41 LINE",
"149 41 LINE",
"149 659 LINE",
"510 659 LINE",
"510 700 LINE",
"107 700 LINE",
"107 0 LINE"
);
},
{
closed = 1;
nodes = (
"453 341 LINE",
"453 382 LINE",
"129 382 LINE",
"129 341 LINE"
);
}
);
userData = {
com.schriftgestaltung.Glyphs.glyph.leftMetricsKey = H;
};
width = 577.16279;
},
{
anchors = (
{
name = bottom;
position = "{443, 0}";
},
{
name = ogonek;
position = "{704, 0}";
},
{
name = top;
position = "{470, 700}";
},
{
name = topleft;
position = "{104, 700}";
}
);
layerId = "60FFA52A-095B-47EE-98E9-9B5B7A5F3F54";
paths = (
{
closed = 1;
nodes = (
"729 0 LINE",
"729 41 LINE",
"233 41 LINE",
"233 659 LINE",
"734 659 LINE",
"734 700 LINE",
"191 700 LINE",
"191 0 LINE"
);
},
{
closed = 1;
nodes = (
"677 341 LINE",
"677 382 LINE",
"214 382 LINE",
"214 341 LINE"
);
}
);
userData = {
com.schriftgestaltung.Glyphs.glyph.leftMetricsKey = H;
};
width = 886.16279;
},
{
anchors = (
{
name = bottom;
position = "{320, 0}";
},
{
name = ogonek;
position = "{539, 0}";
},
{
name = top;
position = "{340, 700}";
},
{
name = topleft;
position = "{20, 700}";
}
);
layerId = "CC139F8F-4E38-4355-A9C7-97F3CAE4F8B4";
paths = (
{
closed = 1;
nodes = (
"579 0 LINE",
"579 139 LINE",
"246 139 LINE",
"246 561 LINE",
"570 561 LINE",
"570 700 LINE",
"89 700 LINE",
"89 0 LINE"
);
},
{
closed = 1;
nodes = (
"524 290 LINE",
"524 423 LINE",
"165 423 LINE",
"165 290 LINE"
);
}
);
width = 640.46;
},
{
anchors = (
{
name = bottom;
position = "{474, 0}";
},
{
name = ogonek;
position = "{753, 0}";
},
{
name = top;
position = "{499, 700}";
},
{
name = topleft;
position = "{104, 700}";
}
);
layerId = "7CDCAA7C-A29A-47F9-8FBC-7C0A555C33C4";
paths = (
{
closed = 1;
nodes = (
"803 0 LINE",
"803 139 LINE",
"330 139 LINE",
"330 561 LINE",
"794 561 LINE",
"794 700 LINE",
"173 700 LINE",
"173 0 LINE"
);
},
{
closed = 1;
nodes = (
"748 290 LINE",
"748 423 LINE",
"259 423 LINE",
"259 290 LINE"
);
}
);
width = 949.46;
}
);
leftKerningGroup = H;
leftMetricsKey = H;
rightKerningGroup = E;
unicode = 0045;
},
{
color = 6;
glyphname = F;
layers = (
{
anchors = (
{
name = bottom;
position = "{301, 0}";
},
{
name = top;
position = "{301, 700}";
}
);
layerId = "5A878C7E-547A-4951-B48F-676DBBC9B762";
paths = (
{
closed = 1;
nodes = (
"206 0 LINE",
"206 700 LINE",
"98 700 LINE",
"98 0 LINE"
);
},
{
closed = 1;
nodes = (
"507 298 LINE",
"507 402 LINE",
"146 402 LINE",
"146 298 LINE"
);
},
{
closed = 1;
nodes = (
"552 596 LINE",
"552 700 LINE",
"146 700 LINE",
"146 596 LINE"
);
}
);
width = 602;
},
{
anchors = (
{
name = bottom;
position = "{445, 0}";
},
{
name = top;
position = "{445, 700}";
}
);
layerId = "649E0662-786D-44F6-8E8D-A6782F19FFAA";
paths = (
{
closed = 1;
nodes = (
"290 0 LINE",
"290 700 LINE",
"182 700 LINE",
"182 0 LINE"
);
},
{
closed = 1;
nodes = (
"711 288 LINE",
"711 392 LINE",
"218 392 LINE",
"218 288 LINE"
);
},
{
closed = 1;
nodes = (
"756 596 LINE",
"756 700 LINE",
"232 700 LINE",
"232 596 LINE"
);
}
);
width = 896;
},
{
anchors = (
{
name = bottom;
position = "{291, 0}";
},
{
name = top;
position = "{291, 700}";
}
);
layerId = "E41BA830-E06B-4916-8D61-039D08A6FFE2";
paths = (
{
closed = 1;
nodes = (
"149 0 LINE",
"149 700 LINE",
"107 700 LINE",
"107 0 LINE"
);
},
{
closed = 1;
nodes = (
"458 331 LINE",
"458 372 LINE",
"128 372 LINE",
"128 331 LINE"
);
},
{
closed = 1;
nodes = (
"513 659 LINE",
"513 700 LINE",
"129 700 LINE",
"129 659 LINE"
);
}
);
userData = {
com.schriftgestaltung.Glyphs.glyph.leftMetricsKey = H;
};
width = 581.27907;
},
{
anchors = (
{
name = bottom;
position = "{435, 0}";
},
{
name = top;
position = "{435, 700}";
}
);
layerId = "60FFA52A-095B-47EE-98E9-9B5B7A5F3F54";
paths = (
{
closed = 1;
nodes = (
"233 0 LINE",
"233 700 LINE",
"191 700 LINE",
"191 0 LINE"
);
},
{
closed = 1;
nodes = (
"663 321 LINE",
"663 362 LINE",
"207 362 LINE",
"207 321 LINE"
);
},
{
closed = 1;
nodes = (
"717 659 LINE",
"717 700 LINE",
"214 700 LINE",
"214 659 LINE"
);
}
);
userData = {
com.schriftgestaltung.Glyphs.glyph.leftMetricsKey = H;
};
width = 875.27907;
},
{
anchors = (
{
name = bottom;
position = "{308, 0}";
},
{
name = top;
position = "{308, 700}";
}
);
layerId = "CC139F8F-4E38-4355-A9C7-97F3CAE4F8B4";
paths = (
{
closed = 1;
nodes = (
"250 0 LINE",
"250 700 LINE",
"89 700 LINE",
"89 0 LINE"
);
},
{
closed = 1;
nodes = (
"526 273 LINE",
"526 409 LINE",
"164 409 LINE",
"164 273 LINE"
);
},
{
closed = 1;
nodes = (
"567 557 LINE",
"567 700 LINE",
"164 700 LINE",
"164 557 LINE"
);
}
);
width = 615.72;
},
{
anchors = (
{
name = bottom;
position = "{452, 0}";
},
{
name = top;
position = "{452, 700}";
}
);
layerId = "7CDCAA7C-A29A-47F9-8FBC-7C0A555C33C4";
paths = (
{
closed = 1;
nodes = (
"334 0 LINE",
"334 700 LINE",
"173 700 LINE",
"173 0 LINE"
);
},
{
closed = 1;
nodes = (
"730 263 LINE",
"730 399 LINE",
"236 399 LINE",
"236 263 LINE"
);
},
{
closed = 1;
nodes = (
"771 557 LINE",
"771 700 LINE",
"250 700 LINE",
"250 557 LINE"
);
}
);
width = 909.72;
}
);
leftKerningGroup = H;
leftMetricsKey = H;
rightKerningGroup = F;
unicode = 0046;
},
{
color = 6;
glyphname = G;
layers = (
{
anchors = (
{
name = bottom;
position = "{383, 0}";
},
{
name = top;
position = "{403, 700}";
}
);
layerId = "5A878C7E-547A-4951-B48F-676DBBC9B762";
paths = (
{
closed = 1;
nodes = (
"585.869 -10 OFFCURVE",
"723 115.261 OFFCURVE",
"723 299 CURVE SMOOTH",
"723 317.667 OFFCURVE",
"722 336.333 OFFCURVE",
"718 359 CURVE",
"408 359 LINE",
"408 252 LINE",
"622 252 LINE",
"607 266 LINE",
"607 246 LINE SMOOTH",
"607 162 OFFCURVE",
"519.333 95 OFFCURVE",
"414 95 CURVE SMOOTH",
"274 95 OFFCURVE",
"158 210 OFFCURVE",
"158 350 CURVE SMOOTH",
"158 492.667 OFFCURVE",
"267.333 601 OFFCURVE",
"410 601 CURVE SMOOTH",
"476.667 601 OFFCURVE",
"542 571.333 OFFCURVE",
"602 514 CURVE",
"672 587 LINE",
"620 657.667 OFFCURVE",
"516.667 706 OFFCURVE",
"410 706 CURVE SMOOTH",
"206 706 OFFCURVE",
"48 551.333 OFFCURVE",
"48 350 CURVE SMOOTH",
"48 147.333 OFFCURVE",
"207 -10 OFFCURVE",
"411 -10 CURVE SMOOTH"
);
}
);
width = 766;
},
{
anchors = (
{
name = bottom;
position = "{543, 0}";
},
{
name = top;
position = "{559, 700}";
}
);
layerId = "649E0662-786D-44F6-8E8D-A6782F19FFAA";
paths = (
{
closed = 1;
nodes = (
"791 -10 OFFCURVE",
"962 92 OFFCURVE",
"962 303 CURVE SMOOTH",
"962 310 OFFCURVE",
"962 318 OFFCURVE",
"958 349 CURVE",
"558 349 LINE",
"558 244 LINE",
"857 244 LINE",
"841 266 LINE",
"842 253 LINE SMOOTH",
"849 161 OFFCURVE",
"716 95 OFFCURVE",
"553 95 CURVE SMOOTH",
"394 95 OFFCURVE",
"243 173 OFFCURVE",
"243 350 CURVE SMOOTH",
"243 493 OFFCURVE",
"381 601 OFFCURVE",
"560 601 CURVE SMOOTH",
"660 601 OFFCURVE",
"750 563 OFFCURVE",
"822 508 CURVE",
"892 587 LINE",
"835 648 OFFCURVE",
"711 706 OFFCURVE",
"560 706 CURVE SMOOTH",
"319 706 OFFCURVE",
"128 551 OFFCURVE",
"128 350 CURVE SMOOTH",
"128 113 OFFCURVE",
"323 -10 OFFCURVE",
"544 -10 CURVE SMOOTH"
);
}
);
width = 1082;
},
{
anchors = (
{
name = bottom;
position = "{384, 0}";
},
{
name = top;
position = "{398, 700}";
}
);
layerId = "E41BA830-E06B-4916-8D61-039D08A6FFE2";
paths = (
{
closed = 1;
nodes = (
"596 -10 OFFCURVE",
"722 112 OFFCURVE",
"722 330 CURVE SMOOTH",
"722 337 OFFCURVE",
"722 344 OFFCURVE",
"721 358 CURVE",
"409 358 LINE",
"409 316 LINE",
"686 316 LINE",
"678 323 LINE",
"678 304 LINE SMOOTH",
"678 144 OFFCURVE",
"575 31 OFFCURVE",
"403 31 CURVE SMOOTH",
"228 31 OFFCURVE",
"97 165 OFFCURVE",
"97 347 CURVE SMOOTH",
"97 532 OFFCURVE",
"226 668 OFFCURVE",
"401 668 CURVE SMOOTH",
"498 668 OFFCURVE",
"582 624 OFFCURVE",
"640 553 CURVE",
"669 581 LINE",
"607 658 OFFCURVE",
"513 709 OFFCURVE",
"401 709 CURVE SMOOTH",
"199 709 OFFCURVE",
"54 557 OFFCURVE",
"54 347 CURVE SMOOTH",
"54 139 OFFCURVE",
"200 -10 OFFCURVE",
"402 -10 CURVE SMOOTH"
);
}
);
userData = {
com.schriftgestaltung.Glyphs.glyph.leftMetricsKey = O;
};
width = 766.76744;
},
{
anchors = (
{
name = bottom;
position = "{543, 0}";
},
{
name = top;
position = "{558, 700}";
}
);
layerId = "60FFA52A-095B-47EE-98E9-9B5B7A5F3F54";
paths = (
{
closed = 1;
nodes = (
"793 -10 OFFCURVE",
"961 136 OFFCURVE",
"961 329 CURVE SMOOTH",
"961 332 OFFCURVE",
"961 336 OFFCURVE",
"960 348 CURVE",
"559 348 LINE",
"559 307 LINE",
"928 307 LINE",
"916 320 LINE",
"916 311 LINE SMOOTH",
"918 164 OFFCURVE",
"764 31 OFFCURVE",
"558 31 CURVE SMOOTH",
"340 31 OFFCURVE",
"178 160 OFFCURVE",
"178 349 CURVE SMOOTH",
"178 531 OFFCURVE",
"337 668 OFFCURVE",
"559 668 CURVE SMOOTH",
"678 668 OFFCURVE",
"780 624 OFFCURVE",
"850 559 CURVE",
"872 594 LINE",
"803 661 OFFCURVE",
"692 709 OFFCURVE",
"559 709 CURVE SMOOTH",
"311 709 OFFCURVE",
"133 553 OFFCURVE",
"133 349 CURVE SMOOTH",
"133 137 OFFCURVE",
"311 -10 OFFCURVE",
"556 -10 CURVE SMOOTH"
);
}
);
userData = {
com.schriftgestaltung.Glyphs.glyph.leftMetricsKey = O;
};
width = 1082.76744;
},
{
anchors = (
{
name = bottom;
position = "{390, 0}";
},
{
name = top;
position = "{410, 700}";
}
);
layerId = "CC139F8F-4E38-4355-A9C7-97F3CAE4F8B4";
paths = (
{
closed = 1;
nodes = (
"598 -10 OFFCURVE",
"738 117 OFFCURVE",
"738 299 CURVE SMOOTH",
"738 318 OFFCURVE",
"736 365 OFFCURVE",
"733 388 CURVE",
"406 388 LINE",
"406 259 LINE",
"602 259 LINE",
"581 290 LINE",
"581 265 LINE SMOOTH",
"581 191 OFFCURVE",
"512 134 OFFCURVE",
"425 134 CURVE SMOOTH",
"304 134 OFFCURVE",
"209 229 OFFCURVE",
"209 352 CURVE SMOOTH",
"209 477 OFFCURVE",
"299 569 OFFCURVE",
"418 569 CURVE SMOOTH",
"487 569 OFFCURVE",
"543 540 OFFCURVE",
"593 493 CURVE",
"692 597 LINE",
"635 664 OFFCURVE",
"534 713 OFFCURVE",
"420 713 CURVE SMOOTH",
"201 713 OFFCURVE",
"44 559 OFFCURVE",
"44 352 CURVE SMOOTH",
"44 145 OFFCURVE",
"191 -10 OFFCURVE",
"412 -10 CURVE SMOOTH"
);
}
);
width = 779.23;
},
{
anchors = (
{
name = bottom;
position = "{550, 0}";
},
{
name = top;
position = "{567, 700}";
}
);
layerId = "7CDCAA7C-A29A-47F9-8FBC-7C0A555C33C4";
paths = (
{
closed = 1;
nodes = (
"803 -10 OFFCURVE",
"977 94 OFFCURVE",
"977 303 CURVE SMOOTH",
"977 310 OFFCURVE",
"976 347 OFFCURVE",
"973 378 CURVE",
"556 378 LINE",
"556 251 LINE",
"837 251 LINE",
"815 290 LINE",
"816 272 LINE SMOOTH",
"819 190 OFFCURVE",
"708 134 OFFCURVE",
"564 134 CURVE SMOOTH",
"424 134 OFFCURVE",
"294 192 OFFCURVE",
"294 352 CURVE SMOOTH",
"294 477 OFFCURVE",
"413 569 OFFCURVE",
"568 569 CURVE SMOOTH",
"670 569 OFFCURVE",
"751 532 OFFCURVE",
"813 487 CURVE",
"912 597 LINE",
"850 655 OFFCURVE",
"728 713 OFFCURVE",
"570 713 CURVE SMOOTH",
"314 713 OFFCURVE",
"124 559 OFFCURVE",
"124 352 CURVE SMOOTH",
"124 111 OFFCURVE",
"307 -10 OFFCURVE",
"545 -10 CURVE SMOOTH"
);
}
);
width = 1095.23;
}
);
leftKerningGroup = C;
leftMetricsKey = O;
rightKerningGroup = G;
unicode = 0047;
},
{
color = 6;
glyphname = H;
layers = (
{
anchors = (
{
name = bottom;
position = "{381, 0}";
},
{
name = center;
position = "{381, 350}";
},
{
name = top;
position = "{381, 700}";
},
{
name = topleft;
position = "{20, 700}";
}
);
layerId = "5A878C7E-547A-4951-B48F-676DBBC9B762";
paths = (
{
closed = 1;
nodes = (
"663 0 LINE",
"663 700 LINE",
"555 700 LINE",
"555 0 LINE"
);
},
{
closed = 1;
nodes = (
"206 0 LINE",
"206 700 LINE",
"98 700 LINE",
"98 0 LINE"
);
},
{
closed = 1;
nodes = (
"603 297 LINE",
"603 401 LINE",
"145 401 LINE",
"145 297 LINE"
);
}
);
width = 761;
},
{
anchors = (
{
name = bottom;
position = "{535, 0}";
},
{
name = center;
position = "{535, 350}";
},
{
name = top;
position = "{535, 700}";
},
{
name = topleft;
position = "{104, 700}";
}
);
layerId = "649E0662-786D-44F6-8E8D-A6782F19FFAA";
paths = (
{
closed = 1;
nodes = (
"887 0 LINE",
"887 700 LINE",
"779 700 LINE",
"779 0 LINE"
);
},
{
closed = 1;
nodes = (
"290 0 LINE",
"290 700 LINE",
"182 700 LINE",
"182 0 LINE"
);
},
{
closed = 1;
nodes = (
"827 293 LINE",
"827 397 LINE",
"230 397 LINE",
"229 293 LINE"
);
}
);
width = 1069;
},
{
anchors = (
{
name = bottom;
position = "{369, 0}";
},
{
name = center;
position = "{369, 350}";
},
{
name = top;
position = "{369, 700}";
},
{
name = topleft;
position = "{20, 700}";
}
);
layerId = "E41BA830-E06B-4916-8D61-039D08A6FFE2";
paths = (
{
closed = 1;
nodes = (
"631 0 LINE",
"631 700 LINE",
"589 700 LINE",
"589 0 LINE"
);
},
{
closed = 1;
nodes = (
"149 0 LINE",
"149 700 LINE",
"107 700 LINE",
"107 0 LINE"
);
},
{
closed = 1;
nodes = (
"609 328 LINE",
"609 370 LINE",
"127 370 LINE",
"127 328 LINE"
);
}
);
width = 738.74419;
},
{
anchors = (
{
name = bottom;
position = "{523, 0}";
},
{
name = center;
position = "{523, 350}";
},
{
name = top;
position = "{523, 700}";
},
{
name = topleft;
position = "{104, 700}";
}
);
layerId = "60FFA52A-095B-47EE-98E9-9B5B7A5F3F54";
paths = (
{
closed = 1;
nodes = (
"855 0 LINE",
"855 700 LINE",
"813 700 LINE",
"813 0 LINE"
);
},
{
closed = 1;
nodes = (
"233 0 LINE",
"233 700 LINE",
"191 700 LINE",
"191 0 LINE"
);
},
{
closed = 1;
nodes = (
"832 324 LINE",
"832 366 LINE",
"212 366 LINE",
"211 324 LINE"
);
}
);
width = 1046.74419;
},
{
anchors = (
{
name = bottom;
position = "{389, 0}";
},
{
name = center;
position = "{389, 350}";
},
{
name = top;
position = "{389, 700}";
},
{
name = topleft;
position = "{20, 700}";
}
);
layerId = "CC139F8F-4E38-4355-A9C7-97F3CAE4F8B4";
paths = (
{
closed = 1;
nodes = (
"688 0 LINE",
"688 700 LINE",
"527 700 LINE",
"527 0 LINE"
);
},
{
closed = 1;
nodes = (
"250 0 LINE",
"250 700 LINE",
"89 700 LINE",
"89 0 LINE"
);
},
{
closed = 1;
nodes = (
"611 276 LINE",
"611 422 LINE",
"153 422 LINE",
"153 276 LINE"
);
}
);
width = 776.68;
},
{
anchors = (
{
name = bottom;
position = "{543, 0}";
},
{
name = center;
position = "{543, 350}";
},
{
name = top;
position = "{543, 700}";
},
{
name = topleft;
position = "{104, 700}";
}
);
layerId = "7CDCAA7C-A29A-47F9-8FBC-7C0A555C33C4";
paths = (
{
closed = 1;
nodes = (
"912 0 LINE",
"912 700 LINE",
"751 700 LINE",
"751 0 LINE"
);
},
{
closed = 1;
nodes = (
"334 0 LINE",
"334 700 LINE",
"173 700 LINE",
"173 0 LINE"
);
},
{
closed = 1;
nodes = (
"835 272 LINE",
"835 418 LINE",
"238 418 LINE",
"237 272 LINE"
);
}
);
width = 1084.68;
}
);
leftKerningGroup = H;
rightKerningGroup = H;
unicode = 0048;
},
{
color = 3;
glyphname = Hbar;
layers = (
{
components = (
{
name = H;
transform = "{1, 0, 0, 1, 48, 0}";
}
);
layerId = "5A878C7E-547A-4951-B48F-676DBBC9B762";
paths = (
{
closed = 1;
nodes = (
"163 468 LINE",
"209 478 LINE",
"625 478 LINE",
"656 468 LINE",
"800 468 LINE",
"800 572 LINE",
"649 572 LINE",
"613 562 LINE",
"219 562 LINE",
"173 572 LINE",
"57 572 LINE",
"57 468 LINE"
);
}
);
width = 857;
},
{
components = (
{
name = H;
transform = "{1, 0, 0, 1, 110, 0}";
}
);
layerId = "649E0662-786D-44F6-8E8D-A6782F19FFAA";
paths = (
{
closed = 1;
nodes = (
"301 468 LINE",
"337 478 LINE",
"964 478 LINE",
"985 468 LINE",
"1144 468 LINE",
"1144 572 LINE",
"988 572 LINE",
"952 562 LINE",
"347 562 LINE",
"301 572 LINE",
"145 572 LINE",
"145 468 LINE"
);
}
);
width = 1289;
},
{
components = (
{
alignment = -1;
name = H;
transform = "{1, 0, 0, 1, 11, 0}";
}
);
layerId = "E41BA830-E06B-4916-8D61-039D08A6FFE2";
paths = (
{
closed = 1;
nodes = (
"127 524 LINE",
"145 527 LINE",
"612 527 LINE",
"624 524 LINE",
"728 524 LINE",
"728 564 LINE",
"622 564 LINE",
"609 562 LINE",
"147 562 LINE",
"131 564 LINE",
"32 564 LINE",
"32 524 LINE"
);
}
);
width = 760.30232;
},
{
components = (
{
alignment = -1;
name = H;
transform = "{1, 0, 0, 1, 14, 0}";
}
);
layerId = "60FFA52A-095B-47EE-98E9-9B5B7A5F3F54";
paths = (
{
closed = 1;
nodes = (
"211 524 LINE",
"229 526 LINE",
"850 526 LINE",
"861 524 LINE",
"1022 524 LINE",
"1022 564 LINE",
"862 564 LINE",
"847 562 LINE",
"231 562 LINE",
"212 564 LINE",
"52 564 LINE",
"52 524 LINE"
);
}
);
width = 1074.88372;
},
{
components = (
{
alignment = -1;
name = H;
transform = "{1, 0, 0, 1, 25, 0}";
}
);
layerId = "CC139F8F-4E38-4355-A9C7-97F3CAE4F8B4";
paths = (
{
closed = 1;
nodes = (
"127 478 LINE",
"194 488 LINE",
"610 488 LINE",
"679 478 LINE",
"790 478 LINE",
"790 611 LINE",
"675 611 LINE",
"598 601 LINE",
"204 601 LINE",
"132 611 LINE",
"37 611 LINE",
"37 478 LINE"
);
}
);
width = 825.64;
},
{
components = (
{
alignment = -1;
name = H;
transform = "{1, 0, 0, 1, 87, 0}";
}
);
layerId = "7CDCAA7C-A29A-47F9-8FBC-7C0A555C33C4";
paths = (
{
closed = 1;
nodes = (
"299 478 LINE",
"356 488 LINE",
"910 488 LINE",
"967 478 LINE",
"1133 478 LINE",
"1133 611 LINE",
"974 611 LINE",
"898 601 LINE",
"366 601 LINE",
"294 611 LINE",
"125 611 LINE",
"125 478 LINE"
);
}
);
width = 1257.64;
}
);
unicode = 0126;
},
{
color = 6;
glyphname = I;
layers = (
{
anchors = (
{
name = bottom;
position = "{239, 0}";
},
{
name = ogonek;
position = "{343, 0}";
},
{
name = top;
position = "{239, 700}";
},
{
name = topleft;
position = "{20, 700}";
}
);
layerId = "5A878C7E-547A-4951-B48F-676DBBC9B762";
paths = (
{
closed = 1;
nodes = (
"406 0 LINE",
"406 100 LINE",
"293 100 LINE",
"293 600 LINE",
"406 600 LINE",
"406 700 LINE",
"72 700 LINE",
"72 600 LINE",
"185 600 LINE",
"185 100 LINE",
"72 100 LINE",
"72 0 LINE"
);
}
);
width = 478;
},
{
anchors = (
{
name = bottom;
position = "{427, 0}";
},
{
name = ogonek;
position = "{520, 0}";
},
{
name = top;
position = "{427, 700}";
},
{
name = topleft;
position = "{138, 700}";
}
);
layerId = "649E0662-786D-44F6-8E8D-A6782F19FFAA";
paths = (
{
closed = 1;
nodes = (
"664 0 LINE",
"664 107 LINE",
"481 107 LINE",
"481 593 LINE",
"664 593 LINE",
"664 700 LINE",
"190 700 LINE",
"190 593 LINE",
"373 593 LINE",
"373 107 LINE",
"190 107 LINE",
"190 0 LINE"
);
}
);
width = 854;
},
{
anchors = (
{
name = bottom;
position = "{204, 0}";
},
{
name = ogonek;
position = "{279, 0}";
},
{
name = top;
position = "{204, 700}";
},
{
name = topleft;
position = "{20, 700}";
}
);
layerId = "E41BA830-E06B-4916-8D61-039D08A6FFE2";
paths = (
{
closed = 1;
nodes = (
"353 0 LINE",
"353 40 LINE",
"225 40 LINE",
"225 660 LINE",
"353 660 LINE",
"353 700 LINE",
"56 700 LINE",
"56 660 LINE",
"183 660 LINE",
"183 40 LINE",
"56 40 LINE",
"56 0 LINE"
);
}
);
width = 407.39535;
},
{
anchors = (
{
name = bottom;
position = "{392, 0}";
},
{
name = ogonek;
position = "{470, 0}";
},
{
name = top;
position = "{392, 700}";
},
{
name = topleft;
position = "{138, 700}";
}
);
layerId = "60FFA52A-095B-47EE-98E9-9B5B7A5F3F54";
paths = (
{
closed = 1;
nodes = (
"610 0 LINE",
"610 42 LINE",
"413 42 LINE",
"413 658 LINE",
"610 658 LINE",
"610 700 LINE",
"173 700 LINE",
"173 658 LINE",
"371 658 LINE",
"371 42 LINE",
"173 42 LINE",
"173 0 LINE"
);
}
);
width = 783.39535;
},
{
anchors = (
{
name = bottom;
position = "{272, 0}";
},
{
name = ogonek;
position = "{389, 0}";
},
{
name = top;
position = "{272, 700}";
},
{
name = topleft;
position = "{20, 700}";
}
);
layerId = "CC139F8F-4E38-4355-A9C7-97F3CAE4F8B4";
paths = (
{
closed = 1;
nodes = (
"470 0 LINE",
"470 137 LINE",
"352 137 LINE",
"352 563 LINE",
"470 563 LINE",
"470 700 LINE",
"73 700 LINE",
"73 563 LINE",
"191 563 LINE",
"191 137 LINE",
"73 137 LINE",
"73 0 LINE"
);
}
);
width = 543.66;
},
{
anchors = (
{
name = bottom;
position = "{460, 0}";
},
{
name = ogonek;
position = "{566, 0}";
},
{
name = top;
position = "{460, 700}";
},
{
name = topleft;
position = "{138, 700}";
}
);
layerId = "7CDCAA7C-A29A-47F9-8FBC-7C0A555C33C4";
paths = (
{
closed = 1;
nodes = (
"728 0 LINE",
"728 144 LINE",
"540 144 LINE",
"540 556 LINE",
"728 556 LINE",
"728 700 LINE",
"191 700 LINE",
"191 556 LINE",
"379 556 LINE",
"379 144 LINE",
"191 144 LINE",
"191 0 LINE"
);
}
);
width = 919.66;
}
);
leftKerningGroup = I;
rightKerningGroup = I;
unicode = 0049;
},
{
color = 6;
glyphname = J;
layers = (
{
anchors = (
{
name = bottom;
position = "{321, 0}";
},
{
name = top;
position = "{426, 700}";
}
);
layerId = "5A878C7E-547A-4951-B48F-676DBBC9B762";
paths = (
{
closed = 1;
nodes = (
"390.667 -10 OFFCURVE",
"484 86.333 OFFCURVE",
"484 213 CURVE SMOOTH",
"484 600 LINE",
"592 600 LINE",
"592 700 LINE",
"248 700 LINE",
"248 600 LINE",
"376 600 LINE",
"376 223 LINE SMOOTH",
"376 148.333 OFFCURVE",
"328 95 OFFCURVE",
"256 95 CURVE SMOOTH",
"206.667 95 OFFCURVE",
"175.333 109.333 OFFCURVE",
"118 188 CURVE",
"50 117 LINE",
"88.667 41 OFFCURVE",
"165.333 -10 OFFCURVE",
"256 -10 CURVE SMOOTH"
);
}
);
width = 642;
},
{
anchors = (
{
name = bottom;
position = "{478, 0}";
},
{
name = top;
position = "{635, 700}";
}
);
layerId = "649E0662-786D-44F6-8E8D-A6782F19FFAA";
paths = (
{
closed = 1;
nodes = (
"592 -10 OFFCURVE",
"699 129 OFFCURVE",
"699 273 CURVE SMOOTH",
"699 593 LINE",
"831 593 LINE",
"831 700 LINE",
"417 700 LINE",
"417 593 LINE",
"591 593 LINE",
"591 283 LINE SMOOTH",
"591 176 OFFCURVE",
"518 90 OFFCURVE",
"401 90 CURVE SMOOTH",
"296 90 OFFCURVE",
"246 156 OFFCURVE",
"197 223 CURVE",
"125 147 LINE",
"146 110 OFFCURVE",
"230 -10 OFFCURVE",
"401 -10 CURVE SMOOTH"
);
}
);
width = 881;
},
{
anchors = (
{
name = bottom;
position = "{290, 0}";
},
{
name = top;
position = "{395, 700}";
}
);
layerId = "E41BA830-E06B-4916-8D61-039D08A6FFE2";
paths = (
{
closed = 1;
nodes = (
"339 -10 OFFCURVE",
"422 65 OFFCURVE",
"422 213 CURVE SMOOTH",
"422 660 LINE",
"528 660 LINE",
"528 700 LINE",
"251 700 LINE",
"251 660 LINE",
"380 660 LINE",
"380 215 LINE SMOOTH",
"380 90 OFFCURVE",
"315 31 OFFCURVE",
"221 31 CURVE SMOOTH",
"149 31 OFFCURVE",
"97 64 OFFCURVE",
"55 147 CURVE",
"27 119 LINE",
"61 40 OFFCURVE",
"128 -10 OFFCURVE",
"220 -10 CURVE SMOOTH"
);
}
);
width = 578.30232;
},
{
anchors = (
{
name = bottom;
position = "{450, 0}";
},
{
name = top;
position = "{604, 700}";
}
);
layerId = "60FFA52A-095B-47EE-98E9-9B5B7A5F3F54";
paths = (
{
closed = 1;
nodes = (
"538 -10 OFFCURVE",
"637 102 OFFCURVE",
"637 273 CURVE SMOOTH",
"637 658 LINE",
"767 658 LINE",
"767 700 LINE",
"420 700 LINE",
"420 658 LINE",
"595 658 LINE",
"595 275 LINE SMOOTH",
"595 121 OFFCURVE",
"503 31 OFFCURVE",
"366 31 CURVE SMOOTH",
"261 31 OFFCURVE",
"181 98 OFFCURVE",
"141 180 CURVE",
"110 149 LINE",
"141 77 OFFCURVE",
"235 -10 OFFCURVE",
"365 -10 CURVE SMOOTH"
);
}
);
width = 817.30233;
},
{
anchors = (
{
name = bottom;
position = "{331, 0}";
},
{
name = top;
position = "{409, 700}";
}
);
layerId = "CC139F8F-4E38-4355-A9C7-97F3CAE4F8B4";
paths = (
{
closed = 1;
nodes = (
"391 -10 OFFCURVE",
"489 78 OFFCURVE",
"489 213 CURVE SMOOTH",
"489 559 LINE",
"597 559 LINE",
"597 700 LINE",
"203 700 LINE",
"203 559 LINE",
"332 559 LINE",
"332 231 LINE SMOOTH",
"332 175 OFFCURVE",
"297 136 OFFCURVE",
"245 136 CURVE SMOOTH",
"204 136 OFFCURVE",
"174 155 OFFCURVE",
"134 213 CURVE",
"41 116 LINE",
"82 38 OFFCURVE",
"159 -10 OFFCURVE",
"260 -10 CURVE SMOOTH"
);
}
);
width = 661.6;
},
{
anchors = (
{
name = bottom;
position = "{488, 0}";
},
{
name = top;
position = "{618, 700}";
}
);
layerId = "7CDCAA7C-A29A-47F9-8FBC-7C0A555C33C4";
paths = (
{
closed = 1;
nodes = (
"592 -10 OFFCURVE",
"704 121 OFFCURVE",
"704 273 CURVE SMOOTH",
"704 552 LINE",
"836 552 LINE",
"836 700 LINE",
"372 700 LINE",
"372 552 LINE",
"547 552 LINE",
"547 291 LINE SMOOTH",
"547 203 OFFCURVE",
"487 131 OFFCURVE",
"390 131 CURVE SMOOTH",
"293 131 OFFCURVE",
"245 202 OFFCURVE",
"213 248 CURVE",
"116 146 LINE",
"140 107 OFFCURVE",
"224 -10 OFFCURVE",
"405 -10 CURVE SMOOTH"
);
}
);
width = 900.6;
}
);
leftKerningGroup = J;
rightKerningGroup = J;
unicode = 004A;
},
{
color = 6;
glyphname = K;
layers = (
{
anchors = (
{
name = bottom;
position = "{366, 0}";
},
{
name = top;
position = "{366, 700}";
}
);
layerId = "5A878C7E-547A-4951-B48F-676DBBC9B762";
paths = (
{
closed = 1;
nodes = (
"691 700 LINE",
"549 700 LINE",
"182 333 LINE",
"188 212 LINE"
);
},
{
closed = 1;
nodes = (
"206 0 LINE",
"206 700 LINE",
"98 700 LINE",
"98 0 LINE"
);
},
{
closed = 1;
nodes = (
"697 0 LINE",
"374 427 LINE",
"294 358 LINE",
"562 0 LINE"
);
}
);
width = 732;
},
{
anchors = (
{
name = bottom;
position = "{527, 0}";
},
{
name = top;
position = "{527, 700}";
}
);
layerId = "649E0662-786D-44F6-8E8D-A6782F19FFAA";
paths = (
{
closed = 1;
nodes = (
"935 700 LINE",
"775 700 LINE",
"259 297 LINE",
"259 174 LINE"
);
},
{
closed = 1;
nodes = (
"290 0 LINE",
"290 700 LINE",
"182 700 LINE",
"182 0 LINE"
);
},
{
closed = 1;
nodes = (
"921 0 LINE",
"537 465 LINE",
"470 379 LINE",
"777 0 LINE"
);
}
);
width = 1071;
},
{
anchors = (
{
name = bottom;
position = "{329, 0}";
},
{
name = top;
position = "{329, 700}";
}
);
layerId = "E41BA830-E06B-4916-8D61-039D08A6FFE2";
paths = (
{
closed = 1;
nodes = (
"619 700 LINE",
"562 700 LINE",
"134 281 LINE",
"136 229 LINE"
);
},
{
closed = 1;
nodes = (
"149 0 LINE",
"149 700 LINE",
"107 700 LINE",
"107 0 LINE"
);
},
{
closed = 1;
nodes = (
"635 0 LINE",
"317 421 LINE",
"285 393 LINE",
"581 0 LINE"
);
}
);
userData = {
com.schriftgestaltung.Glyphs.glyph.leftMetricsKey = H;
};
width = 658.32558;
},
{
anchors = (
{
name = bottom;
position = "{485, 0}";
},
{
name = top;
position = "{485, 700}";
}
);
layerId = "60FFA52A-095B-47EE-98E9-9B5B7A5F3F54";
paths = (
{
closed = 1;
nodes = (
"852 700 LINE",
"788 700 LINE",
"218 250 LINE",
"218 200 LINE"
);
},
{
closed = 1;
nodes = (
"233 0 LINE",
"233 700 LINE",
"191 700 LINE",
"191 0 LINE"
);
},
{
closed = 1;
nodes = (
"859 0 LINE",
"492 442 LINE",
"463 411 LINE",
"802 0 LINE"
);
}
);
userData = {
com.schriftgestaltung.Glyphs.glyph.leftMetricsKey = H;
};
width = 997.32558;
},
{
anchors = (
{
name = bottom;
position = "{369, 0}";
},
{
name = top;
position = "{369, 700}";
}
);
layerId = "CC139F8F-4E38-4355-A9C7-97F3CAE4F8B4";
paths = (
{
closed = 1;
nodes = (
"713 700 LINE",
"520 700 LINE",
"170 346 LINE",
"209 206 LINE"
);
},
{
closed = 1;
nodes = (
"250 0 LINE",
"250 700 LINE",
"89 700 LINE",
"89 0 LINE"
);
},
{
closed = 1;
nodes = (
"730 0 LINE",
"389 439 LINE",
"280 345 LINE",
"541 0 LINE"
);
}
);
width = 737.88;
},
{
anchors = (
{
name = bottom;
position = "{530, 0}";
},
{
name = top;
position = "{530, 700}";
}
);
layerId = "7CDCAA7C-A29A-47F9-8FBC-7C0A555C33C4";
paths = (
{
closed = 1;
nodes = (
"957 700 LINE",
"746 700 LINE",
"247 310 LINE",
"280 168 LINE"
);
},
{
closed = 1;
nodes = (
"334 0 LINE",
"334 700 LINE",
"173 700 LINE",
"173 0 LINE"
);
},
{
closed = 1;
nodes = (
"954 0 LINE",
"552 477 LINE",
"456 366 LINE",
"756 0 LINE"
);
}
);
width = 1076.88;
}
);
leftKerningGroup = H;
leftMetricsKey = H;
rightKerningGroup = K;
unicode = 004B;
},
{
color = 6;
glyphname = L;
layers = (
{
anchors = (
{
name = bottom;
position = "{300, 0}";
},
{
name = center;
position = "{153, 350}";
},
{
name = top;
position = "{153, 700}";
},
{
name = topright;
position = "{293, 700}";
}
);
layerId = "5A878C7E-547A-4951-B48F-676DBBC9B762";
paths = (
{
closed = 1;
nodes = (
"534 0 LINE",
"534 104 LINE",
"206 104 LINE",
"206 700 LINE",
"98 700 LINE",
"98 0 LINE"
);
}
);
width = 599;
},
{
anchors = (
{
name = bottom;
position = "{454, 0}";
},
{
name = center;
position = "{238, 350}";
},
{
name = top;
position = "{237, 700}";
},
{
name = topright;
position = "{454, 700}";
}
);
layerId = "649E0662-786D-44F6-8E8D-A6782F19FFAA";
paths = (
{
closed = 1;
nodes = (
"758 0 LINE",
"758 104 LINE",
"290 104 LINE",
"290 700 LINE",
"182 700 LINE",
"182 0 LINE"
);
}
);
width = 898;
},
{
anchors = (
{
name = bottom;
position = "{275, 0}";
},
{
name = center;
position = "{129, 350}";
},
{
name = top;
position = "{129, 700}";
},
{
name = topright;
position = "{297, 700}";
}
);
layerId = "E41BA830-E06B-4916-8D61-039D08A6FFE2";
paths = (
{
closed = 1;
nodes = (
"495 0 LINE",
"495 41 LINE",
"149 41 LINE",
"149 700 LINE",
"107 700 LINE",
"107 0 LINE"
);
}
);
userData = {
com.schriftgestaltung.Glyphs.glyph.leftMetricsKey = H;
};
width = 548.34883;
},
{
anchors = (
{
name = bottom;
position = "{413, 0}";
},
{
name = center;
position = "{213, 350}";
},
{
name = top;
position = "{212, 700}";
},
{
name = topright;
position = "{444, 700}";
}
);
layerId = "60FFA52A-095B-47EE-98E9-9B5B7A5F3F54";
paths = (
{
closed = 1;
nodes = (
"719 0 LINE",
"719 41 LINE",
"233 41 LINE",
"233 700 LINE",
"191 700 LINE",
"191 0 LINE"
);
}
);
userData = {
com.schriftgestaltung.Glyphs.glyph.leftMetricsKey = H;
};
width = 816.65116;
},
{
anchors = (
{
name = bottom;
position = "{304, 0}";
},
{
name = center;
position = "{172, 350}";
},
{
name = top;
position = "{171, 700}";
},
{
name = topright;
position = "{330, 700}";
}
);
layerId = "CC139F8F-4E38-4355-A9C7-97F3CAE4F8B4";
paths = (
{
closed = 1;
nodes = (
"564 0 LINE",
"564 143 LINE",
"250 143 LINE",
"250 700 LINE",
"89 700 LINE",
"89 0 LINE"
);
}
);
width = 607.33;
},
{
anchors = (
{
name = bottom;
position = "{458, 0}";
},
{
name = center;
position = "{257, 350}";
},
{
name = top;
position = "{255, 700}";
},
{
name = topright;
position = "{491, 700}";
}
);
layerId = "7CDCAA7C-A29A-47F9-8FBC-7C0A555C33C4";
paths = (
{
closed = 1;
nodes = (
"788 0 LINE",
"788 143 LINE",
"334 143 LINE",
"334 700 LINE",
"173 700 LINE",
"173 0 LINE"
);
}
);
width = 906.33;
}
);
leftKerningGroup = H;
leftMetricsKey = H;
rightKerningGroup = L;
unicode = 004C;
},
{
color = 3;
glyphname = Lslash;
layers = (
{
components = (
{
name = L;
transform = "{1, 0, 0, 1, 39, 0}";
}
);
layerId = "5A878C7E-547A-4951-B48F-676DBBC9B762";
paths = (
{
closed = 1;
nodes = (
"363 382 LINE",
"331 459 LINE",
"40 328 LINE",
"69 256 LINE"
);
}
);
width = 638;
},
{
components = (
{
name = L;
transform = "{1, 0, 0, 1, 30, 0}";
}
);
layerId = "649E0662-786D-44F6-8E8D-A6782F19FFAA";
paths = (
{
closed = 1;
nodes = (
"633 439 LINE",
"601 536 LINE",
"40 318 LINE",
"69 226 LINE"
);
}
);
width = 928;
},
{
components = (
{
alignment = -1;
name = L;
transform = "{1, 0, 0, 1, -3, 0}";
}
);
layerId = "E41BA830-E06B-4916-8D61-039D08A6FFE2";
paths = (
{
closed = 1;
nodes = (
"287 421 LINE",
"274 455 LINE",
"2 332 LINE",
"16 299 LINE"
);
}
);
userData = {
com.schriftgestaltung.Glyphs.glyph.rightMetricsKey = L;
};
width = 545.13953;
},
{
components = (
{
alignment = -1;
name = L;
transform = "{1, 0, 0, 1, 7, 0}";
}
);
layerId = "60FFA52A-095B-47EE-98E9-9B5B7A5F3F54";
paths = (
{
closed = 1;
nodes = (
"562 467 LINE",
"551 505 LINE",
"10 295 LINE",
"21 257 LINE"
);
}
);
userData = {
com.schriftgestaltung.Glyphs.glyph.rightMetricsKey = L;
};
width = 823.62791;
},
{
components = (
{
alignment = -1;
name = L;
transform = "{1, 0, 0, 1, 20, 0}";
}
);
layerId = "CC139F8F-4E38-4355-A9C7-97F3CAE4F8B4";
paths = (
{
closed = 1;
nodes = (
"393 391 LINE",
"347 510 LINE",
"-1 357 LINE",
"44 240 LINE"
);
}
);
width = 627.22;
},
{
components = (
{
alignment = -1;
name = L;
transform = "{1, 0, 0, 1, 11, 0}";
}
);
layerId = "7CDCAA7C-A29A-47F9-8FBC-7C0A555C33C4";
paths = (
{
closed = 1;
nodes = (
"663 448 LINE",
"617 587 LINE",
"-1 347 LINE",
"44 210 LINE"
);
}
);
width = 917.22;
}
);
leftKerningGroup = H;
rightKerningGroup = L;
unicode = 0141;
},
{
color = 6;
glyphname = M;
layers = (
{
anchors = (
{
name = bottom;
position = "{432, 0}";
},
{
name = top;
position = "{432, 700}";
}
);
layerId = "5A878C7E-547A-4951-B48F-676DBBC9B762";
paths = (
{
closed = 1;
nodes = (
"206 0 LINE",
"206 287 LINE SMOOTH",
"206 416.333 OFFCURVE",
"200.667 502.667 OFFCURVE",
"186 592 CURVE",
"175 551 LINE",
"397 201 LINE",
"463 201 LINE",
"692 555 LINE",
"678 592 LINE",
"663.333 497.333 OFFCURVE",
"658 407 OFFCURVE",
"658 287 CURVE SMOOTH",
"658 0 LINE",
"766 0 LINE",
"766 700 LINE",
"666 700 LINE",
"408 286 LINE",
"459 285 LINE",
"204 700 LINE",
"98 700 LINE",
"98 0 LINE"
);
}
);
width = 864;
},
{
anchors = (
{
name = bottom;
position = "{588, 0}";
},
{
name = top;
position = "{588, 700}";
}
);
layerId = "649E0662-786D-44F6-8E8D-A6782F19FFAA";
paths = (
{
closed = 1;
nodes = (
"290 0 LINE",
"290 297 LINE SMOOTH",
"290 408 OFFCURVE",
"286 501 OFFCURVE",
"270 602 CURVE",
"259 561 LINE",
"555 201 LINE",
"621 201 LINE",
"917 561 LINE",
"906 602 LINE",
"890 501 OFFCURVE",
"886 408 OFFCURVE",
"886 297 CURVE SMOOTH",
"886 0 LINE",
"994 0 LINE",
"994 700 LINE",
"888 700 LINE",
"569 305 LINE",
"607 305 LINE",
"288 700 LINE",
"182 700 LINE",
"182 0 LINE"
);
}
);
width = 1176;
},
{
anchors = (
{
name = bottom;
position = "{423, 0}";
},
{
name = top;
position = "{423, 700}";
}
);
layerId = "E41BA830-E06B-4916-8D61-039D08A6FFE2";
paths = (
{
closed = 1;
nodes = (
"149 0 LINE",
"149 485 LINE SMOOTH",
"149 553 OFFCURVE",
"148 608 OFFCURVE",
"142 663 CURVE",
"132 644 LINE",
"409 203 LINE",
"436 203 LINE",
"717 650 LINE",
"702 663 LINE",
"697 605 OFFCURVE",
"695 548 OFFCURVE",
"695 483 CURVE SMOOTH",
"695 0 LINE",
"737 0 LINE",
"737 700 LINE",
"701 700 LINE",
"416 244 LINE",
"430 244 LINE",
"145 700 LINE",
"107 700 LINE",
"107 0 LINE"
);
}
);
userData = {
com.schriftgestaltung.Glyphs.glyph.leftMetricsKey = H;
com.schriftgestaltung.Glyphs.glyph.rightMetricsKey = H;
};
width = 844.81396;
},
{
anchors = (
{
name = bottom;
position = "{579, 0}";
},
{
name = top;
position = "{579, 700}";
}
);
layerId = "60FFA52A-095B-47EE-98E9-9B5B7A5F3F54";
paths = (
{
closed = 1;
nodes = (
"233 0 LINE",
"234 487 LINE SMOOTH",
"234 551 OFFCURVE",
"232 608 OFFCURVE",
"226 663 CURVE",
"212 656 LINE",
"564 213 LINE",
"591 213 LINE",
"942 655 LINE",
"930 664 LINE",
"924 604 OFFCURVE",
"922 546 OFFCURVE",
"923 485 CURVE SMOOTH",
"923 0 LINE",
"965 0 LINE",
"965 700 LINE",
"925 700 LINE",
"569 251 LINE",
"587 251 LINE",
"231 700 LINE",
"191 700 LINE",
"191 0 LINE"
);
}
);
userData = {
com.schriftgestaltung.Glyphs.glyph.leftMetricsKey = H;
com.schriftgestaltung.Glyphs.glyph.rightMetricsKey = H;
};
width = 1156.81395;
},
{
anchors = (
{
name = bottom;
position = "{438, 0}";
},
{
name = top;
position = "{438, 700}";
}
);
layerId = "CC139F8F-4E38-4355-A9C7-97F3CAE4F8B4";
paths = (
{
closed = 1;
nodes = (
"246 0 LINE",
"246 228 LINE SMOOTH",
"246 358 OFFCURVE",
"241 444 OFFCURVE",
"226 533 CURVE",
"208 481 LINE",
"403 175 LINE",
"469 175 LINE",
"668 483 LINE",
"650 533 LINE",
"635 439 OFFCURVE",
"630 348 OFFCURVE",
"630 228 CURVE SMOOTH",
"630 0 LINE",
"787 0 LINE",
"787 700 LINE",
"647 700 LINE",
"389 286 LINE",
"489 285 LINE",
"234 700 LINE",
"89 700 LINE",
"89 0 LINE"
);
}
);
width = 875.76;
},
{
anchors = (
{
name = bottom;
position = "{594, 0}";
},
{
name = top;
position = "{594, 700}";
}
);
layerId = "7CDCAA7C-A29A-47F9-8FBC-7C0A555C33C4";
paths = (
{
closed = 1;
nodes = (
"330 0 LINE",
"330 238 LINE SMOOTH",
"330 349 OFFCURVE",
"326 442 OFFCURVE",
"310 543 CURVE",
"292 491 LINE",
"561 175 LINE",
"627 175 LINE",
"893 489 LINE",
"878 543 LINE",
"862 442 OFFCURVE",
"858 349 OFFCURVE",
"858 238 CURVE SMOOTH",
"858 0 LINE",
"1015 0 LINE",
"1015 700 LINE",
"869 700 LINE",
"550 305 LINE",
"637 305 LINE",
"318 700 LINE",
"173 700 LINE",
"173 0 LINE"
);
}
);
width = 1187.76;
}
);
leftKerningGroup = H;
leftMetricsKey = H;
rightKerningGroup = H;
rightMetricsKey = H;
unicode = 004D;
},
{
color = 6;
glyphname = N;
layers = (
{
anchors = (
{
name = bottom;
position = "{397, 0}";
},
{
name = top;
position = "{397, 700}";
}
);
layerId = "5A878C7E-547A-4951-B48F-676DBBC9B762";
paths = (
{
closed = 1;
nodes = (
"206 0 LINE",
"206 291 LINE SMOOTH",
"206 321.169 OFFCURVE",
"203.595 363.871 OFFCURVE",
"186 566 CURVE",
"175 552 LINE",
"596 0 LINE",
"695 0 LINE",
"695 700 LINE",
"587 700 LINE",
"587 470 LINE SMOOTH",
"587 323.333 OFFCURVE",
"593.667 200.667 OFFCURVE",
"607 118 CURVE",
"623 127 LINE",
"195 700 LINE",
"98 700 LINE",
"98 0 LINE"
);
}
);
width = 793;
},
{
anchors = (
{
name = bottom;
position = "{561, 0}";
},
{
name = top;
position = "{561, 700}";
}
);
layerId = "649E0662-786D-44F6-8E8D-A6782F19FFAA";
paths = (
{
closed = 1;
nodes = (
"290 0 LINE",
"290 291 LINE SMOOTH",
"290 382 OFFCURVE",
"275 505 OFFCURVE",
"270 566 CURVE",
"269 552 LINE",
"830 0 LINE",
"939 0 LINE",
"939 700 LINE",
"831 700 LINE",
"831 470 LINE SMOOTH",
"831 361 OFFCURVE",
"835 218 OFFCURVE",
"851 118 CURVE",
"857 127 LINE",
"289 700 LINE",
"182 700 LINE",
"182 0 LINE"
);
}
);
width = 1121;
},
{
anchors = (
{
name = bottom;
position = "{373, 0}";
},
{
name = top;
position = "{373, 700}";
}
);
layerId = "E41BA830-E06B-4916-8D61-039D08A6FFE2";
paths = (
{
closed = 1;
nodes = (
"149 0 LINE",
"149 429 LINE SMOOTH",
"149 492 OFFCURVE",
"148 585 OFFCURVE",
"143 658 CURVE",
"129 655 LINE",
"599 0 LINE",
"638 0 LINE",
"638 700 LINE",
"596 700 LINE",
"596 294 LINE SMOOTH",
"596 145 OFFCURVE",
"598 92 OFFCURVE",
"602 51 CURVE",
"609 53 LINE",
"146 700 LINE",
"107 700 LINE",
"107 0 LINE"
);
}
);
userData = {
com.schriftgestaltung.Glyphs.glyph.leftMetricsKey = H;
com.schriftgestaltung.Glyphs.glyph.rightMetricsKey = H;
};
width = 746;
},
{
anchors = (
{
name = bottom;
position = "{537, 0}";
},
{
name = top;
position = "{537, 700}";
}
);
layerId = "60FFA52A-095B-47EE-98E9-9B5B7A5F3F54";
paths = (
{
closed = 1;
nodes = (
"233 0 LINE",
"233 428 LINE SMOOTH",
"234 530 OFFCURVE",
"229 613 OFFCURVE",
"227 657 CURVE",
"223 654 LINE",
"833 0 LINE",
"881 0 LINE",
"881 700 LINE",
"839 700 LINE",
"839 294 LINE SMOOTH",
"841 223 OFFCURVE",
"840 110 OFFCURVE",
"846 40 CURVE",
"851 43 LINE",
"239 700 LINE",
"191 700 LINE",
"191 0 LINE"
);
}
);
userData = {
com.schriftgestaltung.Glyphs.glyph.leftMetricsKey = H;
com.schriftgestaltung.Glyphs.glyph.rightMetricsKey = H;
};
width = 1073.4186;
},
{
anchors = (
{
name = bottom;
position = "{403, 0}";
},
{
name = top;
position = "{403, 700}";
}
);
layerId = "CC139F8F-4E38-4355-A9C7-97F3CAE4F8B4";
paths = (
{
closed = 1;
nodes = (
"246 0 LINE",
"246 242 LINE SMOOTH",
"246 317 OFFCURVE",
"243 354 OFFCURVE",
"226 517 CURVE",
"181 522 LINE",
"570 0 LINE",
"716 0 LINE",
"716 700 LINE",
"559 700 LINE",
"559 519 LINE SMOOTH",
"558 379 OFFCURVE",
"564 299 OFFCURVE",
"579 192 CURVE",
"609 190 LINE",
"233 700 LINE",
"89 700 LINE",
"89 0 LINE"
);
}
);
width = 804.76;
},
{
anchors = (
{
name = bottom;
position = "{567, 0}";
},
{
name = top;
position = "{567, 700}";
}
);
layerId = "7CDCAA7C-A29A-47F9-8FBC-7C0A555C33C4";
paths = (
{
closed = 1;
nodes = (
"330 0 LINE",
"330 242 LINE SMOOTH",
"330 378 OFFCURVE",
"318 467 OFFCURVE",
"310 517 CURVE",
"275 522 LINE",
"804 0 LINE",
"960 0 LINE",
"960 700 LINE",
"803 700 LINE",
"803 519 LINE SMOOTH",
"803 416 OFFCURVE",
"805 317 OFFCURVE",
"823 192 CURVE",
"843 190 LINE",
"327 700 LINE",
"173 700 LINE",
"173 0 LINE"
);
}
);
width = 1132.76;
}
);
leftKerningGroup = H;
leftMetricsKey = H;
rightKerningGroup = H;
rightMetricsKey = H;
unicode = 004E;
},
{
color = 6;
glyphname = Eng;
layers = (
{
layerId = "5A878C7E-547A-4951-B48F-676DBBC9B762";
paths = (
{
closed = 1;
nodes = (
"620.667 -197 OFFCURVE",
"695 -128 OFFCURVE",
"695 -24 CURVE SMOOTH",
"695 700 LINE",
"587 700 LINE",
"587 470 LINE SMOOTH",
"587 323.333 OFFCURVE",
"593.667 200.667 OFFCURVE",
"607 118 CURVE",
"623 127 LINE",
"195 700 LINE",
"98 700 LINE",
"98 0 LINE",
"206 0 LINE",
"206 291 LINE SMOOTH",
"206 341 OFFCURVE",
"197 455 OFFCURVE",
"186 566 CURVE",
"175 552 LINE",
"596 0 LINE",
"587 76 LINE",
"587 1 LINE SMOOTH",
"587 -77.667 OFFCURVE",
"548.333 -118 OFFCURVE",
"471 -118 CURVE",
"510 -197 LINE"
);
}
);
width = 793;
},
{
layerId = "649E0662-786D-44F6-8E8D-A6782F19FFAA";
paths = (
{
closed = 1;
nodes = (
"821 -197 OFFCURVE",
"939 -81 OFFCURVE",
"939 106 CURVE SMOOTH",
"939 700 LINE",
"831 700 LINE",
"831 470 LINE SMOOTH",
"831 361 OFFCURVE",
"835 218 OFFCURVE",
"851 118 CURVE",
"857 127 LINE",
"289 700 LINE",
"182 700 LINE",
"182 0 LINE",
"290 0 LINE",
"290 291 LINE SMOOTH",
"290 346 OFFCURVE",
"281 455 OFFCURVE",
"270 566 CURVE",
"269 552 LINE",
"830 0 LINE",
"826 71 LINE",
"826 50 LINE SMOOTH",
"826 -32 OFFCURVE",
"747 -95 OFFCURVE",
"630 -95 CURVE",
"669 -197 LINE"
);
}
);
width = 1121;
},
{
layerId = "E41BA830-E06B-4916-8D61-039D08A6FFE2";
paths = (
{
closed = 1;
nodes = (
"585 -195 OFFCURVE",
"638 -143 OFFCURVE",
"638 -51 CURVE SMOOTH",
"638 700 LINE",
"596 700 LINE",
"596 294 LINE SMOOTH",
"596 145 OFFCURVE",
"599 93 OFFCURVE",
"602 51 CURVE",
"609 53 LINE",
"146 700 LINE",
"107 700 LINE",
"107 0 LINE",
"149 0 LINE",
"149 429 LINE SMOOTH",
"149 457 OFFCURVE",
"148 614 OFFCURVE",
"143 658 CURVE",
"129 655 LINE",
"605 -8 LINE",
"596 32 LINE",
"596 -43 LINE SMOOTH",
"596 -114 OFFCURVE",
"564 -160 OFFCURVE",
"483 -160 CURVE",
"497 -195 LINE"
);
}
);
userData = {
com.schriftgestaltung.Glyphs.glyph.leftMetricsKey = N;
com.schriftgestaltung.Glyphs.glyph.rightMetricsKey = N;
};
width = 746;
},
{
layerId = "60FFA52A-095B-47EE-98E9-9B5B7A5F3F54";
paths = (
{
closed = 1;
nodes = (
"798 -195 OFFCURVE",
"881 -100 OFFCURVE",
"881 25 CURVE SMOOTH",
"881 700 LINE",
"839 700 LINE",
"839 294 LINE SMOOTH",
"839 225 OFFCURVE",
"841 111 OFFCURVE",
"846 44 CURVE",
"851 49 LINE",
"241 700 LINE",
"191 700 LINE",
"191 0 LINE",
"233 0 LINE",
"233 476 LINE SMOOTH",
"232 516 OFFCURVE",
"232 605 OFFCURVE",
"227 658 CURVE",
"223 655 LINE",
"845 -4 LINE",
"841 28 LINE",
"841 9 LINE SMOOTH",
"841 -85 OFFCURVE",
"768 -158 OFFCURVE",
"644 -158 CURVE",
"657 -195 LINE"
);
}
);
userData = {
com.schriftgestaltung.Glyphs.glyph.leftMetricsKey = N;
com.schriftgestaltung.Glyphs.glyph.rightMetricsKey = N;
};
width = 1073.4186;
},
{
layerId = "CC139F8F-4E38-4355-A9C7-97F3CAE4F8B4";
paths = (
{
closed = 1;
nodes = (
"632 -202 OFFCURVE",
"716 -140 OFFCURVE",
"716 -12 CURVE SMOOTH",
"716 700 LINE",
"559 700 LINE",
"559 519 LINE SMOOTH",
"558 390 OFFCURVE",
"562 311 OFFCURVE",
"577 206 CURVE",
"592 214 LINE",
"233 700 LINE",
"89 700 LINE",
"89 0 LINE",
"246 0 LINE",
"246 263 LINE SMOOTH",
"246 309 OFFCURVE",
"239 402 OFFCURVE",
"231 480 CURVE",
"218 470 LINE",
"571 -1 LINE",
"563 63 LINE",
"563 1 LINE SMOOTH",
"563 -57 OFFCURVE",
"501 -84 OFFCURVE",
"433 -84 CURVE",
"496 -202 LINE"
);
}
);
width = 804.76;
},
{
layerId = "7CDCAA7C-A29A-47F9-8FBC-7C0A555C33C4";
paths = (
{
closed = 1;
nodes = (
"833 -202 OFFCURVE",
"960 -93 OFFCURVE",
"960 118 CURVE SMOOTH",
"960 700 LINE",
"803 700 LINE",
"803 519 LINE SMOOTH",
"802 428 OFFCURVE",
"804 328 OFFCURVE",
"821 206 CURVE",
"826 214 LINE",
"327 700 LINE",
"173 700 LINE",
"173 0 LINE",
"330 0 LINE",
"330 263 LINE SMOOTH",
"330 314 OFFCURVE",
"323 402 OFFCURVE",
"315 480 CURVE",
"312 470 LINE",
"805 -1 LINE",
"802 58 LINE",
"802 50 LINE SMOOTH",
"802 -11 OFFCURVE",
"699 -61 OFFCURVE",
"592 -61 CURVE",
"655 -202 LINE"
);
}
);
width = 1132.76;
}
);
leftKerningGroup = H;
leftMetricsKey = N;
rightKerningGroup = H;
rightMetricsKey = N;
unicode = 014A;
},
{
color = 6;
glyphname = Nhookleft;
layers = (
{
layerId = "5A878C7E-547A-4951-B48F-676DBBC9B762";
paths = (
{
closed = 1;
nodes = (
"115.667 -197 OFFCURVE",
"190 -128 OFFCURVE",
"190 -24 CURVE SMOOTH",
"190 291 LINE SMOOTH",
"190 341 OFFCURVE",
"181 455 OFFCURVE",
"170 566 CURVE",
"159 552 LINE",
"580 0 LINE",
"679 0 LINE",
"679 700 LINE",
"571 700 LINE",
"571 470 LINE SMOOTH",
"571 323.333 OFFCURVE",
"577.667 200.667 OFFCURVE",
"591 118 CURVE",
"607 127 LINE",
"179 700 LINE",
"82 700 LINE",
"82 1 LINE SMOOTH",
"82 -77.667 OFFCURVE",
"43.333 -118 OFFCURVE",
"-34 -118 CURVE",
"5 -197 LINE"
);
}
);
width = 777;
},
{
layerId = "649E0662-786D-44F6-8E8D-A6782F19FFAA";
paths = (
{
closed = 1;
nodes = (
"192 -197 OFFCURVE",
"310 -81 OFFCURVE",
"310 106 CURVE SMOOTH",
"310 291 LINE SMOOTH",
"310 346 OFFCURVE",
"301 453 OFFCURVE",
"290 566 CURVE",
"269 532 LINE",
"830 0 LINE",
"939 0 LINE",
"939 700 LINE",
"811 700 LINE",
"811 470 LINE SMOOTH",
"811 361 OFFCURVE",
"815 218 OFFCURVE",
"831 118 CURVE",
"857 147 LINE",
"289 700 LINE",
"182 700 LINE",
"182 131 LINE SMOOTH",
"182 -9 OFFCURVE",
"130 -95 OFFCURVE",
"1 -95 CURVE",
"40 -197 LINE"
);
}
);
width = 1121;
},
{
layerId = "E41BA830-E06B-4916-8D61-039D08A6FFE2";
paths = (
{
closed = 1;
nodes = (
"93 -195 OFFCURVE",
"145 -143 OFFCURVE",
"145 -51 CURVE SMOOTH",
"145 429 LINE SMOOTH",
"145 459 OFFCURVE",
"143 613 OFFCURVE",
"139 658 CURVE",
"125 655 LINE",
"596 0 LINE",
"633 0 LINE",
"633 700 LINE",
"591 700 LINE",
"591 294 LINE SMOOTH",
"591 145 OFFCURVE",
"594 92 OFFCURVE",
"599 51 CURVE",
"605 53 LINE",
"143 700 LINE",
"103 700 LINE",
"103 -43 LINE SMOOTH",
"103 -114 OFFCURVE",
"72 -160 OFFCURVE",
"-10 -160 CURVE",
"6 -195 LINE"
);
}
);
userData = {
com.schriftgestaltung.Glyphs.glyph.rightMetricsKey = N;
};
width = 741;
},
{
layerId = "60FFA52A-095B-47EE-98E9-9B5B7A5F3F54";
paths = (
{
closed = 1;
nodes = (
"155 -191 OFFCURVE",
"251 -96 OFFCURVE",
"251 78 CURVE SMOOTH",
"251 428 LINE SMOOTH",
"251 464 OFFCURVE",
"248 608 OFFCURVE",
"245 657 CURVE",
"236 649 LINE",
"846 0 LINE",
"894 0 LINE",
"894 700 LINE",
"848 700 LINE",
"848 294 LINE SMOOTH",
"849 223 OFFCURVE",
"849 110 OFFCURVE",
"854 40 CURVE",
"864 48 LINE",
"252 700 LINE",
"204 700 LINE",
"204 87 LINE SMOOTH",
"204 -55 OFFCURVE",
"144 -143 OFFCURVE",
"18 -154 CURVE",
"30 -195 LINE"
);
}
);
userData = {
com.schriftgestaltung.Glyphs.glyph.rightMetricsKey = N;
};
width = 1086.46512;
},
{
layerId = "CC139F8F-4E38-4355-A9C7-97F3CAE4F8B4";
paths = (
{
closed = 1;
nodes = (
"156 -202 OFFCURVE",
"236 -137 OFFCURVE",
"236 -1 CURVE SMOOTH",
"236 219 LINE SMOOTH",
"236 310 OFFCURVE",
"231 386 OFFCURVE",
"216 517 CURVE",
"170 522 LINE",
"559 0 LINE",
"705 0 LINE",
"705 700 LINE",
"548 700 LINE",
"548 519 LINE SMOOTH",
"548 379 OFFCURVE",
"553 299 OFFCURVE",
"568 192 CURVE",
"599 190 LINE",
"223 700 LINE",
"79 700 LINE",
"79 35 LINE SMOOTH",
"79 -44 OFFCURVE",
"37 -84 OFFCURVE",
"-47 -84 CURVE",
"16 -202 LINE"
);
}
);
width = 794.15;
},
{
layerId = "7CDCAA7C-A29A-47F9-8FBC-7C0A555C33C4";
paths = (
{
closed = 1;
nodes = (
"233 -202 OFFCURVE",
"356 -90 OFFCURVE",
"356 129 CURVE SMOOTH",
"356 219 LINE SMOOTH",
"356 315 OFFCURVE",
"351 384 OFFCURVE",
"336 517 CURVE",
"280 502 LINE",
"809 0 LINE",
"965 0 LINE",
"965 700 LINE",
"788 700 LINE",
"788 519 LINE SMOOTH",
"788 416 OFFCURVE",
"791 317 OFFCURVE",
"808 192 CURVE",
"849 210 LINE",
"333 700 LINE",
"179 700 LINE",
"179 165 LINE SMOOTH",
"179 25 OFFCURVE",
"124 -61 OFFCURVE",
"-12 -61 CURVE",
"51 -202 LINE"
);
}
);
width = 1138.15;
}
);
leftKerningGroup = H;
rightKerningGroup = H;
rightMetricsKey = N;
unicode = 019D;
},
{
color = 6;
glyphname = O;
layers = (
{
anchors = (
{
name = bottom;
position = "{391, 0}";
},
{
name = center;
position = "{391, 350}";
},
{
name = ogonek;
position = "{563, 0}";
},
{
name = top;
position = "{391, 700}";
},
{
name = topleft;
position = "{20, 700}";
},
{
name = topright;
position = "{762, 700}";
}
);
layerId = "5A878C7E-547A-4951-B48F-676DBBC9B762";
paths = (
{
closed = 1;
nodes = (
"588.333 -10 OFFCURVE",
"734 144.667 OFFCURVE",
"734 350 CURVE SMOOTH",
"734 555.333 OFFCURVE",
"588.333 710 OFFCURVE",
"391 710 CURVE SMOOTH",
"193.667 710 OFFCURVE",
"48 556.667 OFFCURVE",
"48 350 CURVE SMOOTH",
"48 143.333 OFFCURVE",
"193.667 -10 OFFCURVE",
"391 -10 CURVE SMOOTH"
);
},
{
closed = 1;
nodes = (
"255 95 OFFCURVE",
"158 202 OFFCURVE",
"158 350 CURVE SMOOTH",
"158 498 OFFCURVE",
"255 605 OFFCURVE",
"391 605 CURVE SMOOTH",
"525.667 605 OFFCURVE",
"624 496.667 OFFCURVE",
"624 350 CURVE SMOOTH",
"624 203.333 OFFCURVE",
"525.667 95 OFFCURVE",
"391 95 CURVE SMOOTH"
);
}
);
width = 782;
},
{
anchors = (
{
name = bottom;
position = "{551, 0}";
},
{
name = center;
position = "{551, 350}";
},
{
name = ogonek;
position = "{768, 0}";
},
{
name = top;
position = "{551, 700}";
},
{
name = topleft;
position = "{100, 700}";
},
{
name = topright;
position = "{1002, 700}";
}
);
layerId = "649E0662-786D-44F6-8E8D-A6782F19FFAA";
paths = (
{
closed = 1;
nodes = (
"796 -10 OFFCURVE",
"974 149 OFFCURVE",
"974 350 CURVE SMOOTH",
"974 551 OFFCURVE",
"796 710 OFFCURVE",
"551 710 CURVE SMOOTH",
"304 710 OFFCURVE",
"128 551 OFFCURVE",
"128 350 CURVE SMOOTH",
"128 149 OFFCURVE",
"304 -10 OFFCURVE",
"551 -10 CURVE SMOOTH"
);
},
{
closed = 1;
nodes = (
"366 95 OFFCURVE",
"238 205 OFFCURVE",
"238 350 CURVE SMOOTH",
"238 495 OFFCURVE",
"366 605 OFFCURVE",
"551 605 CURVE SMOOTH",
"734 605 OFFCURVE",
"864 494 OFFCURVE",
"864 350 CURVE SMOOTH",
"864 206 OFFCURVE",
"734 95 OFFCURVE",
"551 95 CURVE SMOOTH"
);
}
);
width = 1102;
},
{
anchors = (
{
name = bottom;
position = "{397, 0}";
},
{
name = center;
position = "{397, 350}";
},
{
name = ogonek;
position = "{504, 0}";
},
{
name = top;
position = "{397, 700}";
},
{
name = topleft;
position = "{20, 700}";
},
{
name = topright;
position = "{775, 700}";
}
);
layerId = "E41BA830-E06B-4916-8D61-039D08A6FFE2";
paths = (
{
closed = 1;
nodes = (
"598 -10 OFFCURVE",
"741 140 OFFCURVE",
"741 349 CURVE SMOOTH",
"741 560 OFFCURVE",
"598 710 OFFCURVE",
"397 710 CURVE SMOOTH",
"197 710 OFFCURVE",
"54 559 OFFCURVE",
"54 349 CURVE SMOOTH",
"54 139 OFFCURVE",
"197 -10 OFFCURVE",
"397 -10 CURVE SMOOTH"
);
},
{
closed = 1;
nodes = (
"223 31 OFFCURVE",
"97 164 OFFCURVE",
"97 349 CURVE SMOOTH",
"97 534 OFFCURVE",
"223 669 OFFCURVE",
"397 669 CURVE SMOOTH",
"572 669 OFFCURVE",
"698 534 OFFCURVE",
"698 349 CURVE SMOOTH",
"698 165 OFFCURVE",
"572 31 OFFCURVE",
"397 31 CURVE SMOOTH"
);
}
);
width = 794.27907;
},
{
anchors = (
{
name = bottom;
position = "{557, 0}";
},
{
name = center;
position = "{557, 350}";
},
{
name = ogonek;
position = "{713, 0}";
},
{
name = top;
position = "{557, 700}";
},
{
name = topleft;
position = "{100, 700}";
},
{
name = topright;
position = "{741, 700}";
}
);
layerId = "60FFA52A-095B-47EE-98E9-9B5B7A5F3F54";
paths = (
{
closed = 1;
nodes = (
"805 -10 OFFCURVE",
"981 144 OFFCURVE",
"981 349 CURVE SMOOTH",
"981 556 OFFCURVE",
"805 710 OFFCURVE",
"557 710 CURVE SMOOTH",
"307 710 OFFCURVE",
"133 553 OFFCURVE",
"133 349 CURVE SMOOTH",
"133 145 OFFCURVE",
"307 -10 OFFCURVE",
"557 -10 CURVE SMOOTH"
);
},
{
closed = 1;
nodes = (
"334 31 OFFCURVE",
"177 167 OFFCURVE",
"177 349 CURVE SMOOTH",
"177 531 OFFCURVE",
"334 669 OFFCURVE",
"557 669 CURVE SMOOTH",
"780 669 OFFCURVE",
"938 531 OFFCURVE",
"938 349 CURVE SMOOTH",
"938 168 OFFCURVE",
"780 31 OFFCURVE",
"557 31 CURVE SMOOTH"
);
}
);
width = 1114.27907;
},
{
anchors = (
{
name = bottom;
position = "{404, 0}";
},
{
name = center;
position = "{404, 350}";
},
{
name = ogonek;
position = "{655, 5}";
},
{
name = top;
position = "{404, 700}";
},
{
name = topleft;
position = "{20, 700}";
},
{
name = topright;
position = "{787, 700}";
}
);
layerId = "CC139F8F-4E38-4355-A9C7-97F3CAE4F8B4";
paths = (
{
closed = 1;
nodes = (
"612 -10 OFFCURVE",
"763 144 OFFCURVE",
"763 352 CURVE SMOOTH",
"763 561 OFFCURVE",
"612 715 OFFCURVE",
"404 715 CURVE SMOOTH",
"195 715 OFFCURVE",
"44 562 OFFCURVE",
"44 352 CURVE SMOOTH",
"44 143 OFFCURVE",
"195 -10 OFFCURVE",
"404 -10 CURVE SMOOTH"
);
},
{
closed = 1;
nodes = (
"290 142 OFFCURVE",
"208 230 OFFCURVE",
"208 352 CURVE SMOOTH",
"208 475 OFFCURVE",
"290 563 OFFCURVE",
"404 563 CURVE SMOOTH",
"517 563 OFFCURVE",
"600 474 OFFCURVE",
"600 352 CURVE SMOOTH",
"600 231 OFFCURVE",
"517 142 OFFCURVE",
"404 142 CURVE SMOOTH"
);
}
);
width = 807.48;
},
{
anchors = (
{
name = bottom;
position = "{564, 0}";
},
{
name = center;
position = "{564, 350}";
},
{
name = ogonek;
position = "{860, 5}";
},
{
name = top;
position = "{564, 700}";
},
{
name = topleft;
position = "{100, 700}";
},
{
name = topright;
position = "{1027, 700}";
}
);
layerId = "7CDCAA7C-A29A-47F9-8FBC-7C0A555C33C4";
paths = (
{
closed = 1;
nodes = (
"820 -10 OFFCURVE",
"1003 148 OFFCURVE",
"1003 352 CURVE SMOOTH",
"1003 557 OFFCURVE",
"820 715 OFFCURVE",
"564 715 CURVE SMOOTH",
"306 715 OFFCURVE",
"124 556 OFFCURVE",
"124 352 CURVE SMOOTH",
"124 149 OFFCURVE",
"305 -10 OFFCURVE",
"564 -10 CURVE SMOOTH"
);
},
{
closed = 1;
nodes = (
"401 142 OFFCURVE",
"288 233 OFFCURVE",
"288 352 CURVE SMOOTH",
"288 472 OFFCURVE",
"401 563 OFFCURVE",
"564 563 CURVE SMOOTH",
"725 563 OFFCURVE",
"840 471 OFFCURVE",
"840 352 CURVE SMOOTH",
"840 233 OFFCURVE",
"725 142 OFFCURVE",
"564 142 CURVE SMOOTH"
);
}
);
width = 1127.48;
}
);
leftKerningGroup = C;
rightKerningGroup = D;
unicode = 004F;
},
{
color = 6;
glyphname = Ohorn;
layers = (
{
anchors = (
{
name = bottom;
position = "{391, 0}";
},
{
name = top;
position = "{391, 700}";
}
);
layerId = "5A878C7E-547A-4951-B48F-676DBBC9B762";
paths = (
{
closed = 1;
nodes = (
"588.333 -10 OFFCURVE",
"734 144.667 OFFCURVE",
"734 350 CURVE SMOOTH",
"734 481 OFFCURVE",
"675 591 OFFCURVE",
"581 654 CURVE",
"574 630 LINE",
"662 642 OFFCURVE",
"700 713 OFFCURVE",
"700 814 CURVE",
"608 814 LINE",
"608 735 OFFCURVE",
"579 695 OFFCURVE",
"519 695 CURVE SMOOTH",
"503 695 OFFCURVE",
"488 697 OFFCURVE",
"471 701 CURVE SMOOTH",
"449 706 OFFCURVE",
"424 710 OFFCURVE",
"391 710 CURVE SMOOTH",
"193.667 710 OFFCURVE",
"48 556.667 OFFCURVE",
"48 350 CURVE SMOOTH",
"48 143.333 OFFCURVE",
"193.667 -10 OFFCURVE",
"391 -10 CURVE SMOOTH"
);
},
{
closed = 1;
nodes = (
"255 95 OFFCURVE",
"158 202 OFFCURVE",
"158 350 CURVE SMOOTH",
"158 498 OFFCURVE",
"255 605 OFFCURVE",
"391 605 CURVE SMOOTH",
"525.667 605 OFFCURVE",
"624 496.667 OFFCURVE",
"624 350 CURVE SMOOTH",
"624 203.333 OFFCURVE",
"525.667 95 OFFCURVE",
"391 95 CURVE SMOOTH"
);
}
);
width = 782;
},
{
anchors = (
{
name = bottom;
position = "{551, 0}";
},
{
name = top;
position = "{551, 700}";
}
);
layerId = "649E0662-786D-44F6-8E8D-A6782F19FFAA";
paths = (
{
closed = 1;
nodes = (
"796 -10 OFFCURVE",
"974 149 OFFCURVE",
"974 350 CURVE SMOOTH",
"974 477 OFFCURVE",
"903 587 OFFCURVE",
"790 651 CURVE",
"782 631 LINE",
"894 632 OFFCURVE",
"944 708 OFFCURVE",
"944 814 CURVE",
"852 814 LINE",
"852 724 OFFCURVE",
"808 694 OFFCURVE",
"733 694 CURVE SMOOTH",
"704 694 OFFCURVE",
"674 697 OFFCURVE",
"644 702 CURVE SMOOTH",
"614 707 OFFCURVE",
"583 710 OFFCURVE",
"551 710 CURVE SMOOTH",
"304 710 OFFCURVE",
"128 551 OFFCURVE",
"128 350 CURVE SMOOTH",
"128 149 OFFCURVE",
"304 -10 OFFCURVE",
"551 -10 CURVE SMOOTH"
);
},
{
closed = 1;
nodes = (
"366 95 OFFCURVE",
"238 205 OFFCURVE",
"238 350 CURVE SMOOTH",
"238 495 OFFCURVE",
"366 605 OFFCURVE",
"551 605 CURVE SMOOTH",
"734 605 OFFCURVE",
"864 494 OFFCURVE",
"864 350 CURVE SMOOTH",
"864 206 OFFCURVE",
"734 95 OFFCURVE",
"551 95 CURVE SMOOTH"
);
}
);
width = 1102;
},
{
anchors = (
{
name = bottom;
position = "{397, 0}";
},
{
name = top;
position = "{397, 700}";
}
);
layerId = "E41BA830-E06B-4916-8D61-039D08A6FFE2";
paths = (
{
closed = 1;
nodes = (
"598 -10 OFFCURVE",
"741 140 OFFCURVE",
"741 349 CURVE SMOOTH",
"741 505 OFFCURVE",
"662 626 OFFCURVE",
"541 679 CURVE",
"530 665 LINE",
"629 661 OFFCURVE",
"678 711 OFFCURVE",
"678 802 CURVE",
"639 802 LINE",
"639 730 OFFCURVE",
"603 696 OFFCURVE",
"537 696 CURVE SMOOTH",
"520 696 OFFCURVE",
"497 698 OFFCURVE",
"473 703 CURVE SMOOTH",
"449 707 OFFCURVE",
"425 710 OFFCURVE",
"397 710 CURVE SMOOTH",
"197 710 OFFCURVE",
"54 559 OFFCURVE",
"54 349 CURVE SMOOTH",
"54 139 OFFCURVE",
"197 -10 OFFCURVE",
"397 -10 CURVE SMOOTH"
);
},
{
closed = 1;
nodes = (
"223 31 OFFCURVE",
"97 164 OFFCURVE",
"97 349 CURVE SMOOTH",
"97 534 OFFCURVE",
"223 669 OFFCURVE",
"397 669 CURVE SMOOTH",
"572 669 OFFCURVE",
"698 534 OFFCURVE",
"698 349 CURVE SMOOTH",
"698 165 OFFCURVE",
"572 31 OFFCURVE",
"397 31 CURVE SMOOTH"
);
}
);
width = 794.27907;
},
{
anchors = (
{
name = bottom;
position = "{557, 0}";
},
{
name = top;
position = "{557, 700}";
}
);
layerId = "60FFA52A-095B-47EE-98E9-9B5B7A5F3F54";
paths = (
{
closed = 1;
nodes = (
"805 -10 OFFCURVE",
"981 144 OFFCURVE",
"981 349 CURVE SMOOTH",
"981 502 OFFCURVE",
"885 625 OFFCURVE",
"736 678 CURVE",
"757 660 LINE",
"879 660 OFFCURVE",
"926 702 OFFCURVE",
"926 802 CURVE",
"887 802 LINE",
"887 726 OFFCURVE",
"856 691 OFFCURVE",
"751 691 CURVE SMOOTH",
"723 691 OFFCURVE",
"695 696 OFFCURVE",
"648 703 CURVE SMOOTH",
"619 707 OFFCURVE",
"588 710 OFFCURVE",
"557 710 CURVE SMOOTH",
"307 710 OFFCURVE",
"133 553 OFFCURVE",
"133 349 CURVE SMOOTH",
"133 145 OFFCURVE",
"307 -10 OFFCURVE",
"557 -10 CURVE SMOOTH"
);
},
{
closed = 1;
nodes = (
"334 31 OFFCURVE",
"177 167 OFFCURVE",
"177 349 CURVE SMOOTH",
"177 531 OFFCURVE",
"334 669 OFFCURVE",
"557 669 CURVE SMOOTH",
"766 669 OFFCURVE",
"938 531 OFFCURVE",
"938 349 CURVE SMOOTH",
"938 168 OFFCURVE",
"780 31 OFFCURVE",
"557 31 CURVE SMOOTH"
);
}
);
width = 1114.27907;
},
{
anchors = (
{
name = bottom;
position = "{404, 0}";
},
{
name = top;
position = "{404, 700}";
}
);
layerId = "CC139F8F-4E38-4355-A9C7-97F3CAE4F8B4";
paths = (
{
closed = 1;
nodes = (
"612 -10 OFFCURVE",
"763 144 OFFCURVE",
"763 352 CURVE SMOOTH",
"763 474 OFFCURVE",
"712 576 OFFCURVE",
"629 641 CURVE",
"607 618 LINE",
"725 624 OFFCURVE",
"758 717 OFFCURVE",
"758 824 CURVE",
"636 824 LINE",
"636 738 OFFCURVE",
"607 695 OFFCURVE",
"551 695 CURVE SMOOTH",
"530 695 OFFCURVE",
"511 700 OFFCURVE",
"490 705 CURVE SMOOTH",
"462 711 OFFCURVE",
"433 715 OFFCURVE",
"404 715 CURVE SMOOTH",
"195 715 OFFCURVE",
"44 562 OFFCURVE",
"44 352 CURVE SMOOTH",
"44 143 OFFCURVE",
"195 -10 OFFCURVE",
"404 -10 CURVE SMOOTH"
);
},
{
closed = 1;
nodes = (
"290 142 OFFCURVE",
"208 230 OFFCURVE",
"208 352 CURVE SMOOTH",
"208 475 OFFCURVE",
"290 563 OFFCURVE",
"404 563 CURVE SMOOTH",
"517 563 OFFCURVE",
"600 474 OFFCURVE",
"600 352 CURVE SMOOTH",
"600 231 OFFCURVE",
"517 142 OFFCURVE",
"404 142 CURVE SMOOTH"
);
}
);
width = 807.48;
},
{
anchors = (
{
name = bottom;
position = "{564, 0}";
},
{
name = top;
position = "{564, 700}";
}
);
layerId = "7CDCAA7C-A29A-47F9-8FBC-7C0A555C33C4";
paths = (
{
closed = 1;
nodes = (
"820 -10 OFFCURVE",
"1003 148 OFFCURVE",
"1003 352 CURVE SMOOTH",
"1003 470 OFFCURVE",
"940 572 OFFCURVE",
"838 638 CURVE",
"815 619 LINE",
"957 614 OFFCURVE",
"1002 712 OFFCURVE",
"1002 824 CURVE",
"880 824 LINE",
"880 727 OFFCURVE",
"836 694 OFFCURVE",
"765 694 CURVE SMOOTH",
"731 694 OFFCURVE",
"697 700 OFFCURVE",
"663 706 CURVE SMOOTH",
"627 712 OFFCURVE",
"592 715 OFFCURVE",
"564 715 CURVE SMOOTH",
"306 715 OFFCURVE",
"124 556 OFFCURVE",
"124 352 CURVE SMOOTH",
"124 149 OFFCURVE",
"305 -10 OFFCURVE",
"564 -10 CURVE SMOOTH"
);
},
{
closed = 1;
nodes = (
"401 142 OFFCURVE",
"288 233 OFFCURVE",
"288 352 CURVE SMOOTH",
"288 472 OFFCURVE",
"401 563 OFFCURVE",
"564 563 CURVE SMOOTH",
"725 563 OFFCURVE",
"840 471 OFFCURVE",
"840 352 CURVE SMOOTH",
"840 233 OFFCURVE",
"725 142 OFFCURVE",
"564 142 CURVE SMOOTH"
);
}
);
width = 1127.48;
}
);
leftKerningGroup = C;
rightKerningGroup = D;
unicode = 01A0;
},
{
color = 3;
glyphname = Oogonek;
layers = (
{
anchors = (
{
name = top;
position = "{391, 700}";
}
);
components = (
{
name = O;
}
);
layerId = "5A878C7E-547A-4951-B48F-676DBBC9B762";
paths = (
{
closed = 1;
nodes = (
"520 -200 OFFCURVE",
"567 -171 OFFCURVE",
"581 -138 CURVE",
"525 -98 LINE",
"514 -114 OFFCURVE",
"502 -123 OFFCURVE",
"488 -123 CURVE SMOOTH",
"466 -123 OFFCURVE",
"454 -108 OFFCURVE",
"454 -84 CURVE SMOOTH",
"454 -44 OFFCURVE",
"493 -3 OFFCURVE",
"570 40 CURVE",
"532 85 LINE",
"442 38 OFFCURVE",
"363 -16 OFFCURVE",
"363 -97 CURVE SMOOTH",
"363 -164 OFFCURVE",
"414 -200 OFFCURVE",
"472 -200 CURVE SMOOTH"
);
}
);
width = 782;
},
{
anchors = (
{
name = top;
position = "{551, 700}";
}
);
components = (
{
name = O;
}
);
layerId = "649E0662-786D-44F6-8E8D-A6782F19FFAA";
paths = (
{
closed = 1;
nodes = (
"681 -200 OFFCURVE",
"725 -166 OFFCURVE",
"736 -138 CURVE",
"680 -98 LINE",
"672 -111 OFFCURVE",
"660 -123 OFFCURVE",
"643 -123 CURVE SMOOTH",
"622 -123 OFFCURVE",
"609 -108 OFFCURVE",
"609 -86 CURVE SMOOTH",
"609 -21 OFFCURVE",
"725 16 OFFCURVE",
"765 37 CURVE",
"744 91 LINE",
"665 61 OFFCURVE",
"518 0 OFFCURVE",
"518 -99 CURVE SMOOTH",
"518 -158 OFFCURVE",
"565 -200 OFFCURVE",
"627 -200 CURVE SMOOTH"
);
}
);
width = 1102;
},
{
anchors = (
{
name = top;
position = "{397, 700}";
}
);
components = (
{
alignment = -1;
name = O;
}
);
layerId = "E41BA830-E06B-4916-8D61-039D08A6FFE2";
paths = (
{
closed = 1;
nodes = (
"549 -227 OFFCURVE",
"586 -204 OFFCURVE",
"601 -172 CURVE",
"577 -152 LINE",
"564 -177 OFFCURVE",
"541 -193 OFFCURVE",
"511 -193 CURVE SMOOTH",
"472 -193 OFFCURVE",
"443 -163 OFFCURVE",
"443 -119 CURVE SMOOTH",
"443 -59 OFFCURVE",
"497 -11 OFFCURVE",
"571 34 CURVE",
"558 59 LINE",
"480 13 OFFCURVE",
"405 -40 OFFCURVE",
"405 -124 CURVE SMOOTH",
"405 -185 OFFCURVE",
"451 -227 OFFCURVE",
"507 -227 CURVE SMOOTH"
);
}
);
width = 794.27907;
},
{
anchors = (
{
name = top;
position = "{557, 700}";
}
);
components = (
{
alignment = -1;
name = O;
}
);
layerId = "60FFA52A-095B-47EE-98E9-9B5B7A5F3F54";
paths = (
{
closed = 1;
nodes = (
"722 -228 OFFCURVE",
"758 -203 OFFCURVE",
"773 -172 CURVE",
"748 -152 LINE",
"735 -176 OFFCURVE",
"713 -193 OFFCURVE",
"682 -193 CURVE SMOOTH",
"643 -193 OFFCURVE",
"614 -163 OFFCURVE",
"614 -124 CURVE SMOOTH",
"614 -69 OFFCURVE",
"667 -14 OFFCURVE",
"786 42 CURVE",
"777 69 LINE",
"649 10 OFFCURVE",
"576 -51 OFFCURVE",
"576 -129 CURVE SMOOTH",
"576 -184 OFFCURVE",
"621 -228 OFFCURVE",
"678 -228 CURVE SMOOTH"
);
}
);
width = 1114.27907;
},
{
anchors = (
{
name = top;
position = "{404, 700}";
}
);
components = (
{
alignment = -1;
name = O;
}
);
layerId = "CC139F8F-4E38-4355-A9C7-97F3CAE4F8B4";
paths = (
{
closed = 1;
nodes = (
"553 -210 OFFCURVE",
"600 -175 OFFCURVE",
"619 -136 CURVE",
"551 -86 LINE",
"541 -102 OFFCURVE",
"531 -110 OFFCURVE",
"518 -110 CURVE SMOOTH",
"500 -110 OFFCURVE",
"489 -96 OFFCURVE",
"489 -76 CURVE SMOOTH",
"489 -30 OFFCURVE",
"540 10 OFFCURVE",
"604 47 CURVE",
"569 94 LINE",
"465 43 OFFCURVE",
"381 -13 OFFCURVE",
"381 -100 CURVE SMOOTH",
"381 -167 OFFCURVE",
"430 -210 OFFCURVE",
"496 -210 CURVE SMOOTH"
);
}
);
width = 807.48;
},
{
anchors = (
{
name = top;
position = "{564, 700}";
}
);
components = (
{
alignment = -1;
name = O;
}
);
layerId = "7CDCAA7C-A29A-47F9-8FBC-7C0A555C33C4";
paths = (
{
closed = 1;
nodes = (
"714 -210 OFFCURVE",
"758 -170 OFFCURVE",
"774 -136 CURVE",
"706 -86 LINE",
"699 -99 OFFCURVE",
"689 -110 OFFCURVE",
"673 -110 CURVE SMOOTH",
"656 -110 OFFCURVE",
"644 -96 OFFCURVE",
"644 -78 CURVE SMOOTH",
"644 -7 OFFCURVE",
"772 29 OFFCURVE",
"799 44 CURVE",
"781 100 LINE",
"688 66 OFFCURVE",
"536 3 OFFCURVE",
"536 -102 CURVE SMOOTH",
"536 -161 OFFCURVE",
"581 -210 OFFCURVE",
"651 -210 CURVE SMOOTH"
);
}
);
width = 1127.48;
}
);
leftKerningGroup = C;
rightKerningGroup = D;
unicode = 01EA;
},
{
color = 3;
glyphname = Oslash;
layers = (
{
anchors = (
{
name = bottom;
position = "{385, 0}";
},
{
name = top;
position = "{385, 700}";
}
);
components = (
{
name = O;
transform = "{1, 0, 0, 1, -1, 0}";
}
);
layerId = "5A878C7E-547A-4951-B48F-676DBBC9B762";
paths = (
{
closed = 1;
nodes = (
"717 694 LINE",
"649 741 LINE",
"60 20 LINE",
"123 -33 LINE"
);
}
);
width = 770;
},
{
anchors = (
{
name = bottom;
position = "{565, 0}";
},
{
name = top;
position = "{565, 700}";
}
);
components = (
{
name = O;
transform = "{1, 0, 0, 1, 14, 0}";
}
);
layerId = "649E0662-786D-44F6-8E8D-A6782F19FFAA";
paths = (
{
closed = 1;
nodes = (
"1002 669 LINE",
"936 737 LINE",
"128 39 LINE",
"188 -34 LINE"
);
}
);
width = 1130;
},
{
anchors = (
{
name = bottom;
position = "{396, 0}";
},
{
name = top;
position = "{396, 700}";
}
);
components = (
{
alignment = -1;
name = O;
transform = "{1, 0, 0, 1, -1, 0}";
}
);
layerId = "E41BA830-E06B-4916-8D61-039D08A6FFE2";
paths = (
{
closed = 1;
nodes = (
"706 702 LINE",
"676 724 LINE",
"87 2 LINE",
"116 -21 LINE"
);
}
);
width = 791.48837;
},
{
anchors = (
{
name = bottom;
position = "{561, 0}";
},
{
name = top;
position = "{561, 700}";
}
);
components = (
{
alignment = -1;
name = O;
transform = "{1, 0, 0, 1, 4, 0}";
}
);
layerId = "60FFA52A-095B-47EE-98E9-9B5B7A5F3F54";
paths = (
{
closed = 1;
nodes = (
"979 692 LINE",
"949 719 LINE",
"143 5 LINE",
"170 -22 LINE"
);
}
);
width = 1121.55814;
},
{
anchors = (
{
name = bottom;
position = "{401, 0}";
},
{
name = top;
position = "{401, 700}";
}
);
components = (
{
alignment = -1;
name = O;
transform = "{1, 0, 0, 1, -1, 0}";
}
);
layerId = "CC139F8F-4E38-4355-A9C7-97F3CAE4F8B4";
paths = (
{
closed = 1;
nodes = (
"731 694 LINE",
"663 741 LINE",
"74 20 LINE",
"137 -33 LINE"
);
}
);
width = 801.36;
},
{
anchors = (
{
name = bottom;
position = "{581, 0}";
},
{
name = top;
position = "{581, 700}";
}
);
components = (
{
alignment = -1;
name = O;
transform = "{1, 0, 0, 1, 14, 0}";
}
);
layerId = "7CDCAA7C-A29A-47F9-8FBC-7C0A555C33C4";
paths = (
{
closed = 1;
nodes = (
"1016 669 LINE",
"950 737 LINE",
"142 39 LINE",
"202 -34 LINE"
);
}
);
width = 1161.36;
}
);
leftKerningGroup = C;
rightKerningGroup = D;
unicode = 00D8;
},
{
color = 6;
glyphname = OE;
layers = (
{
anchors = (
{
name = bottom;
position = "{514, 0}";
},
{
name = top;
position = "{514, 700}";
}
);
layerId = "5A878C7E-547A-4951-B48F-676DBBC9B762";
paths = (
{
closed = 1;
nodes = (
"952 0 LINE",
"952 104 LINE",
"619 104 LINE",
"619 307 LINE",
"897 307 LINE",
"897 411 LINE",
"619 411 LINE",
"619 596 LINE",
"952 596 LINE",
"952 700 LINE",
"395 700 LINE SMOOTH",
"184.333 700 OFFCURVE",
"48 558 OFFCURVE",
"48 350 CURVE SMOOTH",
"48 140.667 OFFCURVE",
"175 0 OFFCURVE",
"375 0 CURVE SMOOTH"
);
},
{
closed = 1;
nodes = (
"158 502 OFFCURVE",
"246 596 OFFCURVE",
"398 596 CURVE SMOOTH",
"511 596 LINE",
"511 104 LINE",
"378 104 LINE SMOOTH",
"238 104 OFFCURVE",
"158 196.667 OFFCURVE",
"158 350 CURVE SMOOTH"
);
}
);
width = 1027;
},
{
anchors = (
{
name = bottom;
position = "{734, 0}";
},
{
name = top;
position = "{734, 700}";
}
);
layerId = "649E0662-786D-44F6-8E8D-A6782F19FFAA";
paths = (
{
closed = 1;
nodes = (
"1312 0 LINE",
"1312 104 LINE",
"839 104 LINE",
"839 307 LINE",
"1257 307 LINE",
"1257 411 LINE",
"839 411 LINE",
"839 596 LINE",
"1312 596 LINE",
"1312 700 LINE",
"545 700 LINE SMOOTH",
"273 700 OFFCURVE",
"128 539 OFFCURVE",
"128 350 CURVE SMOOTH",
"128 158 OFFCURVE",
"265 0 OFFCURVE",
"525 0 CURVE SMOOTH"
);
},
{
closed = 1;
nodes = (
"238 478 OFFCURVE",
"345 596 OFFCURVE",
"548 596 CURVE SMOOTH",
"731 596 LINE",
"731 104 LINE",
"528 104 LINE SMOOTH",
"339 104 OFFCURVE",
"238 221 OFFCURVE",
"238 350 CURVE SMOOTH"
);
}
);
width = 1472;
},
{
anchors = (
{
name = bottom;
position = "{504, 0}";
},
{
name = top;
position = "{504, 700}";
}
);
layerId = "E41BA830-E06B-4916-8D61-039D08A6FFE2";
paths = (
{
closed = 1;
nodes = (
"936 0 LINE",
"936 41 LINE",
"580 41 LINE",
"580 341 LINE",
"883 341 LINE",
"883 382 LINE",
"580 382 LINE",
"580 659 LINE",
"940 659 LINE",
"940 700 LINE",
"377 700 LINE SMOOTH",
"201 700 OFFCURVE",
"54 554 OFFCURVE",
"54 350 CURVE SMOOTH",
"54 147 OFFCURVE",
"202 0 OFFCURVE",
"379 0 CURVE SMOOTH"
);
},
{
closed = 1;
nodes = (
"97 528 OFFCURVE",
"229 659 OFFCURVE",
"382 659 CURVE SMOOTH",
"538 659 LINE",
"538 41 LINE",
"384 41 LINE SMOOTH",
"230 41 OFFCURVE",
"97 172 OFFCURVE",
"97 350 CURVE SMOOTH"
);
}
);
userData = {
com.schriftgestaltung.Glyphs.glyph.leftMetricsKey = O;
com.schriftgestaltung.Glyphs.glyph.rightMetricsKey = E;
};
width = 1007;
},
{
anchors = (
{
name = bottom;
position = "{724, 0}";
},
{
name = top;
position = "{724, 700}";
}
);
layerId = "60FFA52A-095B-47EE-98E9-9B5B7A5F3F54";
paths = (
{
closed = 1;
nodes = (
"1296 0 LINE",
"1296 41 LINE",
"800 41 LINE",
"800 341 LINE",
"1243 341 LINE",
"1243 382 LINE",
"800 382 LINE",
"800 659 LINE",
"1300 659 LINE",
"1300 700 LINE",
"527 700 LINE SMOOTH",
"291 700 OFFCURVE",
"133 551 OFFCURVE",
"133 350 CURVE SMOOTH",
"133 149 OFFCURVE",
"293 0 OFFCURVE",
"529 0 CURVE SMOOTH"
);
},
{
closed = 1;
nodes = (
"177 526 OFFCURVE",
"318 659 OFFCURVE",
"527 659 CURVE SMOOTH",
"758 659 LINE",
"758 41 LINE",
"530 41 LINE SMOOTH",
"320 41 OFFCURVE",
"177 173 OFFCURVE",
"177 350 CURVE SMOOTH"
);
}
);
userData = {
com.schriftgestaltung.Glyphs.glyph.leftMetricsKey = O;
com.schriftgestaltung.Glyphs.glyph.rightMetricsKey = E;
};
width = 1452;
},
{
anchors = (
{
name = bottom;
position = "{536, 0}";
},
{
name = top;
position = "{536, 700}";
}
);
layerId = "CC139F8F-4E38-4355-A9C7-97F3CAE4F8B4";
paths = (
{
closed = 1;
nodes = (
"1010 0 LINE",
"1010 139 LINE",
"677 139 LINE",
"677 292 LINE",
"955 292 LINE",
"955 426 LINE",
"677 426 LINE",
"677 561 LINE",
"1010 561 LINE",
"1010 700 LINE",
"395 700 LINE SMOOTH",
"182 700 OFFCURVE",
"44 558 OFFCURVE",
"44 350 CURVE SMOOTH",
"44 141 OFFCURVE",
"172 0 OFFCURVE",
"375 0 CURVE SMOOTH"
);
},
{
closed = 1;
nodes = (
"207 478 OFFCURVE",
"279 557 OFFCURVE",
"402 557 CURVE SMOOTH",
"520 557 LINE",
"520 143 LINE",
"392 143 LINE SMOOTH",
"274 143 OFFCURVE",
"207 221 OFFCURVE",
"207 350 CURVE SMOOTH"
);
}
);
width = 1071.1;
},
{
anchors = (
{
name = bottom;
position = "{756, 0}";
},
{
name = top;
position = "{756, 700}";
}
);
layerId = "7CDCAA7C-A29A-47F9-8FBC-7C0A555C33C4";
paths = (
{
closed = 1;
nodes = (
"1370 0 LINE",
"1370 139 LINE",
"897 139 LINE",
"897 292 LINE",
"1315 292 LINE",
"1315 426 LINE",
"897 426 LINE",
"897 561 LINE",
"1370 561 LINE",
"1370 700 LINE",
"545 700 LINE SMOOTH",
"271 700 OFFCURVE",
"124 539 OFFCURVE",
"124 350 CURVE SMOOTH",
"124 158 OFFCURVE",
"263 0 OFFCURVE",
"525 0 CURVE SMOOTH"
);
},
{
closed = 1;
nodes = (
"287 454 OFFCURVE",
"378 557 OFFCURVE",
"552 557 CURVE SMOOTH",
"740 557 LINE",
"740 143 LINE",
"542 143 LINE SMOOTH",
"375 143 OFFCURVE",
"287 245 OFFCURVE",
"287 350 CURVE SMOOTH"
);
}
);
width = 1516.1;
}
);
leftKerningGroup = C;
leftMetricsKey = O;
rightKerningGroup = E;
rightMetricsKey = E;
unicode = 0152;
},
{
color = 6;
glyphname = P;
layers = (
{
anchors = (
{
name = bottom;
position = "{317, 0}";
},
{
name = top;
position = "{317, 700}";
}
);
layerId = "5A878C7E-547A-4951-B48F-676DBBC9B762";
paths = (
{
closed = 1;
nodes = (
"206 0 LINE",
"206 268 LINE",
"383 268 LINE SMOOTH",
"496.333 268 OFFCURVE",
"589 365 OFFCURVE",
"589 485 CURVE SMOOTH",
"589 605 OFFCURVE",
"496.333 700 OFFCURVE",
"383 700 CURVE SMOOTH",
"98 700 LINE",
"98 0 LINE"
);
},
{
closed = 1;
nodes = (
"206 596 LINE",
"381 596 LINE SMOOTH",
"434.333 596 OFFCURVE",
"479 546.333 OFFCURVE",
"479 485 CURVE SMOOTH",
"479 423.667 OFFCURVE",
"434.333 372 OFFCURVE",
"381 372 CURVE SMOOTH",
"206 372 LINE"
);
}
);
width = 634;
},
{
anchors = (
{
name = bottom;
position = "{474, 0}";
},
{
name = top;
position = "{474, 700}";
}
);
layerId = "649E0662-786D-44F6-8E8D-A6782F19FFAA";
paths = (
{
closed = 1;
nodes = (
"290 0 LINE",
"290 258 LINE",
"571 258 LINE SMOOTH",
"704 258 OFFCURVE",
"818 358 OFFCURVE",
"818 485 CURVE SMOOTH",
"818 605 OFFCURVE",
"714 700 OFFCURVE",
"591 700 CURVE SMOOTH",
"182 700 LINE",
"182 0 LINE"
);
},
{
closed = 1;
nodes = (
"290 596 LINE",
"561 596 LINE SMOOTH",
"637 596 OFFCURVE",
"703 546 OFFCURVE",
"703 485 CURVE SMOOTH",
"703 418 OFFCURVE",
"637 362 OFFCURVE",
"561 362 CURVE SMOOTH",
"290 362 LINE"
);
}
);
width = 953;
},
{
anchors = (
{
name = bottom;
position = "{304, 0}";
},
{
name = top;
position = "{304, 700}";
}
);
layerId = "E41BA830-E06B-4916-8D61-039D08A6FFE2";
paths = (
{
closed = 1;
nodes = (
"149 0 LINE",
"149 285 LINE",
"367 285 LINE SMOOTH",
"478 285 OFFCURVE",
"555 376 OFFCURVE",
"555 502 CURVE SMOOTH",
"555 618 OFFCURVE",
"478 700 OFFCURVE",
"367 700 CURVE SMOOTH",
"107 700 LINE",
"107 0 LINE"
);
},
{
closed = 1;
nodes = (
"149 659 LINE",
"370 659 LINE SMOOTH",
"454 659 OFFCURVE",
"512 593 OFFCURVE",
"512 502 CURVE SMOOTH",
"512 400 OFFCURVE",
"454 326 OFFCURVE",
"370 326 CURVE SMOOTH",
"149 326 LINE"
);
}
);
userData = {
com.schriftgestaltung.Glyphs.glyph.leftMetricsKey = H;
};
width = 607.90698;
},
{
anchors = (
{
name = bottom;
position = "{461, 0}";
},
{
name = top;
position = "{461, 700}";
}
);
layerId = "60FFA52A-095B-47EE-98E9-9B5B7A5F3F54";
paths = (
{
closed = 1;
nodes = (
"233 0 LINE",
"233 276 LINE",
"557 276 LINE SMOOTH",
"696 276 OFFCURVE",
"784 369 OFFCURVE",
"784 502 CURVE SMOOTH",
"784 618 OFFCURVE",
"699 700 OFFCURVE",
"563 700 CURVE SMOOTH",
"191 700 LINE",
"191 0 LINE"
);
},
{
closed = 1;
nodes = (
"233 659 LINE",
"550 659 LINE SMOOTH",
"673 659 OFFCURVE",
"740 599 OFFCURVE",
"740 502 CURVE SMOOTH",
"740 390 OFFCURVE",
"672 317 OFFCURVE",
"550 317 CURVE SMOOTH",
"233 317 LINE"
);
}
);
userData = {
com.schriftgestaltung.Glyphs.glyph.leftMetricsKey = H;
};
width = 926.90698;
},
{
anchors = (
{
name = bottom;
position = "{329, 0}";
},
{
name = top;
position = "{329, 700}";
}
);
layerId = "CC139F8F-4E38-4355-A9C7-97F3CAE4F8B4";
paths = (
{
closed = 1;
nodes = (
"250 0 LINE",
"250 239 LINE",
"389 239 LINE SMOOTH",
"517 239 OFFCURVE",
"615 340 OFFCURVE",
"615 473 CURVE SMOOTH",
"615 603 OFFCURVE",
"517 700 OFFCURVE",
"389 700 CURVE SMOOTH",
"89 700 LINE",
"89 0 LINE"
);
},
{
closed = 1;
nodes = (
"248 557 LINE",
"368 557 LINE SMOOTH",
"414 557 OFFCURVE",
"451 522 OFFCURVE",
"451 471 CURVE SMOOTH",
"451 419 OFFCURVE",
"414 382 OFFCURVE",
"368 382 CURVE SMOOTH",
"248 382 LINE"
);
}
);
width = 658.01;
},
{
anchors = (
{
name = bottom;
position = "{486, 0}";
},
{
name = top;
position = "{486, 700}";
}
);
layerId = "7CDCAA7C-A29A-47F9-8FBC-7C0A555C33C4";
paths = (
{
closed = 1;
nodes = (
"334 0 LINE",
"334 229 LINE",
"577 229 LINE SMOOTH",
"725 229 OFFCURVE",
"844 333 OFFCURVE",
"844 473 CURVE SMOOTH",
"844 603 OFFCURVE",
"735 700 OFFCURVE",
"597 700 CURVE SMOOTH",
"173 700 LINE",
"173 0 LINE"
);
},
{
closed = 1;
nodes = (
"332 557 LINE",
"548 557 LINE SMOOTH",
"617 557 OFFCURVE",
"675 522 OFFCURVE",
"675 471 CURVE SMOOTH",
"675 414 OFFCURVE",
"617 372 OFFCURVE",
"548 372 CURVE SMOOTH",
"332 372 LINE"
);
}
);
width = 977.01;
}
);
leftKerningGroup = H;
leftMetricsKey = H;
rightKerningGroup = P;
unicode = 0050;
},
{
color = 6;
glyphname = Thorn;
layers = (
{
anchors = (
{
name = bottom;
position = "{317, 0}";
},
{
name = top;
position = "{317, 700}";
}
);
layerId = "5A878C7E-547A-4951-B48F-676DBBC9B762";
paths = (
{
closed = 1;
nodes = (
"206 0 LINE",
"206 141 LINE",
"383 141 LINE SMOOTH",
"496.333 141 OFFCURVE",
"589 238 OFFCURVE",
"589 358 CURVE SMOOTH",
"589 478 OFFCURVE",
"496.333 573 OFFCURVE",
"383 573 CURVE SMOOTH",
"206 573 LINE",
"206 700 LINE",
"98 700 LINE",
"98 0 LINE"
);
},
{
closed = 1;
nodes = (
"206 469 LINE",
"381 469 LINE SMOOTH",
"434.333 469 OFFCURVE",
"479 419.333 OFFCURVE",
"479 358 CURVE SMOOTH",
"479 296.667 OFFCURVE",
"434.333 245 OFFCURVE",
"381 245 CURVE SMOOTH",
"206 245 LINE"
);
}
);
width = 634;
},
{
anchors = (
{
name = bottom;
position = "{481, 0}";
},
{
name = top;
position = "{481, 700}";
}
);
layerId = "649E0662-786D-44F6-8E8D-A6782F19FFAA";
paths = (
{
closed = 1;
nodes = (
"290 0 LINE",
"290 141 LINE",
"588 141 LINE SMOOTH",
"739 141 OFFCURVE",
"833 238 OFFCURVE",
"833 358 CURVE SMOOTH",
"833 498 OFFCURVE",
"739 573 OFFCURVE",
"588 573 CURVE SMOOTH",
"290 573 LINE",
"290 700 LINE",
"182 700 LINE",
"182 0 LINE"
);
},
{
closed = 1;
nodes = (
"290 469 LINE",
"601 469 LINE SMOOTH",
"664 469 OFFCURVE",
"718 419 OFFCURVE",
"718 358 CURVE SMOOTH",
"718 295 OFFCURVE",
"664 245 OFFCURVE",
"601 245 CURVE SMOOTH",
"290 245 LINE"
);
}
);
width = 968;
},
{
anchors = (
{
name = bottom;
position = "{291, 0}";
},
{
name = top;
position = "{291, 700}";
}
);
layerId = "E41BA830-E06B-4916-8D61-039D08A6FFE2";
paths = (
{
closed = 1;
nodes = (
"149 0 LINE",
"149 164 LINE",
"341 164 LINE SMOOTH",
"449 164 OFFCURVE",
"529 251 OFFCURVE",
"529 358 CURVE SMOOTH",
"529 472 OFFCURVE",
"449 550 OFFCURVE",
"341 550 CURVE SMOOTH",
"149 550 LINE",
"149 700 LINE",
"107 700 LINE",
"107 0 LINE"
);
},
{
closed = 1;
nodes = (
"149 509 LINE",
"339 509 LINE SMOOTH",
"434 509 OFFCURVE",
"487 446 OFFCURVE",
"487 358 CURVE SMOOTH",
"487 279 OFFCURVE",
"431 205 OFFCURVE",
"339 205 CURVE SMOOTH",
"149 205 LINE"
);
}
);
userData = {
com.schriftgestaltung.Glyphs.glyph.leftMetricsKey = H;
com.schriftgestaltung.Glyphs.glyph.rightMetricsKey = P;
};
width = 581.81396;
},
{
anchors = (
{
name = bottom;
position = "{455, 0}";
},
{
name = top;
position = "{455, 700}";
}
);
layerId = "60FFA52A-095B-47EE-98E9-9B5B7A5F3F54";
paths = (
{
closed = 1;
nodes = (
"233 0 LINE",
"233 164 LINE",
"546 164 LINE SMOOTH",
"691 164 OFFCURVE",
"773 238 OFFCURVE",
"773 358 CURVE SMOOTH",
"773 482 OFFCURVE",
"690 550 OFFCURVE",
"547 550 CURVE SMOOTH",
"233 550 LINE",
"233 700 LINE",
"191 700 LINE",
"191 0 LINE"
);
},
{
closed = 1;
nodes = (
"233 509 LINE",
"560 509 LINE SMOOTH",
"666 509 OFFCURVE",
"729 453 OFFCURVE",
"729 358 CURVE SMOOTH",
"729 261 OFFCURVE",
"666 205 OFFCURVE",
"560 205 CURVE SMOOTH",
"233 205 LINE"
);
}
);
userData = {
com.schriftgestaltung.Glyphs.glyph.leftMetricsKey = H;
com.schriftgestaltung.Glyphs.glyph.rightMetricsKey = P;
};
width = 915.81395;
},
{
anchors = (
{
name = bottom;
position = "{329, 0}";
},
{
name = top;
position = "{329, 700}";
}
);
layerId = "CC139F8F-4E38-4355-A9C7-97F3CAE4F8B4";
paths = (
{
closed = 1;
nodes = (
"250 0 LINE",
"250 125 LINE",
"389 125 LINE SMOOTH",
"517 125 OFFCURVE",
"615 226 OFFCURVE",
"615 359 CURVE SMOOTH",
"615 489 OFFCURVE",
"517 586 OFFCURVE",
"389 586 CURVE SMOOTH",
"250 586 LINE",
"250 700 LINE",
"89 700 LINE",
"89 0 LINE"
);
},
{
closed = 1;
nodes = (
"250 443 LINE",
"368 443 LINE SMOOTH",
"414 443 OFFCURVE",
"451 409 OFFCURVE",
"451 357 CURVE SMOOTH",
"451 305 OFFCURVE",
"414 268 OFFCURVE",
"368 268 CURVE SMOOTH",
"250 268 LINE"
);
}
);
width = 658.01;
},
{
anchors = (
{
name = bottom;
position = "{493, 0}";
},
{
name = top;
position = "{493, 700}";
}
);
layerId = "7CDCAA7C-A29A-47F9-8FBC-7C0A555C33C4";
paths = (
{
closed = 1;
nodes = (
"334 0 LINE",
"334 125 LINE",
"594 125 LINE SMOOTH",
"760 125 OFFCURVE",
"859 226 OFFCURVE",
"859 359 CURVE SMOOTH",
"859 509 OFFCURVE",
"760 586 OFFCURVE",
"594 586 CURVE SMOOTH",
"334 586 LINE",
"334 700 LINE",
"173 700 LINE",
"173 0 LINE"
);
},
{
closed = 1;
nodes = (
"334 443 LINE",
"588 443 LINE SMOOTH",
"644 443 OFFCURVE",
"690 408 OFFCURVE",
"690 357 CURVE SMOOTH",
"690 304 OFFCURVE",
"644 268 OFFCURVE",
"588 268 CURVE SMOOTH",
"334 268 LINE"
);
}
);
width = 992.01;
}
);
leftKerningGroup = H;
leftMetricsKey = H;
rightKerningGroup = P;
rightMetricsKey = P;
unicode = 00DE;
},
{
color = 3;
glyphname = Q;
layers = (
{
anchors = (
{
name = bottom;
position = "{391, 0}";
},
{
name = top;
position = "{391, 700}";
}
);
components = (
{
name = O;
}
);
layerId = "5A878C7E-547A-4951-B48F-676DBBC9B762";
paths = (
{
closed = 1;
nodes = (
"699 -48 LINE",
"437 296 LINE",
"348 237 LINE",
"613 -110 LINE"
);
}
);
width = 782;
},
{
anchors = (
{
name = bottom;
position = "{551, 0}";
},
{
name = top;
position = "{551, 700}";
}
);
components = (
{
name = O;
}
);
layerId = "649E0662-786D-44F6-8E8D-A6782F19FFAA";
paths = (
{
closed = 1;
nodes = (
"882 -58 LINE",
"620 286 LINE",
"531 237 LINE",
"796 -110 LINE"
);
}
);
width = 1102;
},
{
anchors = (
{
name = bottom;
position = "{397, 0}";
},
{
name = top;
position = "{397, 700}";
}
);
components = (
{
alignment = -1;
name = O;
}
);
layerId = "E41BA830-E06B-4916-8D61-039D08A6FFE2";
paths = (
{
closed = 1;
nodes = (
"676 -61 LINE",
"421 278 LINE",
"387 254 LINE",
"643 -86 LINE"
);
}
);
userData = {
com.schriftgestaltung.Glyphs.glyph.leftMetricsKey = O;
com.schriftgestaltung.Glyphs.glyph.rightMetricsKey = O;
};
width = 794.27907;
},
{
anchors = (
{
name = bottom;
position = "{557, 0}";
},
{
name = top;
position = "{557, 700}";
}
);
components = (
{
alignment = -1;
name = O;
}
);
layerId = "60FFA52A-095B-47EE-98E9-9B5B7A5F3F54";
paths = (
{
closed = 1;
nodes = (
"865 -70 LINE",
"610 270 LINE",
"569 255 LINE",
"826 -85 LINE"
);
}
);
userData = {
com.schriftgestaltung.Glyphs.glyph.leftMetricsKey = O;
com.schriftgestaltung.Glyphs.glyph.rightMetricsKey = O;
};
width = 1114.27907;
},
{
anchors = (
{
name = bottom;
position = "{404, 0}";
},
{
name = top;
position = "{404, 700}";
}
);
components = (
{
alignment = -1;
name = O;
}
);
layerId = "CC139F8F-4E38-4355-A9C7-97F3CAE4F8B4";
paths = (
{
closed = 1;
nodes = (
"731 -24 LINE",
"467 333 LINE",
"348 250 LINE",
"615 -110 LINE"
);
}
);
width = 807.48;
},
{
anchors = (
{
name = bottom;
position = "{564, 0}";
},
{
name = top;
position = "{564, 700}";
}
);
components = (
{
alignment = -1;
name = O;
}
);
layerId = "7CDCAA7C-A29A-47F9-8FBC-7C0A555C33C4";
paths = (
{
closed = 1;
nodes = (
"914 -34 LINE",
"650 323 LINE",
"531 250 LINE",
"798 -110 LINE"
);
}
);
width = 1127.48;
}
);
leftKerningGroup = C;
rightKerningGroup = D;
unicode = 0051;
},
{
color = 6;
glyphname = R;
layers = (
{
anchors = (
{
name = bottom;
position = "{348, 0}";
},
{
name = top;
position = "{318, 700}";
}
);
layerId = "5A878C7E-547A-4951-B48F-676DBBC9B762";
paths = (
{
closed = 1;
nodes = (
"206 0 LINE",
"206 263 LINE",
"396 263 LINE SMOOTH",
"517.333 263 OFFCURVE",
"617 362.333 OFFCURVE",
"617 477 CURVE SMOOTH",
"617 603.667 OFFCURVE",
"516 700 OFFCURVE",
"396 700 CURVE SMOOTH",
"98 700 LINE",
"98 0 LINE"
);
},
{
closed = 1;
nodes = (
"645 -1 LINE",
"447 341 LINE",
"336 316 LINE",
"514 0 LINE"
);
},
{
closed = 1;
nodes = (
"206 596 LINE",
"378 596 LINE SMOOTH",
"452.667 596 OFFCURVE",
"507 547.333 OFFCURVE",
"507 478 CURVE SMOOTH",
"507 415.333 OFFCURVE",
"464.667 367 OFFCURVE",
"406 367 CURVE SMOOTH",
"206 367 LINE"
);
}
);
width = 695;
},
{
anchors = (
{
name = bottom;
position = "{497, 0}";
},
{
name = top;
position = "{467, 690}";
}
);
layerId = "649E0662-786D-44F6-8E8D-A6782F19FFAA";
paths = (
{
closed = 1;
nodes = (
"290 0 LINE",
"290 258 LINE",
"571 258 LINE SMOOTH",
"704 258 OFFCURVE",
"818 358 OFFCURVE",
"818 485 CURVE SMOOTH",
"818 605 OFFCURVE",
"714 700 OFFCURVE",
"591 700 CURVE SMOOTH",
"182 700 LINE",
"182 0 LINE"
);
},
{
closed = 1;
nodes = (
"859 -1 LINE",
"601 341 LINE",
"486 316 LINE",
"724 0 LINE"
);
},
{
closed = 1;
nodes = (
"290 596 LINE",
"561 596 LINE SMOOTH",
"637 596 OFFCURVE",
"703 546 OFFCURVE",
"703 485 CURVE SMOOTH",
"703 418 OFFCURVE",
"637 362 OFFCURVE",
"561 362 CURVE SMOOTH",
"290 362 LINE"
);
}
);
width = 1011;
},
{
anchors = (
{
name = bottom;
position = "{315, 0}";
},
{
name = top;
position = "{301, 700}";
}
);
layerId = "E41BA830-E06B-4916-8D61-039D08A6FFE2";
paths = (
{
closed = 1;
nodes = (
"149 0 LINE",
"149 284 LINE",
"369 284 LINE SMOOTH",
"482 284 OFFCURVE",
"562 376 OFFCURVE",
"562 500 CURVE SMOOTH",
"562 618 OFFCURVE",
"482 700 OFFCURVE",
"369 700 CURVE SMOOTH",
"107 700 LINE",
"107 0 LINE"
);
},
{
closed = 1;
nodes = (
"587 0 LINE",
"404 314 LINE",
"360 302 LINE",
"536 0 LINE"
);
},
{
closed = 1;
nodes = (
"149 659 LINE",
"369 659 LINE SMOOTH",
"459 659 OFFCURVE",
"519 594 OFFCURVE",
"519 500 CURVE SMOOTH",
"519 398 OFFCURVE",
"461 325 OFFCURVE",
"376 325 CURVE SMOOTH",
"149 325 LINE"
);
}
);
userData = {
com.schriftgestaltung.Glyphs.glyph.leftMetricsKey = H;
};
width = 629;
},
{
anchors = (
{
name = bottom;
position = "{464, 0}";
},
{
name = top;
position = "{449, 698}";
}
);
layerId = "60FFA52A-095B-47EE-98E9-9B5B7A5F3F54";
paths = (
{
closed = 1;
nodes = (
"233 0 LINE",
"233 279 LINE",
"538 279 LINE SMOOTH",
"671 279 OFFCURVE",
"763 370 OFFCURVE",
"763 507 CURVE SMOOTH",
"763 618 OFFCURVE",
"678 700 OFFCURVE",
"564 700 CURVE SMOOTH",
"191 700 LINE",
"191 0 LINE"
);
},
{
closed = 1;
nodes = (
"801 0 LINE",
"558 310 LINE",
"511 302 LINE",
"747 0 LINE"
);
},
{
closed = 1;
nodes = (
"233 659 LINE",
"553 659 LINE SMOOTH",
"649 659 OFFCURVE",
"718 592 OFFCURVE",
"718 506 CURVE SMOOTH",
"718 396 OFFCURVE",
"645 321 OFFCURVE",
"531 321 CURVE SMOOTH",
"233 321 LINE"
);
}
);
userData = {
com.schriftgestaltung.Glyphs.glyph.leftMetricsKey = H;
};
width = 945;
},
{
anchors = (
{
name = bottom;
position = "{351, 0}";
},
{
name = top;
position = "{331, 700}";
}
);
layerId = "CC139F8F-4E38-4355-A9C7-97F3CAE4F8B4";
paths = (
{
closed = 1;
nodes = (
"243 0 LINE",
"243 248 LINE",
"402 248 LINE SMOOTH",
"536 248 OFFCURVE",
"638 347 OFFCURVE",
"638 477 CURVE SMOOTH",
"638 605 OFFCURVE",
"535 700 OFFCURVE",
"402 700 CURVE SMOOTH",
"89 700 LINE",
"89 0 LINE"
);
},
{
closed = 1;
nodes = (
"666 -1 LINE",
"468 341 LINE",
"303 316 LINE",
"481 0 LINE"
);
},
{
closed = 1;
nodes = (
"243 564 LINE",
"374 564 LINE SMOOTH",
"438 564 OFFCURVE",
"479 526 OFFCURVE",
"479 469 CURVE SMOOTH",
"479 414 OFFCURVE",
"444 375 OFFCURVE",
"390 375 CURVE SMOOTH",
"243 375 LINE"
);
}
);
width = 700.88;
},
{
anchors = (
{
name = bottom;
position = "{500, 0}";
},
{
name = top;
position = "{480, 695}";
}
);
layerId = "7CDCAA7C-A29A-47F9-8FBC-7C0A555C33C4";
paths = (
{
closed = 1;
nodes = (
"327 0 LINE",
"327 243 LINE",
"577 243 LINE SMOOTH",
"723 243 OFFCURVE",
"839 343 OFFCURVE",
"839 478 CURVE SMOOTH",
"839 611 OFFCURVE",
"740 700 OFFCURVE",
"580 700 CURVE SMOOTH",
"173 700 LINE",
"173 0 LINE"
);
},
{
closed = 1;
nodes = (
"880 -1 LINE",
"622 341 LINE",
"453 316 LINE",
"691 0 LINE"
);
},
{
closed = 1;
nodes = (
"327 564 LINE",
"557 564 LINE SMOOTH",
"620 564 OFFCURVE",
"675 527 OFFCURVE",
"675 470 CURVE SMOOTH",
"675 410 OFFCURVE",
"620 370 OFFCURVE",
"559 370 CURVE SMOOTH",
"327 370 LINE"
);
}
);
width = 1016.88;
}
);
leftKerningGroup = H;
leftMetricsKey = H;
rightKerningGroup = R;
unicode = 0052;
},
{
color = 6;
glyphname = S;
layers = (
{
anchors = (
{
name = bottom;
position = "{332, 0}";
},
{
name = top;
position = "{332, 700}";
}
);
layerId = "5A878C7E-547A-4951-B48F-676DBBC9B762";
paths = (
{
closed = 1;
nodes = (
"471.333 -10 OFFCURVE",
"569 74.667 OFFCURVE",
"569 208 CURVE SMOOTH",
"569 304 OFFCURVE",
"483.667 374.333 OFFCURVE",
"337 405 CURVE SMOOTH",
"231.667 426.333 OFFCURVE",
"193 459.667 OFFCURVE",
"193 517 CURVE SMOOTH",
"193 574.333 OFFCURVE",
"245.667 613 OFFCURVE",
"323 613 CURVE SMOOTH",
"391 613 OFFCURVE",
"447 577.333 OFFCURVE",
"487 512 CURVE",
"563 587 LINE",
"516.333 667 OFFCURVE",
"434 710 OFFCURVE",
"326 710 CURVE SMOOTH",
"190 710 OFFCURVE",
"85 627.333 OFFCURVE",
"85 514 CURVE SMOOTH",
"85 399.333 OFFCURVE",
"155 329 OFFCURVE",
"299 301 CURVE SMOOTH",
"411 279.667 OFFCURVE",
"461 241.333 OFFCURVE",
"461 180 CURVE SMOOTH",
"461 125.333 OFFCURVE",
"401 87 OFFCURVE",
"325 87 CURVE SMOOTH",
"242.333 87 OFFCURVE",
"189.333 117.667 OFFCURVE",
"124 211 CURVE",
"50 126 LINE",
"112.667 35.333 OFFCURVE",
"199.333 -10 OFFCURVE",
"314 -10 CURVE SMOOTH"
);
}
);
width = 624;
},
{
anchors = (
{
name = bottom;
position = "{510, 0}";
},
{
name = top;
position = "{480, 700}";
}
);
layerId = "649E0662-786D-44F6-8E8D-A6782F19FFAA";
paths = (
{
closed = 1;
nodes = (
"677 -10 OFFCURVE",
"807 80 OFFCURVE",
"807 216 CURVE SMOOTH",
"807 356 OFFCURVE",
"655 384 OFFCURVE",
"495 403 CURVE SMOOTH",
"367 419 OFFCURVE",
"281 442 OFFCURVE",
"281 515 CURVE SMOOTH",
"281 576 OFFCURVE",
"363 613 OFFCURVE",
"471 613 CURVE SMOOTH",
"568 613 OFFCURVE",
"652 576 OFFCURVE",
"709 508 CURVE",
"781 587 LINE",
"720 667 OFFCURVE",
"613 710 OFFCURVE",
"474 710 CURVE SMOOTH",
"299 710 OFFCURVE",
"163 634 OFFCURVE",
"163 503 CURVE SMOOTH",
"163 379 OFFCURVE",
"278 322 OFFCURVE",
"457 299 CURVE SMOOTH",
"525 291 OFFCURVE",
"689 284 OFFCURVE",
"689 202 CURVE SMOOTH",
"689 123 OFFCURVE",
"582 87 OFFCURVE",
"479 87 CURVE SMOOTH",
"368 87 OFFCURVE",
"283 126 OFFCURVE",
"196 216 CURVE",
"128 126 LINE",
"213 34 OFFCURVE",
"327 -10 OFFCURVE",
"478 -10 CURVE SMOOTH"
);
}
);
width = 935;
},
{
anchors = (
{
name = bottom;
position = "{312, 0}";
},
{
name = top;
position = "{303, 700}";
}
);
layerId = "E41BA830-E06B-4916-8D61-039D08A6FFE2";
paths = (
{
closed = 1;
nodes = (
"439 -10 OFFCURVE",
"537 69 OFFCURVE",
"537 181 CURVE SMOOTH",
"537 284 OFFCURVE",
"443 335 OFFCURVE",
"288 373 CURVE SMOOTH",
"177 400 OFFCURVE",
"112 441 OFFCURVE",
"112 524 CURVE SMOOTH",
"112 610 OFFCURVE",
"194 670 OFFCURVE",
"299 670 CURVE SMOOTH",
"391 670 OFFCURVE",
"449 636 OFFCURVE",
"493 576 CURVE",
"523 605 LINE",
"477 672 OFFCURVE",
"408 710 OFFCURVE",
"300 710 CURVE SMOOTH",
"170 710 OFFCURVE",
"69 630 OFFCURVE",
"69 523 CURVE SMOOTH",
"69 419 OFFCURVE",
"142 366 OFFCURVE",
"272 332 CURVE SMOOTH",
"407 296 OFFCURVE",
"494 261 OFFCURVE",
"494 174 CURVE SMOOTH",
"494 89 OFFCURVE",
"412 30 OFFCURVE",
"309 30 CURVE SMOOTH",
"205 30 OFFCURVE",
"130 68 OFFCURVE",
"75 150 CURVE",
"44 117 LINE",
"100 35 OFFCURVE",
"187 -10 OFFCURVE",
"305 -10 CURVE SMOOTH"
);
}
);
width = 580.25581;
},
{
anchors = (
{
name = bottom;
position = "{489, 0}";
},
{
name = top;
position = "{466, 700}";
}
);
layerId = "60FFA52A-095B-47EE-98E9-9B5B7A5F3F54";
paths = (
{
closed = 1;
nodes = (
"659 -10 OFFCURVE",
"775 70 OFFCURVE",
"775 188 CURVE SMOOTH",
"775 329 OFFCURVE",
"604 352 OFFCURVE",
"460 370 CURVE SMOOTH",
"336 386 OFFCURVE",
"193 404 OFFCURVE",
"193 522 CURVE SMOOTH",
"193 612 OFFCURVE",
"306 671 OFFCURVE",
"447 671 CURVE SMOOTH",
"561 671 OFFCURVE",
"651 637 OFFCURVE",
"714 573 CURVE",
"741 605 LINE",
"679 674 OFFCURVE",
"578 710 OFFCURVE",
"448 710 CURVE SMOOTH",
"279 710 OFFCURVE",
"148 638 OFFCURVE",
"148 515 CURVE SMOOTH",
"148 377 OFFCURVE",
"301 347 OFFCURVE",
"450 328 CURVE SMOOTH",
"550 315 OFFCURVE",
"730 299 OFFCURVE",
"730 188 CURVE SMOOTH",
"732 89 OFFCURVE",
"621 29 OFFCURVE",
"462 29 CURVE SMOOTH",
"330 29 OFFCURVE",
"223 72 OFFCURVE",
"148 155 CURVE",
"123 118 LINE",
"202 32 OFFCURVE",
"315 -10 OFFCURVE",
"462 -10 CURVE SMOOTH"
);
}
);
width = 891.25581;
},
{
anchors = (
{
name = bottom;
position = "{336, 0}";
},
{
name = top;
position = "{332, 700}";
}
);
layerId = "CC139F8F-4E38-4355-A9C7-97F3CAE4F8B4";
paths = (
{
closed = 1;
nodes = (
"478 -10 OFFCURVE",
"590 73 OFFCURVE",
"590 216 CURVE SMOOTH",
"590 336 OFFCURVE",
"494 400 OFFCURVE",
"348 430 CURVE SMOOTH",
"278 443 OFFCURVE",
"223 466 OFFCURVE",
"223 512 CURVE SMOOTH",
"223 553 OFFCURVE",
"263 578 OFFCURVE",
"325 578 CURVE SMOOTH",
"384 578 OFFCURVE",
"438 550 OFFCURVE",
"480 496 CURVE",
"581 594 LINE",
"531 670 OFFCURVE",
"453 715 OFFCURVE",
"321 715 CURVE SMOOTH",
"181 715 OFFCURVE",
"61 629 OFFCURVE",
"61 504 CURVE SMOOTH",
"61 386 OFFCURVE",
"134 316 OFFCURVE",
"287 284 CURVE SMOOTH",
"363 269 OFFCURVE",
"429 244 OFFCURVE",
"429 192 CURVE SMOOTH",
"429 150 OFFCURVE",
"385 126 OFFCURVE",
"327 126 CURVE SMOOTH",
"254 126 OFFCURVE",
"189 151 OFFCURVE",
"124 241 CURVE",
"25 129 LINE",
"92 40 OFFCURVE",
"183 -10 OFFCURVE",
"319 -10 CURVE SMOOTH"
);
}
);
width = 632.33;
},
{
anchors = (
{
name = bottom;
position = "{517, 0}";
},
{
name = top;
position = "{487, 700}";
}
);
layerId = "7CDCAA7C-A29A-47F9-8FBC-7C0A555C33C4";
paths = (
{
closed = 1;
nodes = (
"686 -10 OFFCURVE",
"831 78 OFFCURVE",
"831 224 CURVE SMOOTH",
"831 388 OFFCURVE",
"668 410 OFFCURVE",
"508 426 CURVE SMOOTH",
"416 436 OFFCURVE",
"313 448 OFFCURVE",
"313 506 CURVE SMOOTH",
"313 555 OFFCURVE",
"383 578 OFFCURVE",
"475 578 CURVE SMOOTH",
"564 578 OFFCURVE",
"657 549 OFFCURVE",
"719 499 CURVE",
"800 612 LINE",
"738 670 OFFCURVE",
"629 715 OFFCURVE",
"481 715 CURVE SMOOTH",
"293 715 OFFCURVE",
"141 635 OFFCURVE",
"141 493 CURVE SMOOTH",
"141 365 OFFCURVE",
"262 300 OFFCURVE",
"447 282 CURVE SMOOTH",
"547 273 OFFCURVE",
"659 267 OFFCURVE",
"659 207 CURVE SMOOTH",
"659 145 OFFCURVE",
"569 126 OFFCURVE",
"497 126 CURVE SMOOTH",
"393 126 OFFCURVE",
"285 160 OFFCURVE",
"179 240 CURVE",
"103 110 LINE",
"194 39 OFFCURVE",
"318 -10 OFFCURVE",
"486 -10 CURVE SMOOTH"
);
}
);
width = 945.78;
}
);
leftKerningGroup = S;
rightKerningGroup = S;
unicode = 0053;
},
{
color = 6;
glyphname = Germandbls;
layers = (
{
anchors = (
{
name = bottom;
position = "{381, 0}";
},
{
name = top;
position = "{381, 700}";
}
);
layerId = "5A878C7E-547A-4951-B48F-676DBBC9B762";
paths = (
{
closed = 1;
nodes = (
"607.333 -10 OFFCURVE",
"707 78.667 OFFCURVE",
"707 184 CURVE SMOOTH",
"707 297 OFFCURVE",
"651 335 OFFCURVE",
"545 384 CURVE SMOOTH",
"478 415 OFFCURVE",
"445 446 OFFCURVE",
"445 486 CURVE SMOOTH",
"445 543.333 OFFCURVE",
"515.667 589 OFFCURVE",
"641 609 CURVE",
"636 682 LINE",
"568 711.333 OFFCURVE",
"489.667 726 OFFCURVE",
"407 726 CURVE SMOOTH",
"221.667 726 OFFCURVE",
"100 575 OFFCURVE",
"99 350 CURVE SMOOTH",
"98 1 LINE",
"206 1 LINE",
"208 343 LINE SMOOTH",
"209 523 OFFCURVE",
"290.333 634.667 OFFCURVE",
"417 632 CURVE SMOOTH",
"474.333 632 OFFCURVE",
"548.333 621 OFFCURVE",
"591 605 CURVE",
"541 643 LINE",
"419.667 632.333 OFFCURVE",
"338 564 OFFCURVE",
"338 460 CURVE SMOOTH",
"338 385.333 OFFCURVE",
"373 343 OFFCURVE",
"469 291 CURVE SMOOTH",
"569 237 OFFCURVE",
"602 219 OFFCURVE",
"602 171 CURVE SMOOTH",
"602 119 OFFCURVE",
"558 87 OFFCURVE",
"489 87 CURVE SMOOTH",
"446.333 87 OFFCURVE",
"395.333 115 OFFCURVE",
"362 155 CURVE",
"295 75 LINE",
"335 23 OFFCURVE",
"412.667 -10 OFFCURVE",
"490 -10 CURVE SMOOTH"
);
}
);
width = 762;
},
{
anchors = (
{
name = bottom;
position = "{550, 0}";
},
{
name = top;
position = "{550, 700}";
}
);
layerId = "649E0662-786D-44F6-8E8D-A6782F19FFAA";
paths = (
{
closed = 1;
nodes = (
"866 -10 OFFCURVE",
"961 77 OFFCURVE",
"961 184 CURVE SMOOTH",
"961 300 OFFCURVE",
"882 334 OFFCURVE",
"769 373 CURVE SMOOTH",
"678 404 OFFCURVE",
"618 433 OFFCURVE",
"618 486 CURVE SMOOTH",
"618 567 OFFCURVE",
"735 593 OFFCURVE",
"885 609 CURVE",
"875 686 LINE",
"779 714 OFFCURVE",
"702 726 OFFCURVE",
"605 726 CURVE SMOOTH",
"345 726 OFFCURVE",
"184 572 OFFCURVE",
"183 257 CURVE SMOOTH",
"182 0 LINE",
"290 0 LINE",
"292 263 LINE SMOOTH",
"294 531 OFFCURVE",
"444 637 OFFCURVE",
"605 637 CURVE SMOOTH",
"685 637 OFFCURVE",
"753 622 OFFCURVE",
"785 613 CURVE",
"785 653 LINE",
"648 662 OFFCURVE",
"512 597 OFFCURVE",
"512 469 CURVE SMOOTH",
"512 372 OFFCURVE",
"595 314 OFFCURVE",
"693 283 CURVE SMOOTH",
"795 251 OFFCURVE",
"857 227 OFFCURVE",
"857 173 CURVE SMOOTH",
"857 116 OFFCURVE",
"797 87 OFFCURVE",
"721 87 CURVE SMOOTH",
"638 87 OFFCURVE",
"578 127 OFFCURVE",
"526 163 CURVE",
"459 83 LINE",
"535 24 OFFCURVE",
"614 -10 OFFCURVE",
"721 -10 CURVE SMOOTH"
);
}
);
width = 1089;
},
{
anchors = (
{
name = bottom;
position = "{361, 0}";
},
{
name = top;
position = "{361, 700}";
}
);
layerId = "E41BA830-E06B-4916-8D61-039D08A6FFE2";
paths = (
{
closed = 1;
nodes = (
"585 -10 OFFCURVE",
"676 62 OFFCURVE",
"676 187 CURVE SMOOTH",
"676 294 OFFCURVE",
"608 326 OFFCURVE",
"529 372 CURVE SMOOTH",
"453 418 OFFCURVE",
"406 443 OFFCURVE",
"406 491 CURVE SMOOTH",
"406 549 OFFCURVE",
"491 589 OFFCURVE",
"614 609 CURVE",
"612 645 LINE",
"556 686 OFFCURVE",
"485 713 OFFCURVE",
"391 713 CURVE SMOOTH",
"194 713 OFFCURVE",
"108 601 OFFCURVE",
"108 390 CURVE SMOOTH",
"107 0 LINE",
"150 0 LINE",
"151 380 LINE SMOOTH",
"151 587 OFFCURVE",
"225 676 OFFCURVE",
"393 675 CURVE SMOOTH",
"477 675 OFFCURVE",
"546 647 OFFCURVE",
"590 617 CURVE",
"579 629 LINE",
"451 609 OFFCURVE",
"364 560 OFFCURVE",
"364 484 CURVE SMOOTH",
"364 430 OFFCURVE",
"395 400 OFFCURVE",
"499 340 CURVE SMOOTH",
"577 294 OFFCURVE",
"634 269 OFFCURVE",
"634 180 CURVE SMOOTH",
"634 86 OFFCURVE",
"564 30 OFFCURVE",
"452 30 CURVE SMOOTH",
"392 30 OFFCURVE",
"330 56 OFFCURVE",
"285 107 CURVE",
"256 77 LINE",
"298 24 OFFCURVE",
"374 -10 OFFCURVE",
"451 -10 CURVE SMOOTH"
);
}
);
userData = {
com.schriftgestaltung.Glyphs.glyph.leftMetricsKey = H;
com.schriftgestaltung.Glyphs.glyph.rightMetricsKey = S;
};
width = 719;
},
{
anchors = (
{
name = bottom;
position = "{529, 0}";
},
{
name = top;
position = "{529, 700}";
}
);
layerId = "60FFA52A-095B-47EE-98E9-9B5B7A5F3F54";
paths = (
{
closed = 1;
nodes = (
"839 -10 OFFCURVE",
"930 65 OFFCURVE",
"930 187 CURVE SMOOTH",
"930 294 OFFCURVE",
"847 333 OFFCURVE",
"723 375 CURVE SMOOTH",
"611 414 OFFCURVE",
"579 444 OFFCURVE",
"579 488 CURVE SMOOTH",
"579 556 OFFCURVE",
"668 598 OFFCURVE",
"856 609 CURVE",
"850 649 LINE",
"757 695 OFFCURVE",
"680 714 OFFCURVE",
"589 714 CURVE SMOOTH",
"317 714 OFFCURVE",
"192 586 OFFCURVE",
"191 297 CURVE SMOOTH",
"191 0 LINE",
"233 0 LINE",
"234 300 LINE SMOOTH",
"234 564 OFFCURVE",
"350 674 OFFCURVE",
"580 676 CURVE SMOOTH",
"677 676 OFFCURVE",
"751 657 OFFCURVE",
"823 618 CURVE",
"823 632 LINE",
"653 627 OFFCURVE",
"537 580 OFFCURVE",
"537 484 CURVE SMOOTH",
"537 415 OFFCURVE",
"587 377 OFFCURVE",
"705 337 CURVE SMOOTH",
"812 302 OFFCURVE",
"889 269 OFFCURVE",
"889 182 CURVE SMOOTH",
"889 84 OFFCURVE",
"813 29 OFFCURVE",
"684 29 CURVE SMOOTH",
"600 29 OFFCURVE",
"519 63 OFFCURVE",
"449 115 CURVE",
"423 84 LINE",
"500 24 OFFCURVE",
"589 -10 OFFCURVE",
"683 -10 CURVE SMOOTH"
);
}
);
userData = {
com.schriftgestaltung.Glyphs.glyph.leftMetricsKey = H;
com.schriftgestaltung.Glyphs.glyph.rightMetricsKey = S;
};
width = 1046;
},
{
anchors = (
{
name = bottom;
position = "{402, 0}";
},
{
name = top;
position = "{402, 700}";
}
);
layerId = "CC139F8F-4E38-4355-A9C7-97F3CAE4F8B4";
paths = (
{
closed = 1;
nodes = (
"652 -10 OFFCURVE",
"762 81 OFFCURVE",
"762 191 CURVE SMOOTH",
"762 300 OFFCURVE",
"706 336 OFFCURVE",
"611 382 CURVE SMOOTH",
"551 411 OFFCURVE",
"519 437 OFFCURVE",
"519 474 CURVE SMOOTH",
"519 519 OFFCURVE",
"573 556 OFFCURVE",
"684 570 CURVE",
"681 682 LINE",
"609 713 OFFCURVE",
"526 726 OFFCURVE",
"438 726 CURVE SMOOTH",
"229 726 OFFCURVE",
"90 575 OFFCURVE",
"90 350 CURVE SMOOTH",
"89 1 LINE",
"250 1 LINE",
"251 343 LINE SMOOTH",
"252 505 OFFCURVE",
"328 605 OFFCURVE",
"447 603 CURVE SMOOTH",
"503 603 OFFCURVE",
"575 591 OFFCURVE",
"616 576 CURVE",
"563 614 LINE",
"455 609 OFFCURVE",
"359 540 OFFCURVE",
"359 445 CURVE SMOOTH",
"359 378 OFFCURVE",
"389 339 OFFCURVE",
"475 291 CURVE SMOOTH",
"562 243 OFFCURVE",
"593 223 OFFCURVE",
"593 185 CURVE SMOOTH",
"593 147 OFFCURVE",
"562 121 OFFCURVE",
"511 121 CURVE SMOOTH",
"474 121 OFFCURVE",
"433 143 OFFCURVE",
"398 180 CURVE",
"311 75 LINE",
"351 27 OFFCURVE",
"436 -10 OFFCURVE",
"521 -10 CURVE SMOOTH"
);
}
);
width = 804.14;
},
{
anchors = (
{
name = bottom;
position = "{571, 0}";
},
{
name = top;
position = "{571, 700}";
}
);
layerId = "7CDCAA7C-A29A-47F9-8FBC-7C0A555C33C4";
paths = (
{
closed = 1;
nodes = (
"911 -10 OFFCURVE",
"1016 79 OFFCURVE",
"1016 191 CURVE SMOOTH",
"1016 303 OFFCURVE",
"937 335 OFFCURVE",
"835 371 CURVE SMOOTH",
"751 400 OFFCURVE",
"692 424 OFFCURVE",
"692 474 CURVE SMOOTH",
"692 543 OFFCURVE",
"792 560 OFFCURVE",
"928 570 CURVE",
"920 686 LINE",
"820 715 OFFCURVE",
"738 726 OFFCURVE",
"636 726 CURVE SMOOTH",
"352 726 OFFCURVE",
"174 572 OFFCURVE",
"174 257 CURVE SMOOTH",
"173 0 LINE",
"334 0 LINE",
"335 263 LINE SMOOTH",
"337 513 OFFCURVE",
"481 607 OFFCURVE",
"635 608 CURVE SMOOTH",
"714 608 OFFCURVE",
"780 592 OFFCURVE",
"810 584 CURVE",
"807 624 LINE",
"683 638 OFFCURVE",
"533 573 OFFCURVE",
"533 454 CURVE SMOOTH",
"533 364 OFFCURVE",
"611 310 OFFCURVE",
"699 283 CURVE SMOOTH",
"788 257 OFFCURVE",
"848 231 OFFCURVE",
"848 187 CURVE SMOOTH",
"848 144 OFFCURVE",
"801 121 OFFCURVE",
"743 121 CURVE SMOOTH",
"666 121 OFFCURVE",
"616 155 OFFCURVE",
"562 188 CURVE",
"475 83 LINE",
"551 28 OFFCURVE",
"638 -10 OFFCURVE",
"752 -10 CURVE SMOOTH"
);
}
);
width = 1131.14;
}
);
leftKerningGroup = f;
leftMetricsKey = H;
rightKerningGroup = S;
rightMetricsKey = S;
unicode = 1E9E;
},
{
color = 6;
glyphname = Schwa;
layers = (
{
anchors = (
{
name = bottom;
position = "{390, 0}";
},
{
name = top;
position = "{390, 700}";
}
);
layerId = "5A878C7E-547A-4951-B48F-676DBBC9B762";
paths = (
{
closed = 1;
nodes = (
"578 -10 OFFCURVE",
"732 151.333 OFFCURVE",
"732 350 CURVE SMOOTH",
"732 548.667 OFFCURVE",
"576.333 710 OFFCURVE",
"387 710 CURVE SMOOTH",
"271 710 OFFCURVE",
"189.333 678 OFFCURVE",
"116 606 CURVE",
"184 536 LINE",
"240 588 OFFCURVE",
"303 613 OFFCURVE",
"387 613 CURVE SMOOTH",
"532.333 613 OFFCURVE",
"629 512.333 OFFCURVE",
"629 351 CURVE SMOOTH",
"629 193.667 OFFCURVE",
"528.667 87 OFFCURVE",
"390 87 CURVE SMOOTH",
"274 87 OFFCURVE",
"172 176 OFFCURVE",
"152 296 CURVE",
"695 296 LINE",
"686 393 LINE",
"48 393 LINE",
"48 313 LINE",
"57.333 127.667 OFFCURVE",
"208.667 -10 OFFCURVE",
"390 -10 CURVE SMOOTH"
);
}
);
width = 780;
},
{
anchors = (
{
name = bottom;
position = "{484, 0}";
},
{
name = top;
position = "{484, 700}";
}
);
layerId = "649E0662-786D-44F6-8E8D-A6782F19FFAA";
paths = (
{
closed = 1;
nodes = (
"680 -10 OFFCURVE",
"839 151 OFFCURVE",
"839 350 CURVE SMOOTH",
"839 549 OFFCURVE",
"677 710 OFFCURVE",
"482 710 CURVE SMOOTH",
"365 710 OFFCURVE",
"276 676 OFFCURVE",
"196 588 CURVE",
"264 528 LINE",
"327 591 OFFCURVE",
"398 613 OFFCURVE",
"482 613 CURVE SMOOTH",
"617 613 OFFCURVE",
"729 526 OFFCURVE",
"729 351 CURVE SMOOTH",
"729 190 OFFCURVE",
"618 87 OFFCURVE",
"485 87 CURVE SMOOTH",
"365 87 OFFCURVE",
"260 180 OFFCURVE",
"239 296 CURVE",
"775 296 LINE",
"766 393 LINE",
"128 393 LINE",
"128 313 LINE",
"137 118 OFFCURVE",
"308 -10 OFFCURVE",
"485 -10 CURVE SMOOTH"
);
}
);
width = 967;
},
{
anchors = (
{
name = bottom;
position = "{396, 0}";
},
{
name = top;
position = "{396, 700}";
}
);
layerId = "E41BA830-E06B-4916-8D61-039D08A6FFE2";
paths = (
{
closed = 1;
nodes = (
"588 -10 OFFCURVE",
"738 140 OFFCURVE",
"738 345 CURVE SMOOTH",
"738 552 OFFCURVE",
"580 710 OFFCURVE",
"375 710 CURVE SMOOTH",
"279 710 OFFCURVE",
"187 670 OFFCURVE",
"125 608 CURVE",
"153 580 LINE",
"210 634 OFFCURVE",
"287 670 OFFCURVE",
"374 670 CURVE SMOOTH",
"559 670 OFFCURVE",
"697 535 OFFCURVE",
"697 349 CURVE SMOOTH",
"697 163 OFFCURVE",
"567 30 OFFCURVE",
"395 30 CURVE SMOOTH",
"220 30 OFFCURVE",
"99 164 OFFCURVE",
"95 332 CURVE",
"720 332 LINE",
"718 372 LINE",
"54 372 LINE",
"54 344 LINE SMOOTH",
"52 143 OFFCURVE",
"198 -10 OFFCURVE",
"394 -10 CURVE SMOOTH"
);
}
);
userData = {
com.schriftgestaltung.Glyphs.glyph.leftMetricsKey = O;
com.schriftgestaltung.Glyphs.glyph.rightMetricsKey = O;
};
width = 791;
},
{
anchors = (
{
name = bottom;
position = "{487, 0}";
},
{
name = top;
position = "{487, 700}";
}
);
layerId = "60FFA52A-095B-47EE-98E9-9B5B7A5F3F54";
paths = (
{
closed = 1;
nodes = (
"685 -10 OFFCURVE",
"840 140 OFFCURVE",
"840 345 CURVE SMOOTH",
"840 563 OFFCURVE",
"682 710 OFFCURVE",
"473 710 CURVE SMOOTH",
"357 710 OFFCURVE",
"270 668 OFFCURVE",
"201 589 CURVE",
"229 565 LINE",
"292 634 OFFCURVE",
"375 671 OFFCURVE",
"470 671 CURVE SMOOTH",
"647 671 OFFCURVE",
"797 553 OFFCURVE",
"797 349 CURVE SMOOTH",
"797 159 OFFCURVE",
"654 29 OFFCURVE",
"484 29 CURVE SMOOTH",
"310 29 OFFCURVE",
"182 166 OFFCURVE",
"176 332 CURVE",
"818 332 LINE",
"816 372 LINE",
"133 372 LINE",
"133 344 LINE SMOOTH",
"132 133 OFFCURVE",
"295 -10 OFFCURVE",
"483 -10 CURVE SMOOTH"
);
}
);
userData = {
com.schriftgestaltung.Glyphs.glyph.leftMetricsKey = O;
com.schriftgestaltung.Glyphs.glyph.rightMetricsKey = O;
};
width = 973.13953;
},
{
anchors = (
{
name = bottom;
position = "{386, 0}";
},
{
name = top;
position = "{386, 700}";
}
);
layerId = "CC139F8F-4E38-4355-A9C7-97F3CAE4F8B4";
paths = (
{
closed = 1;
nodes = (
"574 -10 OFFCURVE",
"728 151 OFFCURVE",
"728 350 CURVE SMOOTH",
"728 549 OFFCURVE",
"572 710 OFFCURVE",
"383 710 CURVE SMOOTH",
"266 710 OFFCURVE",
"193 681 OFFCURVE",
"109 613 CURVE",
"181 494 LINE",
"241 542 OFFCURVE",
"294 563 OFFCURVE",
"373 563 CURVE SMOOTH",
"490 563 OFFCURVE",
"568 481 OFFCURVE",
"568 351 CURVE SMOOTH",
"568 217 OFFCURVE",
"491 137 OFFCURVE",
"386 137 CURVE SMOOTH",
"307 137 OFFCURVE",
"233 194 OFFCURVE",
"212 279 CURVE",
"691 279 LINE",
"682 410 LINE",
"44 410 LINE",
"44 313 LINE",
"53 128 OFFCURVE",
"205 -10 OFFCURVE",
"386 -10 CURVE SMOOTH"
);
}
);
width = 772.16;
},
{
anchors = (
{
name = bottom;
position = "{480, 0}";
},
{
name = top;
position = "{480, 700}";
}
);
layerId = "7CDCAA7C-A29A-47F9-8FBC-7C0A555C33C4";
paths = (
{
closed = 1;
nodes = (
"676 -10 OFFCURVE",
"835 151 OFFCURVE",
"835 350 CURVE SMOOTH",
"835 549 OFFCURVE",
"673 710 OFFCURVE",
"478 710 CURVE SMOOTH",
"360 710 OFFCURVE",
"280 679 OFFCURVE",
"189 595 CURVE",
"261 486 LINE",
"328 545 OFFCURVE",
"389 563 OFFCURVE",
"468 563 CURVE SMOOTH",
"574 563 OFFCURVE",
"668 495 OFFCURVE",
"668 351 CURVE SMOOTH",
"668 213 OFFCURVE",
"581 137 OFFCURVE",
"481 137 CURVE SMOOTH",
"398 137 OFFCURVE",
"321 198 OFFCURVE",
"299 279 CURVE",
"771 279 LINE",
"762 410 LINE",
"124 410 LINE",
"124 313 LINE",
"133 118 OFFCURVE",
"304 -10 OFFCURVE",
"481 -10 CURVE SMOOTH"
);
}
);
width = 959.16;
}
);
leftKerningGroup = C;
leftMetricsKey = O;
rightKerningGroup = D;
rightMetricsKey = O;
unicode = 018F;
},
{
color = 6;
glyphname = T;
layers = (
{
anchors = (
{
name = bottom;
position = "{288, 0}";
},
{
name = center;
position = "{288, 350}";
},
{
name = top;
position = "{288, 700}";
}
);
layerId = "5A878C7E-547A-4951-B48F-676DBBC9B762";
paths = (
{
closed = 1;
nodes = (
"339 0 LINE",
"339 596 LINE",
"541 596 LINE",
"541 700 LINE",
"35 700 LINE",
"35 596 LINE",
"231 596 LINE",
"231 0 LINE"
);
}
);
width = 576;
},
{
anchors = (
{
name = bottom;
position = "{423, 0}";
},
{
name = center;
position = "{423, 350}";
},
{
name = top;
position = "{423, 700}";
}
);
layerId = "649E0662-786D-44F6-8E8D-A6782F19FFAA";
paths = (
{
closed = 1;
nodes = (
"474 0 LINE",
"474 596 LINE",
"746 596 LINE",
"746 700 LINE",
"100 700 LINE",
"100 596 LINE",
"366 596 LINE",
"366 0 LINE"
);
}
);
width = 846;
},
{
anchors = (
{
name = bottom;
position = "{254, 0}";
},
{
name = center;
position = "{254, 350}";
},
{
name = top;
position = "{254, 700}";
}
);
layerId = "E41BA830-E06B-4916-8D61-039D08A6FFE2";
paths = (
{
closed = 1;
nodes = (
"275 0 LINE",
"275 659 LINE",
"485 659 LINE",
"485 700 LINE",
"23 700 LINE",
"23 659 LINE",
"233 659 LINE",
"233 0 LINE"
);
}
);
width = 508.46511;
},
{
anchors = (
{
name = bottom;
position = "{389, 0}";
},
{
name = center;
position = "{389, 350}";
},
{
name = top;
position = "{389, 700}";
}
);
layerId = "60FFA52A-095B-47EE-98E9-9B5B7A5F3F54";
paths = (
{
closed = 1;
nodes = (
"410 0 LINE",
"410 659 LINE",
"690 659 LINE",
"690 700 LINE",
"88 700 LINE",
"88 659 LINE",
"368 659 LINE",
"368 0 LINE"
);
}
);
width = 778.46512;
},
{
anchors = (
{
name = bottom;
position = "{322, 0}";
},
{
name = center;
position = "{322, 350}";
},
{
name = top;
position = "{322, 700}";
}
);
layerId = "CC139F8F-4E38-4355-A9C7-97F3CAE4F8B4";
paths = (
{
closed = 1;
nodes = (
"399 0 LINE",
"399 557 LINE",
"611 557 LINE",
"611 700 LINE",
"33 700 LINE",
"33 557 LINE",
"238 557 LINE",
"238 0 LINE"
);
}
);
width = 643.62;
},
{
anchors = (
{
name = bottom;
position = "{457, 0}";
},
{
name = center;
position = "{457, 350}";
},
{
name = top;
position = "{457, 700}";
}
);
layerId = "7CDCAA7C-A29A-47F9-8FBC-7C0A555C33C4";
paths = (
{
closed = 1;
nodes = (
"534 0 LINE",
"534 557 LINE",
"816 557 LINE",
"816 700 LINE",
"98 700 LINE",
"98 557 LINE",
"373 557 LINE",
"373 0 LINE"
);
}
);
width = 913.62;
}
);
leftKerningGroup = T;
rightKerningGroup = T;
unicode = 0054;
},
{
color = 3;
glyphname = Tbar;
layers = (
{
components = (
{
name = T;
}
);
layerId = "5A878C7E-547A-4951-B48F-676DBBC9B762";
paths = (
{
closed = 1;
nodes = (
"422 307 LINE",
"422 397 LINE",
"154 397 LINE",
"154 307 LINE"
);
}
);
width = 576;
},
{
components = (
{
name = T;
}
);
layerId = "649E0662-786D-44F6-8E8D-A6782F19FFAA";
paths = (
{
closed = 1;
nodes = (
"627 308 LINE",
"627 394 LINE",
"219 394 LINE",
"219 308 LINE"
);
}
);
width = 846;
},
{
components = (
{
alignment = -1;
name = T;
}
);
layerId = "E41BA830-E06B-4916-8D61-039D08A6FFE2";
paths = (
{
closed = 1;
nodes = (
"387 332 LINE",
"387 370 LINE",
"119 370 LINE",
"119 332 LINE"
);
}
);
userData = {
com.schriftgestaltung.Glyphs.glyph.leftMetricsKey = T;
com.schriftgestaltung.Glyphs.glyph.rightMetricsKey = T;
};
width = 508.46511;
},
{
components = (
{
alignment = -1;
name = T;
}
);
layerId = "60FFA52A-095B-47EE-98E9-9B5B7A5F3F54";
paths = (
{
closed = 1;
nodes = (
"593 333 LINE",
"593 366 LINE",
"185 366 LINE",
"185 333 LINE"
);
}
);
userData = {
com.schriftgestaltung.Glyphs.glyph.leftMetricsKey = T;
com.schriftgestaltung.Glyphs.glyph.rightMetricsKey = T;
};
width = 778.46512;
},
{
components = (
{
alignment = -1;
name = T;
}
);
layerId = "CC139F8F-4E38-4355-A9C7-97F3CAE4F8B4";
paths = (
{
closed = 1;
nodes = (
"484 294 LINE",
"484 409 LINE",
"167 409 LINE",
"167 294 LINE"
);
}
);
width = 643.62;
},
{
components = (
{
alignment = -1;
name = T;
}
);
layerId = "7CDCAA7C-A29A-47F9-8FBC-7C0A555C33C4";
paths = (
{
closed = 1;
nodes = (
"689 295 LINE",
"689 406 LINE",
"232 406 LINE",
"232 295 LINE"
);
}
);
width = 913.62;
}
);
leftKerningGroup = T;
rightKerningGroup = T;
unicode = 0166;
},
{
color = 6;
glyphname = U;
layers = (
{
anchors = (
{
name = bottom;
position = "{370, 0}";
},
{
name = ogonek;
position = "{540, 0}";
},
{
name = top;
position = "{370, 700}";
},
{
name = topright;
position = "{720, 700}";
}
);
layerId = "5A878C7E-547A-4951-B48F-676DBBC9B762";
paths = (
{
closed = 1;
nodes = (
"532.667 -6 OFFCURVE",
"652 110.333 OFFCURVE",
"652 269 CURVE SMOOTH",
"652 701 LINE",
"549 701 LINE",
"549 278 LINE SMOOTH",
"549 176.667 OFFCURVE",
"470 98 OFFCURVE",
"370 98 CURVE SMOOTH",
"275.333 98 OFFCURVE",
"196 176.667 OFFCURVE",
"196 278 CURVE SMOOTH",
"196 701 LINE",
"88 701 LINE",
"88 269 LINE SMOOTH",
"88 110.333 OFFCURVE",
"207.333 -6 OFFCURVE",
"370 -6 CURVE SMOOTH"
);
}
);
width = 740;
},
{
anchors = (
{
name = bottom;
position = "{522, 0}";
},
{
name = ogonek;
position = "{694, 0}";
},
{
name = top;
position = "{522, 700}";
},
{
name = topright;
position = "{942, 700}";
}
);
layerId = "649E0662-786D-44F6-8E8D-A6782F19FFAA";
paths = (
{
closed = 1;
nodes = (
"734 -6 OFFCURVE",
"874 139 OFFCURVE",
"874 335 CURVE SMOOTH",
"874 701 LINE",
"771 701 LINE",
"771 339 LINE SMOOTH",
"771 200 OFFCURVE",
"665 99 OFFCURVE",
"522 99 CURVE SMOOTH",
"386 99 OFFCURVE",
"278 200 OFFCURVE",
"278 339 CURVE SMOOTH",
"278 701 LINE",
"170 701 LINE",
"170 335 LINE SMOOTH",
"170 139 OFFCURVE",
"310 -6 OFFCURVE",
"522 -6 CURVE SMOOTH"
);
}
);
width = 1044;
},
{
anchors = (
{
name = bottom;
position = "{372, 0}";
},
{
name = ogonek;
position = "{527, -5}";
},
{
name = top;
position = "{372, 700}";
},
{
name = topright;
position = "{723, 700}";
}
);
layerId = "E41BA830-E06B-4916-8D61-039D08A6FFE2";
paths = (
{
closed = 1;
nodes = (
"525 -6 OFFCURVE",
"638 109 OFFCURVE",
"638 269 CURVE SMOOTH",
"638 700 LINE",
"598 700 LINE",
"598 278 LINE SMOOTH",
"598 137 OFFCURVE",
"502 35 OFFCURVE",
"368 35 CURVE SMOOTH",
"239 35 OFFCURVE",
"146 137 OFFCURVE",
"146 278 CURVE SMOOTH",
"146 700 LINE",
"105 700 LINE",
"105 269 LINE SMOOTH",
"105 109 OFFCURVE",
"215 -6 OFFCURVE",
"368 -6 CURVE SMOOTH"
);
}
);
width = 743.06977;
},
{
anchors = (
{
name = bottom;
position = "{524, 0}";
},
{
name = ogonek;
position = "{835, 8}";
},
{
name = top;
position = "{524, 700}";
},
{
name = topright;
position = "{859, 700}";
}
);
layerId = "60FFA52A-095B-47EE-98E9-9B5B7A5F3F54";
paths = (
{
closed = 1;
nodes = (
"726 -6 OFFCURVE",
"860 138 OFFCURVE",
"860 335 CURVE SMOOTH",
"860 700 LINE",
"819 700 LINE",
"819 339 LINE SMOOTH",
"819 160 OFFCURVE",
"697 36 OFFCURVE",
"520 36 CURVE SMOOTH",
"350 36 OFFCURVE",
"229 160 OFFCURVE",
"229 339 CURVE SMOOTH",
"229 700 LINE",
"187 700 LINE",
"187 337 LINE SMOOTH",
"187 137 OFFCURVE",
"318 -6 OFFCURVE",
"520 -6 CURVE SMOOTH"
);
}
);
width = 1047.06977;
},
{
anchors = (
{
name = bottom;
position = "{381, 0}";
},
{
name = ogonek;
position = "{562, 0}";
},
{
name = top;
position = "{381, 700}";
},
{
name = topright;
position = "{742, 700}";
}
);
layerId = "CC139F8F-4E38-4355-A9C7-97F3CAE4F8B4";
paths = (
{
closed = 1;
nodes = (
"553 -6 OFFCURVE",
"677 110 OFFCURVE",
"677 269 CURVE SMOOTH",
"677 701 LINE",
"521 701 LINE",
"521 278 LINE SMOOTH",
"521 198 OFFCURVE",
"460 137 OFFCURVE",
"381 137 CURVE SMOOTH",
"306 137 OFFCURVE",
"246 198 OFFCURVE",
"246 278 CURVE SMOOTH",
"246 701 LINE",
"84 701 LINE",
"84 269 LINE SMOOTH",
"84 110 OFFCURVE",
"209 -6 OFFCURVE",
"381 -6 CURVE SMOOTH"
);
}
);
width = 761.56;
},
{
anchors = (
{
name = bottom;
position = "{533, 0}";
},
{
name = ogonek;
position = "{716, 0}";
},
{
name = top;
position = "{533, 700}";
},
{
name = topright;
position = "{964, 700}";
}
);
layerId = "7CDCAA7C-A29A-47F9-8FBC-7C0A555C33C4";
paths = (
{
closed = 1;
nodes = (
"754 -6 OFFCURVE",
"899 139 OFFCURVE",
"899 335 CURVE SMOOTH",
"899 701 LINE",
"743 701 LINE",
"743 339 LINE SMOOTH",
"743 221 OFFCURVE",
"655 138 OFFCURVE",
"533 138 CURVE SMOOTH",
"416 138 OFFCURVE",
"328 221 OFFCURVE",
"328 339 CURVE SMOOTH",
"328 701 LINE",
"166 701 LINE",
"166 335 LINE SMOOTH",
"166 139 OFFCURVE",
"311 -6 OFFCURVE",
"533 -6 CURVE SMOOTH"
);
}
);
width = 1065.56;
}
);
leftKerningGroup = U;
rightKerningGroup = U;
unicode = 0055;
},
{
color = 6;
glyphname = Uhorn;
layers = (
{
anchors = (
{
name = bottom;
position = "{370, 0}";
},
{
name = top;
position = "{370, 700}";
}
);
layerId = "5A878C7E-547A-4951-B48F-676DBBC9B762";
paths = (
{
closed = 1;
nodes = (
"532.667 -6 OFFCURVE",
"652 110.333 OFFCURVE",
"652 269 CURVE SMOOTH",
"652 673 LINE",
"622 621 LINE",
"714 636 OFFCURVE",
"765 707 OFFCURVE",
"765 814 CURVE",
"673 814 LINE",
"673 745.118 OFFCURVE",
"650 701 OFFCURVE",
"587 701 CURVE SMOOTH",
"549 701 LINE",
"549 278 LINE SMOOTH",
"549 176.667 OFFCURVE",
"470 98 OFFCURVE",
"370 98 CURVE SMOOTH",
"275.333 98 OFFCURVE",
"196 176.667 OFFCURVE",
"196 278 CURVE SMOOTH",
"196 701 LINE",
"88 701 LINE",
"88 269 LINE SMOOTH",
"88 110.333 OFFCURVE",
"207.333 -6 OFFCURVE",
"370 -6 CURVE SMOOTH"
);
}
);
width = 740;
},
{
anchors = (
{
name = bottom;
position = "{522, 0}";
},
{
name = top;
position = "{522, 700}";
}
);
layerId = "649E0662-786D-44F6-8E8D-A6782F19FFAA";
paths = (
{
closed = 1;
nodes = (
"734 -6 OFFCURVE",
"874 139 OFFCURVE",
"874 335 CURVE SMOOTH",
"874 682 LINE",
"844 644 LINE",
"939 644 OFFCURVE",
"984 718 OFFCURVE",
"984 814 CURVE",
"892 814 LINE",
"892 740 OFFCURVE",
"871 701 OFFCURVE",
"792 701 CURVE SMOOTH",
"771 701 LINE",
"771 339 LINE SMOOTH",
"771 200 OFFCURVE",
"665 99 OFFCURVE",
"522 99 CURVE SMOOTH",
"386 99 OFFCURVE",
"278 200 OFFCURVE",
"278 339 CURVE SMOOTH",
"278 701 LINE",
"170 701 LINE",
"170 335 LINE SMOOTH",
"170 139 OFFCURVE",
"310 -6 OFFCURVE",
"522 -6 CURVE SMOOTH"
);
}
);
width = 1044;
},
{
anchors = (
{
name = bottom;
position = "{372, 0}";
},
{
name = top;
position = "{372, 700}";
}
);
layerId = "E41BA830-E06B-4916-8D61-039D08A6FFE2";
paths = (
{
closed = 1;
nodes = (
"525 -6 OFFCURVE",
"638 109 OFFCURVE",
"638 269 CURVE SMOOTH",
"638 688 LINE",
"620 666 LINE",
"708 669 OFFCURVE",
"752 718 OFFCURVE",
"752 802 CURVE",
"715 802 LINE",
"715 735 OFFCURVE",
"680 700 OFFCURVE",
"613 700 CURVE SMOOTH",
"598 700 LINE",
"598 278 LINE SMOOTH",
"598 137 OFFCURVE",
"502 35 OFFCURVE",
"368 35 CURVE SMOOTH",
"239 35 OFFCURVE",
"146 137 OFFCURVE",
"146 278 CURVE SMOOTH",
"146 700 LINE",
"105 700 LINE",
"105 269 LINE SMOOTH",
"105 109 OFFCURVE",
"215 -6 OFFCURVE",
"368 -6 CURVE SMOOTH"
);
}
);
width = 743.06977;
},
{
anchors = (
{
name = bottom;
position = "{524, 0}";
},
{
name = top;
position = "{524, 700}";
}
);
layerId = "60FFA52A-095B-47EE-98E9-9B5B7A5F3F54";
paths = (
{
closed = 1;
nodes = (
"726 -6 OFFCURVE",
"860 138 OFFCURVE",
"860 335 CURVE SMOOTH",
"860 693 LINE",
"844 670 LINE",
"916 672 OFFCURVE",
"959 710 OFFCURVE",
"959 802 CURVE",
"921 802 LINE",
"921 735 OFFCURVE",
"897 700 OFFCURVE",
"832 700 CURVE SMOOTH",
"819 700 LINE",
"819 339 LINE SMOOTH",
"819 160 OFFCURVE",
"697 36 OFFCURVE",
"520 36 CURVE SMOOTH",
"350 36 OFFCURVE",
"229 160 OFFCURVE",
"229 339 CURVE SMOOTH",
"229 700 LINE",
"187 700 LINE",
"187 337 LINE SMOOTH",
"187 137 OFFCURVE",
"318 -6 OFFCURVE",
"520 -6 CURVE SMOOTH"
);
}
);
width = 993.34884;
},
{
anchors = (
{
name = bottom;
position = "{381, 0}";
},
{
name = top;
position = "{381, 700}";
}
);
layerId = "CC139F8F-4E38-4355-A9C7-97F3CAE4F8B4";
paths = (
{
closed = 1;
nodes = (
"553 -6 OFFCURVE",
"677 110 OFFCURVE",
"677 269 CURVE SMOOTH",
"677 666 LINE",
"633 619 LINE",
"739 631 OFFCURVE",
"788 717 OFFCURVE",
"788 824 CURVE",
"666 824 LINE",
"666 745 OFFCURVE",
"640 701 OFFCURVE",
"579 701 CURVE SMOOTH",
"521 701 LINE",
"521 278 LINE SMOOTH",
"521 198 OFFCURVE",
"460 137 OFFCURVE",
"381 137 CURVE SMOOTH",
"306 137 OFFCURVE",
"246 198 OFFCURVE",
"246 278 CURVE SMOOTH",
"246 701 LINE",
"84 701 LINE",
"84 269 LINE SMOOTH",
"84 110 OFFCURVE",
"209 -6 OFFCURVE",
"381 -6 CURVE SMOOTH"
);
}
);
width = 761.56;
},
{
anchors = (
{
name = bottom;
position = "{533, 0}";
},
{
name = top;
position = "{533, 700}";
}
);
layerId = "7CDCAA7C-A29A-47F9-8FBC-7C0A555C33C4";
paths = (
{
closed = 1;
nodes = (
"754 -6 OFFCURVE",
"899 139 OFFCURVE",
"899 335 CURVE SMOOTH",
"899 675 LINE",
"855 642 LINE",
"964 639 OFFCURVE",
"1007 728 OFFCURVE",
"1007 824 CURVE",
"885 824 LINE",
"885 740 OFFCURVE",
"861 701 OFFCURVE",
"784 701 CURVE SMOOTH",
"743 701 LINE",
"743 339 LINE SMOOTH",
"743 221 OFFCURVE",
"655 138 OFFCURVE",
"533 138 CURVE SMOOTH",
"416 138 OFFCURVE",
"328 221 OFFCURVE",
"328 339 CURVE SMOOTH",
"328 701 LINE",
"166 701 LINE",
"166 335 LINE SMOOTH",
"166 139 OFFCURVE",
"311 -6 OFFCURVE",
"533 -6 CURVE SMOOTH"
);
}
);
width = 1065.56;
}
);
leftKerningGroup = U;
rightKerningGroup = U;
unicode = 01AF;
},
{
color = 3;
glyphname = Uogonek;
layers = (
{
components = (
{
name = U;
}
);
layerId = "5A878C7E-547A-4951-B48F-676DBBC9B762";
paths = (
{
closed = 1;
nodes = (
"482 -200 OFFCURVE",
"529 -171 OFFCURVE",
"543 -138 CURVE",
"487 -98 LINE",
"476 -114 OFFCURVE",
"464 -123 OFFCURVE",
"450 -123 CURVE SMOOTH",
"428 -123 OFFCURVE",
"416 -108 OFFCURVE",
"416 -84 CURVE SMOOTH",
"416 -44 OFFCURVE",
"455 -3 OFFCURVE",
"532 40 CURVE",
"494 85 LINE",
"404 38 OFFCURVE",
"325 -16 OFFCURVE",
"325 -97 CURVE SMOOTH",
"325 -164 OFFCURVE",
"376 -200 OFFCURVE",
"434 -200 CURVE SMOOTH"
);
}
);
width = 740;
},
{
components = (
{
name = U;
}
);
layerId = "649E0662-786D-44F6-8E8D-A6782F19FFAA";
paths = (
{
closed = 1;
nodes = (
"669 -200 OFFCURVE",
"713 -166 OFFCURVE",
"724 -138 CURVE",
"668 -98 LINE",
"660 -111 OFFCURVE",
"648 -123 OFFCURVE",
"631 -123 CURVE SMOOTH",
"610 -123 OFFCURVE",
"597 -108 OFFCURVE",
"597 -81 CURVE SMOOTH",
"597 -21 OFFCURVE",
"676 22 OFFCURVE",
"703 37 CURVE",
"682 91 LINE",
"644 61 OFFCURVE",
"506 0 OFFCURVE",
"506 -99 CURVE SMOOTH",
"506 -158 OFFCURVE",
"553 -200 OFFCURVE",
"615 -200 CURVE SMOOTH"
);
}
);
width = 1044;
},
{
components = (
{
alignment = -1;
name = U;
}
);
layerId = "E41BA830-E06B-4916-8D61-039D08A6FFE2";
paths = (
{
closed = 1;
nodes = (
"495 -227 OFFCURVE",
"532 -204 OFFCURVE",
"548 -172 CURVE",
"523 -152 LINE",
"509 -177 OFFCURVE",
"487 -193 OFFCURVE",
"457 -193 CURVE SMOOTH",
"418 -193 OFFCURVE",
"389 -163 OFFCURVE",
"389 -119 CURVE SMOOTH",
"389 -59 OFFCURVE",
"442 -11 OFFCURVE",
"516 34 CURVE",
"504 59 LINE",
"425 13 OFFCURVE",
"351 -40 OFFCURVE",
"351 -124 CURVE SMOOTH",
"351 -185 OFFCURVE",
"396 -227 OFFCURVE",
"453 -227 CURVE SMOOTH"
);
}
);
width = 743.06977;
},
{
components = (
{
alignment = -1;
name = U;
}
);
layerId = "60FFA52A-095B-47EE-98E9-9B5B7A5F3F54";
paths = (
{
closed = 1;
nodes = (
"654 -228 OFFCURVE",
"686 -203 OFFCURVE",
"705 -172 CURVE",
"680 -152 LINE",
"667 -176 OFFCURVE",
"645 -193 OFFCURVE",
"614 -193 CURVE SMOOTH",
"575 -193 OFFCURVE",
"546 -163 OFFCURVE",
"546 -122 CURVE SMOOTH",
"546 -69 OFFCURVE",
"590 -14 OFFCURVE",
"706 43 CURVE",
"697 70 LINE",
"579 10 OFFCURVE",
"508 -51 OFFCURVE",
"508 -129 CURVE SMOOTH",
"508 -184 OFFCURVE",
"553 -228 OFFCURVE",
"610 -228 CURVE SMOOTH"
);
}
);
width = 1047.06977;
},
{
components = (
{
alignment = -1;
name = U;
}
);
layerId = "CC139F8F-4E38-4355-A9C7-97F3CAE4F8B4";
paths = (
{
closed = 1;
nodes = (
"511 -210 OFFCURVE",
"558 -175 OFFCURVE",
"577 -136 CURVE",
"510 -86 LINE",
"500 -102 OFFCURVE",
"489 -110 OFFCURVE",
"476 -110 CURVE SMOOTH",
"458 -110 OFFCURVE",
"447 -96 OFFCURVE",
"447 -76 CURVE SMOOTH",
"447 -30 OFFCURVE",
"498 10 OFFCURVE",
"562 47 CURVE",
"527 94 LINE",
"423 43 OFFCURVE",
"339 -13 OFFCURVE",
"339 -100 CURVE SMOOTH",
"339 -167 OFFCURVE",
"388 -210 OFFCURVE",
"454 -210 CURVE SMOOTH"
);
}
);
width = 761.56;
},
{
components = (
{
alignment = -1;
name = U;
}
);
layerId = "7CDCAA7C-A29A-47F9-8FBC-7C0A555C33C4";
paths = (
{
closed = 1;
nodes = (
"698 -210 OFFCURVE",
"742 -170 OFFCURVE",
"758 -136 CURVE",
"691 -86 LINE",
"684 -99 OFFCURVE",
"673 -110 OFFCURVE",
"657 -110 CURVE SMOOTH",
"640 -110 OFFCURVE",
"628 -96 OFFCURVE",
"628 -73 CURVE SMOOTH",
"628 -7 OFFCURVE",
"719 35 OFFCURVE",
"733 44 CURVE",
"715 100 LINE",
"663 66 OFFCURVE",
"520 3 OFFCURVE",
"520 -102 CURVE SMOOTH",
"520 -161 OFFCURVE",
"565 -210 OFFCURVE",
"635 -210 CURVE SMOOTH"
);
}
);
width = 1065.56;
}
);
leftKerningGroup = U;
rightKerningGroup = U;
unicode = 0172;
},
{
color = 6;
glyphname = V;
layers = (
{
anchors = (
{
name = bottom;
position = "{358, 0}";
},
{
name = top;
position = "{358, 700}";
}
);
layerId = "5A878C7E-547A-4951-B48F-676DBBC9B762";
paths = (
{
closed = 1;
nodes = (
"409 0 LINE",
"691 700 LINE",
"565 700 LINE",
"410 275 LINE SMOOTH",
"380.667 196.333 OFFCURVE",
"364.333 146 OFFCURVE",
"351 98 CURVE",
"377 99 LINE",
"362.333 145.667 OFFCURVE",
"346 192.333 OFFCURVE",
"314 275 CURVE SMOOTH",
"147 700 LINE",
"24 700 LINE",
"304 0 LINE"
);
}
);
width = 715;
},
{
anchors = (
{
name = bottom;
position = "{476, 0}";
},
{
name = top;
position = "{476, 700}";
}
);
layerId = "649E0662-786D-44F6-8E8D-A6782F19FFAA";
paths = (
{
closed = 1;
nodes = (
"545 0 LINE",
"860 700 LINE",
"733 700 LINE",
"560 281 LINE SMOOTH",
"536 223 OFFCURVE",
"489 120 OFFCURVE",
"467 60 CURVE",
"499 61 LINE",
"477 127 OFFCURVE",
"418 246 OFFCURVE",
"401 283 CURVE SMOOTH",
"214 700 LINE",
"92 700 LINE",
"415 0 LINE"
);
}
);
width = 952;
},
{
anchors = (
{
name = bottom;
position = "{315, 0}";
},
{
name = top;
position = "{315, 700}";
}
);
layerId = "E41BA830-E06B-4916-8D61-039D08A6FFE2";
paths = (
{
closed = 1;
nodes = (
"337 0 LINE",
"609 700 LINE",
"559 700 LINE",
"341 121 LINE SMOOTH",
"324 74 OFFCURVE",
"313 45 OFFCURVE",
"308 29 CURVE",
"324 29 LINE",
"318 45 OFFCURVE",
"308 74 OFFCURVE",
"290 122 CURVE SMOOTH",
"69 700 LINE",
"21 700 LINE",
"291 0 LINE"
);
}
);
width = 629.81396;
},
{
anchors = (
{
name = bottom;
position = "{456, 0}";
},
{
name = top;
position = "{456, 700}";
}
);
layerId = "60FFA52A-095B-47EE-98E9-9B5B7A5F3F54";
paths = (
{
closed = 1;
nodes = (
"484 0 LINE",
"822 700 LINE",
"774 701 LINE",
"521 170 LINE SMOOTH",
"500 126 OFFCURVE",
"476 75 OFFCURVE",
"450 21 CURVE",
"465 21 LINE",
"454 48 OFFCURVE",
"432 92 OFFCURVE",
"393 172 CURVE SMOOTH",
"137 701 LINE",
"90 700 LINE",
"430 0 LINE"
);
}
);
width = 912.09302;
},
{
anchors = (
{
name = bottom;
position = "{357, 0}";
},
{
name = top;
position = "{357, 700}";
}
);
layerId = "CC139F8F-4E38-4355-A9C7-97F3CAE4F8B4";
paths = (
{
closed = 1;
nodes = (
"424 0 LINE",
"705 700 LINE",
"539 700 LINE",
"405 333 LINE SMOOTH",
"375 253 OFFCURVE",
"362 216 OFFCURVE",
"346 150 CURVE",
"376 150 LINE",
"359 215 OFFCURVE",
"347 251 OFFCURVE",
"316 333 CURVE SMOOTH",
"176 700 LINE",
"7 700 LINE",
"287 0 LINE"
);
}
);
width = 712.55;
},
{
anchors = (
{
name = bottom;
position = "{475, 0}";
},
{
name = top;
position = "{475, 700}";
}
);
layerId = "7CDCAA7C-A29A-47F9-8FBC-7C0A555C33C4";
paths = (
{
closed = 1;
nodes = (
"560 0 LINE",
"874 700 LINE",
"707 700 LINE",
"555 339 LINE SMOOTH",
"530 279 OFFCURVE",
"487 190 OFFCURVE",
"462 112 CURVE",
"498 112 LINE",
"474 197 OFFCURVE",
"419 304 OFFCURVE",
"403 341 CURVE SMOOTH",
"243 700 LINE",
"75 700 LINE",
"398 0 LINE"
);
}
);
width = 949.55;
}
);
leftKerningGroup = V;
rightKerningGroup = V;
unicode = 0056;
},
{
color = 6;
glyphname = W;
layers = (
{
anchors = (
{
name = bottom;
position = "{498, 0}";
},
{
name = top;
position = "{498, 700}";
}
);
layerId = "5A878C7E-547A-4951-B48F-676DBBC9B762";
paths = (
{
closed = 1;
nodes = (
"320 0 LINE",
"498 434 LINE",
"489 438 LINE",
"674 0 LINE",
"749 0 LINE",
"972 700 LINE",
"856 700 LINE",
"723 265 LINE SMOOTH",
"696 177 OFFCURVE",
"705 203 OFFCURVE",
"688 112 CURVE",
"714 119 LINE",
"700 171 OFFCURVE",
"690 214 OFFCURVE",
"670 263 CURVE SMOOTH",
"548 579 LINE",
"451 579 LINE",
"325 263 LINE SMOOTH",
"316.809 241.939 OFFCURVE",
"308.257 215.047 OFFCURVE",
"279 110 CURVE",
"308 109 LINE",
"301 140 OFFCURVE",
"289 218 OFFCURVE",
"274 262 CURVE SMOOTH",
"139 700 LINE",
"24 700 LINE",
"247 0 LINE"
);
}
);
width = 996;
},
{
anchors = (
{
name = bottom;
position = "{638, 0}";
},
{
name = top;
position = "{638, 700}";
}
);
layerId = "649E0662-786D-44F6-8E8D-A6782F19FFAA";
paths = (
{
closed = 1;
nodes = (
"433 0 LINE",
"637 467 LINE",
"618 471 LINE",
"821 0 LINE",
"896 0 LINE",
"1184 700 LINE",
"1068 700 LINE",
"904 296 LINE SMOOTH",
"879 236 OFFCURVE",
"856 157 OFFCURVE",
"840 102 CURVE",
"880 109 LINE",
"867 160 OFFCURVE",
"834 234 OFFCURVE",
"809 291 CURVE SMOOTH",
"684 579 LINE",
"580 579 LINE",
"451 289 LINE SMOOTH",
"424 229 OFFCURVE",
"394 153 OFFCURVE",
"375 100 CURVE",
"419 99 LINE",
"403 152 OFFCURVE",
"380 229 OFFCURVE",
"359 289 CURVE SMOOTH",
"211 700 LINE",
"92 700 LINE",
"350 0 LINE"
);
}
);
width = 1276;
},
{
anchors = (
{
name = bottom;
position = "{442, 0}";
},
{
name = top;
position = "{442, 700}";
}
);
layerId = "E41BA830-E06B-4916-8D61-039D08A6FFE2";
paths = (
{
closed = 1;
nodes = (
"260 0 LINE",
"449 484 LINE",
"432 485 LINE",
"623 0 LINE",
"660 0 LINE",
"862 700 LINE",
"817 700 LINE",
"677 210 LINE SMOOTH",
"647 105 OFFCURVE",
"658 142 OFFCURVE",
"630 37 CURVE",
"646 39 LINE",
"600 158 OFFCURVE",
"590 187 OFFCURVE",
"579 216 CURVE SMOOTH",
"459 533 LINE",
"425 533 LINE",
"304 216 LINE SMOOTH",
"288 176 OFFCURVE",
"274 136 OFFCURVE",
"237 37 CURVE",
"253 37 LINE",
"233 105 OFFCURVE",
"227 137 OFFCURVE",
"206 209 CURVE SMOOTH",
"66 700 LINE",
"21 700 LINE",
"223 0 LINE"
);
}
);
userData = {
com.schriftgestaltung.Glyphs.glyph.leftMetricsKey = V;
com.schriftgestaltung.Glyphs.glyph.rightMetricsKey = V;
};
width = 883.18604;
},
{
anchors = (
{
name = bottom;
position = "{584, 0}";
},
{
name = top;
position = "{584, 700}";
}
);
layerId = "60FFA52A-095B-47EE-98E9-9B5B7A5F3F54";
paths = (
{
closed = 1;
nodes = (
"375 0 LINE",
"583 505 LINE",
"569 506 LINE",
"772 0 LINE",
"808 0 LINE",
"1076 700 LINE",
"1030 700 LINE",
"855 241 LINE SMOOTH",
"831 178 OFFCURVE",
"813 125 OFFCURVE",
"780 31 CURVE",
"800 33 LINE",
"791 59 OFFCURVE",
"773 102 OFFCURVE",
"755 151 CURVE SMOOTH",
"595 550 LINE",
"559 550 LINE",
"433 242 LINE SMOOTH",
"406 180 OFFCURVE",
"387 132 OFFCURVE",
"347 31 CURVE",
"361 31 LINE",
"335 112 OFFCURVE",
"320 153 OFFCURVE",
"293 236 CURVE SMOOTH",
"137 700 LINE",
"90 700 LINE",
"330 0 LINE"
);
}
);
userData = {
com.schriftgestaltung.Glyphs.glyph.leftMetricsKey = V;
com.schriftgestaltung.Glyphs.glyph.rightMetricsKey = V;
};
width = 1166.25581;
},
{
anchors = (
{
name = bottom;
position = "{497, 0}";
},
{
name = top;
position = "{497, 700}";
}
);
layerId = "CC139F8F-4E38-4355-A9C7-97F3CAE4F8B4";
paths = (
{
closed = 1;
nodes = (
"344 0 LINE",
"501 406 LINE",
"483 408 LINE",
"652 0 LINE",
"774 0 LINE",
"986 700 LINE",
"824 700 LINE",
"716 323 LINE SMOOTH",
"692 238 OFFCURVE",
"698 218 OFFCURVE",
"689 152 CURVE",
"710 156 LINE",
"702 208 OFFCURVE",
"693 258 OFFCURVE",
"669 322 CURVE SMOOTH",
"564 604 LINE",
"434 604 LINE",
"327 322 LINE SMOOTH",
"309 272 OFFCURVE",
"304 230 OFFCURVE",
"289 151 CURVE",
"312 151 LINE",
"308 185 OFFCURVE",
"299 259 OFFCURVE",
"281 322 CURVE SMOOTH",
"172 700 LINE",
"7 700 LINE",
"219 0 LINE"
);
}
);
width = 994;
},
{
anchors = (
{
name = bottom;
position = "{637, 0}";
},
{
name = top;
position = "{637, 700}";
}
);
layerId = "7CDCAA7C-A29A-47F9-8FBC-7C0A555C33C4";
paths = (
{
closed = 1;
nodes = (
"457 0 LINE",
"640 439 LINE",
"612 441 LINE",
"799 0 LINE",
"921 0 LINE",
"1198 700 LINE",
"1036 700 LINE",
"897 354 LINE SMOOTH",
"875 297 OFFCURVE",
"850 195 OFFCURVE",
"841 142 CURVE",
"876 146 LINE",
"868 197 OFFCURVE",
"837 278 OFFCURVE",
"808 350 CURVE SMOOTH",
"700 604 LINE",
"563 604 LINE",
"453 348 LINE SMOOTH",
"422 276 OFFCURVE",
"395 193 OFFCURVE",
"385 141 CURVE",
"423 141 LINE",
"414 193 OFFCURVE",
"384 294 OFFCURVE",
"366 349 CURVE SMOOTH",
"244 700 LINE",
"75 700 LINE",
"322 0 LINE"
);
}
);
width = 1274;
}
);
leftKerningGroup = W;
leftMetricsKey = V;
rightKerningGroup = W;
rightMetricsKey = V;
unicode = 0057;
},
{
color = 6;
glyphname = X;
layers = (
{
anchors = (
{
name = bottom;
position = "{343, 0}";
},
{
name = top;
position = "{343, 700}";
}
);
layerId = "5A878C7E-547A-4951-B48F-676DBBC9B762";
paths = (
{
closed = 1;
nodes = (
"661 0 LINE",
"378 390 LINE",
"166 700 LINE",
"29 700 LINE",
"307 314 LINE",
"524 0 LINE"
);
},
{
closed = 1;
nodes = (
"151 0 LINE",
"358 302 LINE",
"291 381 LINE",
"24 0 LINE"
);
},
{
closed = 1;
nodes = (
"651 700 LINE",
"524 700 LINE",
"328 401 LINE",
"394 325 LINE"
);
}
);
width = 685;
},
{
anchors = (
{
name = bottom;
position = "{481, 0}";
},
{
name = top;
position = "{481, 700}";
}
);
layerId = "649E0662-786D-44F6-8E8D-A6782F19FFAA";
paths = (
{
closed = 1;
nodes = (
"870 0 LINE",
"511 397 LINE",
"244 700 LINE",
"97 700 LINE",
"444 316 LINE",
"722 0 LINE"
);
},
{
closed = 1;
nodes = (
"233 0 LINE",
"486 302 LINE",
"425 381 LINE",
"92 0 LINE"
);
},
{
closed = 1;
nodes = (
"859 700 LINE",
"717 700 LINE",
"476 401 LINE",
"535 325 LINE"
);
}
);
width = 962;
},
{
anchors = (
{
name = bottom;
position = "{304, 0}";
},
{
name = top;
position = "{304, 700}";
}
);
layerId = "E41BA830-E06B-4916-8D61-039D08A6FFE2";
paths = (
{
closed = 1;
nodes = (
"585 0 LINE",
"314 372 LINE",
"82 700 LINE",
"27 700 LINE",
"287 341 LINE",
"531 0 LINE"
);
},
{
closed = 1;
nodes = (
"73 0 LINE",
"311 339 LINE",
"283 367 LINE",
"22 0 LINE"
);
},
{
closed = 1;
nodes = (
"575 700 LINE",
"524 700 LINE",
"293 374 LINE",
"321 345 LINE"
);
}
);
width = 607.48837;
},
{
anchors = (
{
name = bottom;
position = "{443, 0}";
},
{
name = top;
position = "{443, 700}";
}
);
layerId = "60FFA52A-095B-47EE-98E9-9B5B7A5F3F54";
paths = (
{
closed = 1;
nodes = (
"794 0 LINE",
"450 376 LINE",
"154 700 LINE",
"98 700 LINE",
"424 344 LINE",
"737 0 LINE"
);
},
{
closed = 1;
nodes = (
"146 0 LINE",
"445 339 LINE",
"418 369 LINE",
"90 0 LINE"
);
},
{
closed = 1;
nodes = (
"781 700 LINE",
"725 700 LINE",
"431 376 LINE",
"457 346 LINE"
);
}
);
width = 884.48837;
},
{
anchors = (
{
name = bottom;
position = "{351, 0}";
},
{
name = top;
position = "{351, 700}";
}
);
layerId = "CC139F8F-4E38-4355-A9C7-97F3CAE4F8B4";
paths = (
{
closed = 1;
nodes = (
"699 0 LINE",
"416 390 LINE",
"204 700 LINE",
"7 700 LINE",
"285 314 LINE",
"502 0 LINE"
);
},
{
closed = 1;
nodes = (
"189 0 LINE",
"396 302 LINE",
"269 381 LINE",
"2 0 LINE"
);
},
{
closed = 1;
nodes = (
"689 700 LINE",
"502 700 LINE",
"306 401 LINE",
"432 325 LINE"
);
}
);
width = 701.66;
},
{
anchors = (
{
name = bottom;
position = "{489, 0}";
},
{
name = top;
position = "{489, 700}";
}
);
layerId = "7CDCAA7C-A29A-47F9-8FBC-7C0A555C33C4";
paths = (
{
closed = 1;
nodes = (
"908 0 LINE",
"549 397 LINE",
"282 700 LINE",
"75 700 LINE",
"422 316 LINE",
"700 0 LINE"
);
},
{
closed = 1;
nodes = (
"271 0 LINE",
"524 302 LINE",
"403 381 LINE",
"70 0 LINE"
);
},
{
closed = 1;
nodes = (
"897 700 LINE",
"695 700 LINE",
"454 401 LINE",
"573 325 LINE"
);
}
);
width = 978.66;
}
);
leftKerningGroup = X;
rightKerningGroup = X;
unicode = 0058;
},
{
color = 6;
glyphname = Y;
layers = (
{
anchors = (
{
name = bottom;
position = "{330, 0}";
},
{
name = top;
position = "{330, 700}";
},
{
name = topleft;
position = "{20, 700}";
}
);
layerId = "5A878C7E-547A-4951-B48F-676DBBC9B762";
paths = (
{
closed = 1;
nodes = (
"394 0 LINE",
"394 357 LINE",
"379 289 LINE",
"650 700 LINE",
"526 700 LINE",
"331 393 LINE",
"356 390 LINE",
"140 700 LINE",
"10 700 LINE",
"293 300 LINE",
"286 349 LINE",
"286 0 LINE"
);
}
);
width = 660;
},
{
anchors = (
{
name = bottom;
position = "{480, 0}";
},
{
name = top;
position = "{480, 700}";
},
{
name = topleft;
position = "{90, 700}";
}
);
layerId = "649E0662-786D-44F6-8E8D-A6782F19FFAA";
paths = (
{
closed = 1;
nodes = (
"544 0 LINE",
"544 321 LINE",
"539 263 LINE",
"880 700 LINE",
"746 700 LINE",
"480 347 LINE",
"503 347 LINE",
"230 700 LINE",
"80 700 LINE",
"456 236 LINE",
"436 313 LINE",
"436 0 LINE"
);
}
);
width = 960;
},
{
anchors = (
{
name = bottom;
position = "{304, 0}";
},
{
name = top;
position = "{304, 700}";
},
{
name = topleft;
position = "{20, 700}";
}
);
layerId = "E41BA830-E06B-4916-8D61-039D08A6FFE2";
paths = (
{
closed = 1;
nodes = (
"330 0 LINE",
"330 343 LINE",
"320 298 LINE",
"590 700 LINE",
"542 700 LINE",
"303 343 LINE",
"317 341 LINE",
"68 700 LINE",
"18 700 LINE",
"296 300 LINE",
"288 341 LINE",
"288 0 LINE"
);
}
);
width = 607.81396;
},
{
anchors = (
{
name = bottom;
position = "{454, 0}";
},
{
name = top;
position = "{454, 700}";
},
{
name = topleft;
position = "{90, 700}";
}
);
layerId = "60FFA52A-095B-47EE-98E9-9B5B7A5F3F54";
paths = (
{
closed = 1;
nodes = (
"480 0 LINE",
"480 286 LINE",
"472 257 LINE",
"820 700 LINE",
"767 700 LINE",
"454 296 LINE",
"465 296 LINE",
"144 700 LINE",
"88 700 LINE",
"449 251 LINE",
"438 285 LINE",
"438 0 LINE"
);
}
);
width = 907.81395;
},
{
anchors = (
{
name = bottom;
position = "{342, 0}";
},
{
name = top;
position = "{342, 700}";
},
{
name = topleft;
position = "{20, 700}";
}
);
layerId = "CC139F8F-4E38-4355-A9C7-97F3CAE4F8B4";
paths = (
{
closed = 1;
nodes = (
"433 0 LINE",
"433 357 LINE",
"418 289 LINE",
"689 700 LINE",
"511 700 LINE",
"316 393 LINE",
"395 390 LINE",
"179 700 LINE",
"-5 700 LINE",
"278 300 LINE",
"271 349 LINE",
"271 0 LINE"
);
}
);
width = 684.5;
},
{
anchors = (
{
name = bottom;
position = "{492, 0}";
},
{
name = top;
position = "{492, 700}";
},
{
name = topleft;
position = "{90, 700}";
}
);
layerId = "7CDCAA7C-A29A-47F9-8FBC-7C0A555C33C4";
paths = (
{
closed = 1;
nodes = (
"583 0 LINE",
"583 321 LINE",
"578 263 LINE",
"919 700 LINE",
"731 700 LINE",
"465 347 LINE",
"542 347 LINE",
"269 700 LINE",
"65 700 LINE",
"441 236 LINE",
"421 313 LINE",
"421 0 LINE"
);
}
);
width = 984.5;
}
);
leftKerningGroup = Y;
rightKerningGroup = Y;
unicode = 0059;
},
{
color = 6;
glyphname = Z;
layers = (
{
anchors = (
{
name = bottom;
position = "{330, 0}";
},
{
name = center;
position = "{330, 350}";
},
{
name = top;
position = "{330, 700}";
}
);
layerId = "5A878C7E-547A-4951-B48F-676DBBC9B762";
paths = (
{
closed = 1;
nodes = (
"604 0 LINE",
"604 104 LINE",
"180 104 LINE",
"196 87 LINE",
"593 622 LINE",
"593 700 LINE",
"86 700 LINE",
"86 596 LINE",
"474 596 LINE",
"459 613 LINE",
"60 79 LINE",
"60 0 LINE"
);
}
);
width = 659;
},
{
anchors = (
{
name = bottom;
position = "{440, 0}";
},
{
name = center;
position = "{440, 350}";
},
{
name = top;
position = "{440, 700}";
}
);
layerId = "649E0662-786D-44F6-8E8D-A6782F19FFAA";
paths = (
{
closed = 1;
nodes = (
"784 0 LINE",
"784 106 LINE",
"220 106 LINE",
"258 87 LINE",
"773 622 LINE",
"773 700 LINE",
"126 700 LINE",
"126 594 LINE",
"654 594 LINE",
"615 613 LINE",
"100 79 LINE",
"100 0 LINE"
);
}
);
width = 884;
},
{
anchors = (
{
name = bottom;
position = "{320, 0}";
},
{
name = center;
position = "{320, 350}";
},
{
name = top;
position = "{320, 700}";
}
);
layerId = "E41BA830-E06B-4916-8D61-039D08A6FFE2";
paths = (
{
closed = 1;
nodes = (
"581 0 LINE",
"581 41 LINE",
"99 41 LINE",
"106 28 LINE",
"570 665 LINE",
"570 700 LINE",
"86 700 LINE",
"86 659 LINE",
"538 659 LINE",
"525 673 LINE",
"60 36 LINE",
"60 0 LINE"
);
}
);
width = 639.81396;
},
{
anchors = (
{
name = bottom;
position = "{430, 0}";
},
{
name = center;
position = "{430, 350}";
},
{
name = top;
position = "{430, 700}";
}
);
layerId = "60FFA52A-095B-47EE-98E9-9B5B7A5F3F54";
paths = (
{
closed = 1;
nodes = (
"761 0 LINE",
"761 42 LINE",
"144 42 LINE",
"150 28 LINE",
"750 664 LINE",
"750 700 LINE",
"126 700 LINE",
"126 658 LINE",
"707 658 LINE",
"701 674 LINE",
"100 37 LINE",
"100 0 LINE"
);
}
);
width = 864.81395;
},
{
anchors = (
{
name = bottom;
position = "{340, 0}";
},
{
name = center;
position = "{340, 350}";
},
{
name = top;
position = "{340, 700}";
}
);
layerId = "CC139F8F-4E38-4355-A9C7-97F3CAE4F8B4";
paths = (
{
closed = 1;
nodes = (
"622 0 LINE",
"622 142 LINE",
"180 142 LINE",
"234 87 LINE",
"611 593 LINE",
"611 700 LINE",
"86 700 LINE",
"86 552 LINE",
"492 552 LINE",
"439 613 LINE",
"60 108 LINE",
"60 0 LINE"
);
}
);
width = 679.58;
},
{
anchors = (
{
name = bottom;
position = "{450, 0}";
},
{
name = center;
position = "{450, 350}";
},
{
name = top;
position = "{450, 700}";
}
);
layerId = "7CDCAA7C-A29A-47F9-8FBC-7C0A555C33C4";
paths = (
{
closed = 1;
nodes = (
"802 0 LINE",
"802 144 LINE",
"220 144 LINE",
"296 87 LINE",
"791 593 LINE",
"791 700 LINE",
"126 700 LINE",
"126 550 LINE",
"672 550 LINE",
"595 613 LINE",
"100 108 LINE",
"100 0 LINE"
);
}
);
width = 904.58;
}
);
leftKerningGroup = Z;
rightKerningGroup = Z;
unicode = 005A;
},
{
color = 6;
glyphname = I.ss01;
layers = (
{
anchors = (
{
name = bottom;
position = "{154, 0}";
},
{
name = ogonek;
position = "{208, 0}";
},
{
name = top;
position = "{154, 700}";
},
{
name = topleft;
position = "{20, 700}";
}
);
layerId = "5A878C7E-547A-4951-B48F-676DBBC9B762";
paths = (
{
closed = 1;
nodes = (
"208 0 LINE",
"208 700 LINE",
"190 700 OFFCURVE",
"172 700 OFFCURVE",
"154 700 CURVE SMOOTH",
"100 700 LINE",
"100 0 LINE"
);
}
);
width = 308;
},
{
anchors = (
{
name = bottom;
position = "{246, 0}";
},
{
name = ogonek;
position = "{300, 0}";
},
{
name = top;
position = "{246, 700}";
},
{
name = topleft;
position = "{112, 700}";
}
);
layerId = "649E0662-786D-44F6-8E8D-A6782F19FFAA";
paths = (
{
closed = 1;
nodes = (
"300 0 LINE",
"300 700 LINE",
"299 700 OFFCURVE",
"281 700 OFFCURVE",
"246 700 CURVE SMOOTH",
"192 700 LINE",
"192 0 LINE"
);
}
);
width = 492;
},
{
anchors = (
{
name = bottom;
position = "{154, 0}";
},
{
name = ogonek;
position = "{175, 0}";
},
{
name = top;
position = "{154, 700}";
},
{
name = topleft;
position = "{20, 700}";
}
);
layerId = "E41BA830-E06B-4916-8D61-039D08A6FFE2";
paths = (
{
closed = 1;
nodes = (
"175 0 LINE",
"175 700 LINE",
"168 700 OFFCURVE",
"160 700 OFFCURVE",
"154 700 CURVE SMOOTH",
"133 700 LINE",
"133 0 LINE"
);
}
);
width = 308;
},
{
anchors = (
{
name = bottom;
position = "{246, 0}";
},
{
name = ogonek;
position = "{267, 0}";
},
{
name = top;
position = "{246, 700}";
},
{
name = topleft;
position = "{106, 700}";
}
);
layerId = "60FFA52A-095B-47EE-98E9-9B5B7A5F3F54";
paths = (
{
closed = 1;
nodes = (
"267 0 LINE",
"267 700 LINE",
"277 700 OFFCURVE",
"270 700 OFFCURVE",
"246 700 CURVE SMOOTH",
"226 700 LINE",
"226 0 LINE"
);
}
);
width = 492;
},
{
anchors = (
{
name = bottom;
position = "{171, 0}";
},
{
name = ogonek;
position = "{237, 0}";
},
{
name = top;
position = "{171, 700}";
},
{
name = topleft;
position = "{20, 700}";
}
);
layerId = "CC139F8F-4E38-4355-A9C7-97F3CAE4F8B4";
paths = (
{
closed = 1;
nodes = (
"251 0 LINE",
"251 700 LINE",
"224 700 OFFCURVE",
"197 700 OFFCURVE",
"171 700 CURVE SMOOTH",
"90 700 LINE",
"90 0 LINE"
);
}
);
width = 341.32;
},
{
anchors = (
{
name = bottom;
position = "{263, 0}";
},
{
name = ogonek;
position = "{329, 0}";
},
{
name = top;
position = "{263, 700}";
},
{
name = topleft;
position = "{112, 700}";
}
);
layerId = "7CDCAA7C-A29A-47F9-8FBC-7C0A555C33C4";
paths = (
{
closed = 1;
nodes = (
"343 0 LINE",
"343 700 LINE",
"333 700 OFFCURVE",
"306 700 OFFCURVE",
"263 700 CURVE SMOOTH",
"182 700 LINE",
"182 0 LINE"
);
}
);
width = 525.32;
}
);
leftKerningGroup = H;
rightKerningGroup = H;
},
{
color = 6;
glyphname = J.ss01;
layers = (
{
anchors = (
{
name = bottom;
position = "{291, 0}";
},
{
name = top;
position = "{431, 700}";
}
);
layerId = "5A878C7E-547A-4951-B48F-676DBBC9B762";
paths = (
{
closed = 1;
nodes = (
"390.667 -10 OFFCURVE",
"484 86.333 OFFCURVE",
"484 213 CURVE SMOOTH",
"484 700 LINE",
"376 700 LINE",
"376 223 LINE SMOOTH",
"376 148.333 OFFCURVE",
"328 95 OFFCURVE",
"256 95 CURVE SMOOTH",
"206.667 95 OFFCURVE",
"175.333 109.333 OFFCURVE",
"118 188 CURVE",
"50 117 LINE",
"88.667 41 OFFCURVE",
"165.333 -10 OFFCURVE",
"256 -10 CURVE SMOOTH"
);
}
);
width = 582;
},
{
anchors = (
{
name = bottom;
position = "{436, 0}";
},
{
name = top;
position = "{646, 700}";
}
);
layerId = "649E0662-786D-44F6-8E8D-A6782F19FFAA";
paths = (
{
closed = 1;
nodes = (
"592 -10 OFFCURVE",
"699 129 OFFCURVE",
"699 273 CURVE SMOOTH",
"699 700 LINE",
"591 700 LINE",
"591 283 LINE SMOOTH",
"591 176 OFFCURVE",
"518 90 OFFCURVE",
"401 90 CURVE SMOOTH",
"296 90 OFFCURVE",
"246 156 OFFCURVE",
"197 223 CURVE",
"125 147 LINE",
"146 110 OFFCURVE",
"230 -10 OFFCURVE",
"401 -10 CURVE SMOOTH"
);
}
);
width = 881;
},
{
anchors = (
{
name = bottom;
position = "{265, 0}";
},
{
name = top;
position = "{401, 700}";
}
);
layerId = "E41BA830-E06B-4916-8D61-039D08A6FFE2";
paths = (
{
closed = 1;
nodes = (
"339 -10 OFFCURVE",
"422 65 OFFCURVE",
"422 213 CURVE SMOOTH",
"422 700 LINE",
"380 700 LINE",
"380 215 LINE SMOOTH",
"380 90 OFFCURVE",
"315 31 OFFCURVE",
"221 31 CURVE SMOOTH",
"149 31 OFFCURVE",
"97 64 OFFCURVE",
"55 147 CURVE",
"27 119 LINE",
"61 40 OFFCURVE",
"128 -10 OFFCURVE",
"220 -10 CURVE SMOOTH"
);
}
);
userData = {
com.schriftgestaltung.Glyphs.glyph.rightMetricsKey = H;
};
width = 529.81396;
},
{
anchors = (
{
name = bottom;
position = "{414, 0}";
},
{
name = top;
position = "{616, 700}";
}
);
layerId = "60FFA52A-095B-47EE-98E9-9B5B7A5F3F54";
paths = (
{
closed = 1;
nodes = (
"538 -10 OFFCURVE",
"637 102 OFFCURVE",
"637 273 CURVE SMOOTH",
"637 700 LINE",
"595 700 LINE",
"595 275 LINE SMOOTH",
"595 121 OFFCURVE",
"503 31 OFFCURVE",
"366 31 CURVE SMOOTH",
"261 31 OFFCURVE",
"181 98 OFFCURVE",
"141 180 CURVE",
"110 149 LINE",
"141 77 OFFCURVE",
"235 -10 OFFCURVE",
"365 -10 CURVE SMOOTH"
);
}
);
userData = {
com.schriftgestaltung.Glyphs.glyph.rightMetricsKey = H;
};
width = 828.81395;
},
{
anchors = (
{
name = bottom;
position = "{289, 0}";
},
{
name = top;
position = "{411, 700}";
}
);
layerId = "CC139F8F-4E38-4355-A9C7-97F3CAE4F8B4";
paths = (
{
closed = 1;
nodes = (
"393 -10 OFFCURVE",
"489 78 OFFCURVE",
"489 213 CURVE SMOOTH",
"489 700 LINE",
"332 700 LINE",
"332 229 LINE SMOOTH",
"332 172 OFFCURVE",
"294 134 OFFCURVE",
"242 134 CURVE SMOOTH",
"200 134 OFFCURVE",
"171 151 OFFCURVE",
"131 207 CURVE",
"35 109 LINE",
"72 39 OFFCURVE",
"149 -10 OFFCURVE",
"254 -10 CURVE SMOOTH"
);
}
);
width = 578.08;
},
{
anchors = (
{
name = bottom;
position = "{434, 0}";
},
{
name = top;
position = "{626, 700}";
}
);
layerId = "7CDCAA7C-A29A-47F9-8FBC-7C0A555C33C4";
paths = (
{
closed = 1;
nodes = (
"594 -10 OFFCURVE",
"704 121 OFFCURVE",
"704 273 CURVE SMOOTH",
"704 700 LINE",
"547 700 LINE",
"547 289 LINE SMOOTH",
"547 200 OFFCURVE",
"484 129 OFFCURVE",
"387 129 CURVE SMOOTH",
"289 129 OFFCURVE",
"242 198 OFFCURVE",
"210 242 CURVE",
"110 139 LINE",
"129 108 OFFCURVE",
"213 -10 OFFCURVE",
"399 -10 CURVE SMOOTH"
);
}
);
width = 877.08;
}
);
leftKerningGroup = J;
rightKerningGroup = J;
rightMetricsKey = H;
},
{
color = 6;
glyphname = a;
layers = (
{
anchors = (
{
name = bottom;
position = "{267, 0}";
},
{
name = ogonek;
position = "{476, 0}";
},
{
name = top;
position = "{267, 525}";
}
);
layerId = "5A878C7E-547A-4951-B48F-676DBBC9B762";
paths = (
{
closed = 1;
nodes = (
"476 0 LINE",
"476 364 LINE SMOOTH",
"476 473.333 OFFCURVE",
"400 536 OFFCURVE",
"280 536 CURVE SMOOTH",
"196 536 OFFCURVE",
"123.667 503 OFFCURVE",
"61 435 CURVE",
"128 368 LINE",
"166.667 417.333 OFFCURVE",
"213.333 441 OFFCURVE",
"272 441 CURVE SMOOTH",
"336 441 OFFCURVE",
"383 400.667 OFFCURVE",
"383 342 CURVE SMOOTH",
"383 0 LINE"
);
},
{
closed = 1;
nodes = (
"303.333 -10 OFFCURVE",
"377.333 37.667 OFFCURVE",
"420 107 CURVE",
"396 174 LINE",
"368 119.333 OFFCURVE",
"302 78 OFFCURVE",
"230 78 CURVE SMOOTH",
"180.667 78 OFFCURVE",
"145 107 OFFCURVE",
"145 151 CURVE SMOOTH",
"145 205.667 OFFCURVE",
"189.667 237 OFFCURVE",
"271 237 CURVE SMOOTH",
"421 237 LINE",
"430 319 LINE",
"284 319 LINE SMOOTH",
"128 319 OFFCURVE",
"48 261 OFFCURVE",
"48 149 CURVE SMOOTH",
"48 53 OFFCURVE",
"124.667 -10 OFFCURVE",
"226 -10 CURVE SMOOTH"
);
}
);
width = 534;
},
{
anchors = (
{
name = bottom;
position = "{449, 0}";
},
{
name = ogonek;
position = "{758, 0}";
},
{
name = top;
position = "{449, 525}";
}
);
layerId = "649E0662-786D-44F6-8E8D-A6782F19FFAA";
paths = (
{
closed = 1;
nodes = (
"758 0 LINE",
"758 304 LINE SMOOTH",
"758 473 OFFCURVE",
"628 536 OFFCURVE",
"432 536 CURVE SMOOTH",
"316 536 OFFCURVE",
"221 496 OFFCURVE",
"149 445 CURVE",
"206 374 LINE",
"269 423 OFFCURVE",
"357 442 OFFCURVE",
"430 442 CURVE SMOOTH",
"579 442 OFFCURVE",
"665 394 OFFCURVE",
"665 282 CURVE SMOOTH",
"665 0 LINE"
);
},
{
closed = 1;
nodes = (
"517 -10 OFFCURVE",
"649 51 OFFCURVE",
"702 107 CURVE",
"678 174 LINE",
"630 125 OFFCURVE",
"509 78 OFFCURVE",
"392 78 CURVE SMOOTH",
"285 78 OFFCURVE",
"227 103 OFFCURVE",
"227 161 CURVE SMOOTH",
"227 220 OFFCURVE",
"304 237 OFFCURVE",
"453 237 CURVE SMOOTH",
"703 237 LINE",
"712 319 LINE",
"444 319 LINE SMOOTH",
"277 319 OFFCURVE",
"130 292 OFFCURVE",
"130 149 CURVE SMOOTH",
"130 40 OFFCURVE",
"256 -10 OFFCURVE",
"388 -10 CURVE SMOOTH"
);
}
);
width = 968;
},
{
anchors = (
{
name = bottom;
position = "{269, 0}";
},
{
name = ogonek;
position = "{467, 0}";
},
{
name = top;
position = "{269, 525}";
}
);
layerId = "E41BA830-E06B-4916-8D61-039D08A6FFE2";
paths = (
{
closed = 1;
nodes = (
"467 0 LINE",
"467 364 LINE SMOOTH",
"467 470 OFFCURVE",
"394 531 OFFCURVE",
"274 531 CURVE SMOOTH",
"190 531 OFFCURVE",
"119 497 OFFCURVE",
"64 431 CURVE",
"92 403 LINE",
"137 461 OFFCURVE",
"199 492 OFFCURVE",
"271 492 CURVE SMOOTH",
"370 492 OFFCURVE",
"429 441 OFFCURVE",
"429 361 CURVE SMOOTH",
"429 0 LINE"
);
},
{
closed = 1;
nodes = (
"320 -10 OFFCURVE",
"404 51 OFFCURVE",
"451 137 CURVE",
"435 161 LINE",
"395 82 OFFCURVE",
"314 28 OFFCURVE",
"221 28 CURVE SMOOTH",
"145 28 OFFCURVE",
"81 77 OFFCURVE",
"81 149 CURVE SMOOTH",
"81 220 OFFCURVE",
"141 258 OFFCURVE",
"247 258 CURVE SMOOTH",
"443 258 LINE",
"446 295 LINE",
"255 295 LINE SMOOTH",
"114 295 OFFCURVE",
"42 243 OFFCURVE",
"42 149 CURVE SMOOTH",
"42 53 OFFCURVE",
"118 -10 OFFCURVE",
"220 -10 CURVE SMOOTH"
);
}
);
width = 536.30232;
},
{
anchors = (
{
name = bottom;
position = "{451, 0}";
},
{
name = ogonek;
position = "{749, 0}";
},
{
name = top;
position = "{451, 525}";
}
);
layerId = "60FFA52A-095B-47EE-98E9-9B5B7A5F3F54";
paths = (
{
closed = 1;
nodes = (
"749 0 LINE",
"749 304 LINE SMOOTH",
"749 470 OFFCURVE",
"634 531 OFFCURVE",
"456 531 CURVE SMOOTH",
"329 531 OFFCURVE",
"231 499 OFFCURVE",
"152 441 CURVE",
"173 412 LINE",
"246 464 OFFCURVE",
"344 493 OFFCURVE",
"445 493 CURVE SMOOTH",
"630 493 OFFCURVE",
"710 434 OFFCURVE",
"710 301 CURVE SMOOTH",
"710 0 LINE"
);
},
{
closed = 1;
nodes = (
"534 -10 OFFCURVE",
"675 63 OFFCURVE",
"733 137 CURVE",
"717 161 LINE",
"657 87 OFFCURVE",
"521 27 OFFCURVE",
"384 27 CURVE SMOOTH",
"252 27 OFFCURVE",
"163 71 OFFCURVE",
"163 152 CURVE SMOOTH",
"163 244 OFFCURVE",
"293 258 OFFCURVE",
"429 258 CURVE SMOOTH",
"725 258 LINE",
"727 294 LINE",
"427 294 LINE SMOOTH",
"278 294 OFFCURVE",
"124 276 OFFCURVE",
"124 149 CURVE SMOOTH",
"124 40 OFFCURVE",
"239 -10 OFFCURVE",
"382 -10 CURVE SMOOTH"
);
}
);
width = 970.30233;
},
{
anchors = (
{
name = bottom;
position = "{281, 0}";
},
{
name = ogonek;
position = "{486, 0}";
},
{
name = top;
position = "{281, 530}";
}
);
layerId = "CC139F8F-4E38-4355-A9C7-97F3CAE4F8B4";
paths = (
{
closed = 1;
nodes = (
"505 0 LINE",
"505 358 LINE SMOOTH",
"505 481 OFFCURVE",
"420 541 OFFCURVE",
"289 541 CURVE SMOOTH",
"192 541 OFFCURVE",
"111 502 OFFCURVE",
"47 437 CURVE",
"138 348 LINE",
"176 393 OFFCURVE",
"216 412 OFFCURVE",
"269 412 CURVE SMOOTH",
"325 412 OFFCURVE",
"359 385 OFFCURVE",
"359 329 CURVE SMOOTH",
"359 0 LINE"
);
},
{
closed = 1;
nodes = (
"293 -10 OFFCURVE",
"364 38 OFFCURVE",
"406 107 CURVE",
"379 177 LINE",
"356 132 OFFCURVE",
"306 103 OFFCURVE",
"251 103 CURVE SMOOTH",
"212 103 OFFCURVE",
"185 124 OFFCURVE",
"185 156 CURVE SMOOTH",
"185 195 OFFCURVE",
"218 217 OFFCURVE",
"277 217 CURVE SMOOTH",
"427 217 LINE",
"436 314 LINE",
"275 314 LINE SMOOTH",
"119 314 OFFCURVE",
"39 258 OFFCURVE",
"39 149 CURVE SMOOTH",
"39 53 OFFCURVE",
"116 -10 OFFCURVE",
"217 -10 CURVE SMOOTH"
);
}
);
width = 561.93;
},
{
anchors = (
{
name = bottom;
position = "{374, 0}";
},
{
name = ogonek;
position = "{630, 0}";
},
{
name = top;
position = "{374, 530}";
}
);
layerId = "7CDCAA7C-A29A-47F9-8FBC-7C0A555C33C4";
paths = (
{
closed = 1;
nodes = (
"649 0 LINE",
"649 328 LINE SMOOTH",
"649 480 OFFCURVE",
"537 541 OFFCURVE",
"367 541 CURVE SMOOTH",
"253 541 OFFCURVE",
"161 498 OFFCURVE",
"92 443 CURVE",
"178 351 LINE",
"228 396 OFFCURVE",
"290 413 OFFCURVE",
"349 413 CURVE SMOOTH",
"449 413 OFFCURVE",
"503 381 OFFCURVE",
"503 298 CURVE SMOOTH",
"503 0 LINE"
);
},
{
closed = 1;
nodes = (
"402 -10 OFFCURVE",
"503 45 OFFCURVE",
"550 107 CURVE",
"523 177 LINE",
"490 135 OFFCURVE",
"412 103 OFFCURVE",
"333 103 CURVE SMOOTH",
"266 103 OFFCURVE",
"227 122 OFFCURVE",
"227 161 CURVE SMOOTH",
"227 202 OFFCURVE",
"276 217 OFFCURVE",
"370 217 CURVE SMOOTH",
"571 217 LINE",
"580 314 LINE",
"357 314 LINE SMOOTH",
"195 314 OFFCURVE",
"81 274 OFFCURVE",
"81 149 CURVE SMOOTH",
"81 46 OFFCURVE",
"183 -10 OFFCURVE",
"300 -10 CURVE SMOOTH"
);
}
);
width = 783.27;
}
);
leftKerningGroup = c;
rightKerningGroup = a;
unicode = 0061;
},
{
color = 6;
glyphname = ae;
layers = (
{
anchors = (
{
name = bottom;
position = "{450, 0}";
},
{
name = top;
position = "{450, 525}";
}
);
layerId = "5A878C7E-547A-4951-B48F-676DBBC9B762";
paths = (
{
closed = 1;
nodes = (
"301.333 -10 OFFCURVE",
"383.333 37.667 OFFCURVE",
"430 107 CURVE",
"386 174 LINE",
"358 119.333 OFFCURVE",
"292 78 OFFCURVE",
"220 78 CURVE SMOOTH",
"170.667 78 OFFCURVE",
"135 107 OFFCURVE",
"135 151 CURVE SMOOTH",
"135 205.667 OFFCURVE",
"179.667 237 OFFCURVE",
"261 237 CURVE SMOOTH",
"858 237 LINE",
"859 281 LINE SMOOTH",
"859 427.667 OFFCURVE",
"757 534.667 OFFCURVE",
"621 536 CURVE SMOOTH",
"481 536 OFFCURVE",
"373 419.667 OFFCURVE",
"373 257 CURVE SMOOTH",
"373 98.333 OFFCURVE",
"482.667 -10 OFFCURVE",
"644 -10 CURVE SMOOTH",
"717.333 -10 OFFCURVE",
"801 22.333 OFFCURVE",
"849 69 CURVE",
"799 144 LINE",
"747 98.667 OFFCURVE",
"706 84 OFFCURVE",
"654 84 CURVE SMOOTH",
"547.333 84 OFFCURVE",
"466 158.667 OFFCURVE",
"466 264 CURVE SMOOTH",
"466 380 OFFCURVE",
"521 441 OFFCURVE",
"621 441 CURVE SMOOTH",
"689 441 OFFCURVE",
"747.333 391.333 OFFCURVE",
"754 326 CURVE",
"754 302 LINE",
"769 319 LINE",
"274 319 LINE SMOOTH",
"119.333 320.333 OFFCURVE",
"38 261 OFFCURVE",
"38 149 CURVE SMOOTH",
"38 53 OFFCURVE",
"114.667 -10 OFFCURVE",
"216 -10 CURVE SMOOTH"
);
},
{
closed = 1;
nodes = (
"466 263 LINE",
"466 388 LINE SMOOTH",
"466 482.667 OFFCURVE",
"388 536 OFFCURVE",
"264 536 CURVE SMOOTH",
"181.333 536 OFFCURVE",
"108.333 500.333 OFFCURVE",
"51 435 CURVE",
"118 368 LINE",
"156.667 417.333 OFFCURVE",
"203.333 441 OFFCURVE",
"262 441 CURVE SMOOTH",
"320.667 441 OFFCURVE",
"373 405.333 OFFCURVE",
"373 356 CURVE SMOOTH",
"373 257 LINE"
);
}
);
width = 899;
},
{
anchors = (
{
name = bottom;
position = "{672, 0}";
},
{
name = top;
position = "{672, 525}";
}
);
layerId = "649E0662-786D-44F6-8E8D-A6782F19FFAA";
paths = (
{
closed = 1;
nodes = (
"511 -10 OFFCURVE",
"605 71 OFFCURVE",
"646 116 CURVE",
"606 185 LINE",
"578 146 OFFCURVE",
"488 78 OFFCURVE",
"372 78 CURVE SMOOTH",
"288 78 OFFCURVE",
"217 100 OFFCURVE",
"217 157 CURVE SMOOTH",
"217 229 OFFCURVE",
"332 237 OFFCURVE",
"413 237 CURVE SMOOTH",
"1220 237 LINE",
"1221 281 LINE SMOOTH",
"1221 432 OFFCURVE",
"1084 535 OFFCURVE",
"913 536 CURVE SMOOTH",
"740 536 OFFCURVE",
"575 432 OFFCURVE",
"575 257 CURVE SMOOTH",
"575 102 OFFCURVE",
"717 -10 OFFCURVE",
"936 -10 CURVE SMOOTH",
"1044 -10 OFFCURVE",
"1167 27 OFFCURVE",
"1211 60 CURVE",
"1161 140 LINE",
"1122 107 OFFCURVE",
"1054 80 OFFCURVE",
"946 80 CURVE SMOOTH",
"803 80 OFFCURVE",
"668 137 OFFCURVE",
"668 264 CURVE SMOOTH",
"668 407 OFFCURVE",
"785 446 OFFCURVE",
"913 446 CURVE SMOOTH",
"1012 446 OFFCURVE",
"1105 399 OFFCURVE",
"1116 326 CURVE",
"1116 302 LINE",
"1131 319 LINE",
"426 319 LINE SMOOTH",
"272 320 OFFCURVE",
"120 303 OFFCURVE",
"120 149 CURVE SMOOTH",
"120 40 OFFCURVE",
"221 -10 OFFCURVE",
"368 -10 CURVE SMOOTH"
);
},
{
closed = 1;
nodes = (
"668 263 LINE",
"668 388 LINE SMOOTH",
"668 501 OFFCURVE",
"528 536 OFFCURVE",
"416 536 CURVE SMOOTH",
"300 536 OFFCURVE",
"215 496 OFFCURVE",
"143 445 CURVE",
"200 374 LINE",
"263 423 OFFCURVE",
"341 442 OFFCURVE",
"414 442 CURVE SMOOTH",
"479 442 OFFCURVE",
"575 400 OFFCURVE",
"575 336 CURVE SMOOTH",
"575 257 LINE"
);
}
);
width = 1366;
},
{
anchors = (
{
name = bottom;
position = "{468, 0}";
},
{
name = top;
position = "{468, 525}";
}
);
layerId = "E41BA830-E06B-4916-8D61-039D08A6FFE2";
paths = (
{
closed = 1;
nodes = (
"323 -10 OFFCURVE",
"414 50 OFFCURVE",
"462 137 CURVE",
"442 167 LINE",
"401 84 OFFCURVE",
"316 28 OFFCURVE",
"219 28 CURVE SMOOTH",
"142 28 OFFCURVE",
"79 77 OFFCURVE",
"79 149 CURVE SMOOTH",
"79 220 OFFCURVE",
"139 258 OFFCURVE",
"245 258 CURVE SMOOTH",
"898 258 LINE",
"900 289 LINE",
"900 436 OFFCURVE",
"805 530 OFFCURVE",
"671 530 CURVE SMOOTH",
"529 530 OFFCURVE",
"426 412 OFFCURVE",
"426 262 CURVE SMOOTH",
"426 103 OFFCURVE",
"532 -10 OFFCURVE",
"686 -10 CURVE SMOOTH",
"762 -10 OFFCURVE",
"828 20 OFFCURVE",
"877 66 CURVE",
"856 97 LINE",
"809 52 OFFCURVE",
"754 29 OFFCURVE",
"689 29 CURVE SMOOTH",
"559 29 OFFCURVE",
"465 126 OFFCURVE",
"464 263 CURVE SMOOTH",
"465 399 OFFCURVE",
"546 491 OFFCURVE",
"674 491 CURVE SMOOTH",
"774 491 OFFCURVE",
"857 414 OFFCURVE",
"859 302 CURVE SMOOTH",
"859 279 LINE",
"870 295 LINE",
"253 295 LINE SMOOTH",
"112 295 OFFCURVE",
"40 243 OFFCURVE",
"40 149 CURVE SMOOTH",
"40 53 OFFCURVE",
"116 -10 OFFCURVE",
"218 -10 CURVE SMOOTH"
);
},
{
closed = 1;
nodes = (
"464 273 LINE",
"464 370 LINE SMOOTH",
"464 472 OFFCURVE",
"391 531 OFFCURVE",
"270 531 CURVE SMOOTH",
"187 531 OFFCURVE",
"116 496 OFFCURVE",
"60 429 CURVE",
"88 402 LINE",
"134 461 OFFCURVE",
"197 492 OFFCURVE",
"269 492 CURVE SMOOTH",
"367 492 OFFCURVE",
"426 441 OFFCURVE",
"426 365 CURVE SMOOTH",
"426 272 LINE"
);
}
);
userData = {
com.schriftgestaltung.Glyphs.glyph.leftMetricsKey = a;
com.schriftgestaltung.Glyphs.glyph.rightMetricsKey = e;
};
width = 935;
},
{
anchors = (
{
name = bottom;
position = "{690, 0}";
},
{
name = top;
position = "{690, 525}";
}
);
layerId = "60FFA52A-095B-47EE-98E9-9B5B7A5F3F54";
paths = (
{
closed = 1;
nodes = (
"499 -10 OFFCURVE",
"621 58 OFFCURVE",
"674 138 CURVE",
"655 167 LINE",
"605 92 OFFCURVE",
"486 27 OFFCURVE",
"369 27 CURVE SMOOTH",
"238 27 OFFCURVE",
"161 71 OFFCURVE",
"161 152 CURVE SMOOTH",
"161 250 OFFCURVE",
"289 258 OFFCURVE",
"390 258 CURVE SMOOTH",
"1260 258 LINE",
"1262 289 LINE",
"1262 440 OFFCURVE",
"1133 531 OFFCURVE",
"964 531 CURVE SMOOTH",
"785 531 OFFCURVE",
"628 437 OFFCURVE",
"628 262 CURVE SMOOTH",
"628 105 OFFCURVE",
"765 -10 OFFCURVE",
"979 -10 CURVE SMOOTH",
"1083 -10 OFFCURVE",
"1160 12 OFFCURVE",
"1238 62 CURVE",
"1222 99 LINE",
"1156 53 OFFCURVE",
"1080 29 OFFCURVE",
"981 29 CURVE SMOOTH",
"802 29 OFFCURVE",
"667 122 OFFCURVE",
"666 263 CURVE SMOOTH",
"667 409 OFFCURVE",
"791 494 OFFCURVE",
"966 494 CURVE SMOOTH",
"1099 494 OFFCURVE",
"1218 421 OFFCURVE",
"1220 302 CURVE SMOOTH",
"1220 279 LINE",
"1232 294 LINE",
"398 294 LINE SMOOTH",
"260 295 OFFCURVE",
"122 279 OFFCURVE",
"122 149 CURVE SMOOTH",
"122 49 OFFCURVE",
"208 -10 OFFCURVE",
"367 -10 CURVE SMOOTH"
);
},
{
closed = 1;
nodes = (
"666 273 LINE",
"666 357 LINE SMOOTH",
"666 487 OFFCURVE",
"549 531 OFFCURVE",
"422 531 CURVE SMOOTH",
"321 531 OFFCURVE",
"236 500 OFFCURVE",
"152 440 CURVE",
"176 410 LINE",
"253 465 OFFCURVE",
"339 493 OFFCURVE",
"421 493 CURVE SMOOTH",
"541 493 OFFCURVE",
"628 445 OFFCURVE",
"628 344 CURVE SMOOTH",
"628 272 LINE"
);
}
);
userData = {
com.schriftgestaltung.Glyphs.glyph.leftMetricsKey = a;
com.schriftgestaltung.Glyphs.glyph.rightMetricsKey = e;
};
width = 1402.83721;
},
{
anchors = (
{
name = bottom;
position = "{450, 0}";
},
{
name = top;
position = "{456, 530}";
}
);
layerId = "CC139F8F-4E38-4355-A9C7-97F3CAE4F8B4";
paths = (
{
closed = 1;
nodes = (
"300 -10 OFFCURVE",
"385 31 OFFCURVE",
"428 97 CURVE",
"377 177 LINE",
"353 132 OFFCURVE",
"304 103 OFFCURVE",
"248 103 CURVE SMOOTH",
"210 103 OFFCURVE",
"183 126 OFFCURVE",
"183 160 CURVE SMOOTH",
"183 202 OFFCURVE",
"215 227 OFFCURVE",
"274 227 CURVE SMOOTH",
"867 227 LINE",
"868 275 LINE SMOOTH",
"869 428 OFFCURVE",
"766 540 OFFCURVE",
"621 541 CURVE SMOOTH",
"473 541 OFFCURVE",
"362 424 OFFCURVE",
"362 262 CURVE SMOOTH",
"362 102 OFFCURVE",
"473 -10 OFFCURVE",
"646 -10 CURVE SMOOTH",
"719 -10 OFFCURVE",
"794 15 OFFCURVE",
"855 67 CURVE",
"789 169 LINE",
"746 135 OFFCURVE",
"711 123 OFFCURVE",
"663 123 CURVE SMOOTH",
"561 123 OFFCURVE",
"495 185 OFFCURVE",
"495 274 CURVE SMOOTH",
"495 363 OFFCURVE",
"540 413 OFFCURVE",
"623 413 CURVE SMOOTH",
"679 413 OFFCURVE",
"722 375 OFFCURVE",
"726 323 CURVE",
"726 302 LINE",
"736 314 LINE",
"273 314 LINE SMOOTH",
"116 315 OFFCURVE",
"34 258 OFFCURVE",
"34 149 CURVE SMOOTH",
"34 53 OFFCURVE",
"112 -10 OFFCURVE",
"215 -10 CURVE SMOOTH"
);
},
{
closed = 1;
nodes = (
"493 253 LINE",
"493 370 LINE SMOOTH",
"493 485 OFFCURVE",
"412 541 OFFCURVE",
"285 541 CURVE SMOOTH",
"187 541 OFFCURVE",
"103 500 OFFCURVE",
"52 437 CURVE",
"143 348 LINE",
"175 393 OFFCURVE",
"212 412 OFFCURVE",
"265 412 CURVE SMOOTH",
"322 412 OFFCURVE",
"359 387 OFFCURVE",
"359 336 CURVE SMOOTH",
"359 250 LINE"
);
}
);
width = 899.98;
},
{
anchors = (
{
name = bottom;
position = "{672, 0}";
},
{
name = top;
position = "{678, 530}";
}
);
layerId = "7CDCAA7C-A29A-47F9-8FBC-7C0A555C33C4";
paths = (
{
closed = 1;
nodes = (
"510 -10 OFFCURVE",
"609 65 OFFCURVE",
"646 106 CURVE",
"597 192 LINE",
"573 165 OFFCURVE",
"500 114 OFFCURVE",
"400 114 CURVE SMOOTH",
"327 114 OFFCURVE",
"265 129 OFFCURVE",
"265 172 CURVE SMOOTH",
"265 226 OFFCURVE",
"367 230 OFFCURVE",
"426 230 CURVE SMOOTH",
"1229 230 LINE",
"1230 275 LINE SMOOTH",
"1232 432 OFFCURVE",
"1093 540 OFFCURVE",
"913 541 CURVE SMOOTH",
"732 541 OFFCURVE",
"564 437 OFFCURVE",
"564 262 CURVE SMOOTH",
"564 106 OFFCURVE",
"707 -10 OFFCURVE",
"938 -10 CURVE SMOOTH",
"1046 -10 OFFCURVE",
"1157 23 OFFCURVE",
"1214 61 CURVE",
"1146 162 LINE",
"1112 139 OFFCURVE",
"1051 115 OFFCURVE",
"955 115 CURVE SMOOTH",
"816 115 OFFCURVE",
"697 163 OFFCURVE",
"697 274 CURVE SMOOTH",
"697 390 OFFCURVE",
"804 420 OFFCURVE",
"915 420 CURVE SMOOTH",
"1002 420 OFFCURVE",
"1080 382 OFFCURVE",
"1088 323 CURVE",
"1088 302 LINE",
"1098 327 LINE",
"425 327 LINE SMOOTH",
"269 328 OFFCURVE",
"116 300 OFFCURVE",
"116 149 CURVE SMOOTH",
"116 40 OFFCURVE",
"218 -10 OFFCURVE",
"367 -10 CURVE SMOOTH"
);
},
{
closed = 1;
nodes = (
"695 253 LINE",
"695 370 LINE SMOOTH",
"695 503 OFFCURVE",
"553 541 OFFCURVE",
"437 541 CURVE SMOOTH",
"305 541 OFFCURVE",
"210 496 OFFCURVE",
"144 447 CURVE",
"219 359 LINE",
"276 404 OFFCURVE",
"350 418 OFFCURVE",
"417 418 CURVE SMOOTH",
"480 418 OFFCURVE",
"561 382 OFFCURVE",
"561 316 CURVE SMOOTH",
"561 250 LINE"
);
}
);
width = 1366.98;
}
);
leftKerningGroup = ae;
leftMetricsKey = a;
rightKerningGroup = ae;
rightMetricsKey = e;
unicode = 00E6;
},
{
color = 6;
glyphname = b;
layers = (
{
anchors = (
{
name = bottom;
position = "{315, 0}";
},
{
name = top;
position = "{315, 740}";
}
);
layerId = "5A878C7E-547A-4951-B48F-676DBBC9B762";
paths = (
{
closed = 1;
nodes = (
"486.667 -10 OFFCURVE",
"590 106.667 OFFCURVE",
"590 264 CURVE SMOOTH",
"590 422.667 OFFCURVE",
"486.333 536 OFFCURVE",
"345 536 CURVE SMOOTH",
"259.667 536 OFFCURVE",
"171 474 OFFCURVE",
"159 414 CURVE",
"175 405 LINE",
"175 740 LINE",
"72 740 LINE",
"72 3 LINE",
"175 3 LINE",
"175 131 LINE",
"149 117 LINE",
"163.667 55.667 OFFCURVE",
"256 -10 OFFCURVE",
"348 -10 CURVE SMOOTH"
);
},
{
closed = 1;
nodes = (
"237.667 84 OFFCURVE",
"170 160 OFFCURVE",
"170 264 CURVE SMOOTH",
"170 366.667 OFFCURVE",
"237.667 442 OFFCURVE",
"331 442 CURVE SMOOTH",
"424.333 442 OFFCURVE",
"491 366.667 OFFCURVE",
"491 264 CURVE SMOOTH",
"491 160 OFFCURVE",
"423 84 OFFCURVE",
"331 84 CURVE SMOOTH"
);
}
);
width = 630;
},
{
anchors = (
{
name = bottom;
position = "{528, 0}";
},
{
name = top;
position = "{528, 740}";
}
);
layerId = "649E0662-786D-44F6-8E8D-A6782F19FFAA";
paths = (
{
closed = 1;
nodes = (
"733 -10 OFFCURVE",
"868 105 OFFCURVE",
"868 264 CURVE SMOOTH",
"868 423 OFFCURVE",
"728 536 OFFCURVE",
"553 536 CURVE SMOOTH",
"414 536 OFFCURVE",
"302 456 OFFCURVE",
"287 404 CURVE",
"323 405 LINE",
"323 740 LINE",
"220 740 LINE",
"220 3 LINE",
"323 3 LINE",
"323 131 LINE",
"277 127 LINE",
"293 75 OFFCURVE",
"406 -10 OFFCURVE",
"546 -10 CURVE SMOOTH"
);
},
{
closed = 1;
nodes = (
"404 86 OFFCURVE",
"308 164 OFFCURVE",
"308 264 CURVE SMOOTH",
"308 365 OFFCURVE",
"404 441 OFFCURVE",
"539 441 CURVE SMOOTH",
"672 441 OFFCURVE",
"768 365 OFFCURVE",
"768 264 CURVE SMOOTH",
"768 164 OFFCURVE",
"672 86 OFFCURVE",
"539 86 CURVE SMOOTH"
);
}
);
width = 998;
},
{
anchors = (
{
name = bottom;
position = "{304, 0}";
},
{
name = top;
position = "{304, 740}";
}
);
layerId = "E41BA830-E06B-4916-8D61-039D08A6FFE2";
paths = (
{
closed = 1;
nodes = (
"458 -10 OFFCURVE",
"569 105 OFFCURVE",
"569 262 CURVE SMOOTH",
"569 419 OFFCURVE",
"462 531 OFFCURVE",
"317 531 CURVE SMOOTH",
"213 531 OFFCURVE",
"124 458 OFFCURVE",
"101 361 CURVE",
"111 361 LINE",
"111 740 LINE",
"70 740 LINE",
"70 1 LINE",
"110 1 LINE",
"111 158 LINE",
"100 158 LINE",
"118 65 OFFCURVE",
"217 -10 OFFCURVE",
"321 -10 CURVE SMOOTH"
);
},
{
closed = 1;
nodes = (
"198 29 OFFCURVE",
"110 126 OFFCURVE",
"110 261 CURVE SMOOTH",
"110 397 OFFCURVE",
"198 492 OFFCURVE",
"315 492 CURVE SMOOTH",
"441 492 OFFCURVE",
"529 395 OFFCURVE",
"529 262 CURVE SMOOTH",
"529 127 OFFCURVE",
"440 29 OFFCURVE",
"315 29 CURVE SMOOTH"
);
}
);
userData = {
com.schriftgestaltung.Glyphs.glyph.leftMetricsKey = n;
com.schriftgestaltung.Glyphs.glyph.rightMetricsKey = o;
};
width = 608.51163;
},
{
anchors = (
{
name = bottom;
position = "{515, 0}";
},
{
name = top;
position = "{515, 740}";
}
);
layerId = "60FFA52A-095B-47EE-98E9-9B5B7A5F3F54";
paths = (
{
closed = 1;
nodes = (
"709 -10 OFFCURVE",
"841 107 OFFCURVE",
"841 263 CURVE SMOOTH",
"841 421 OFFCURVE",
"713 536 OFFCURVE",
"536 536 CURVE SMOOTH",
"396 536 OFFCURVE",
"291 472 OFFCURVE",
"242 356 CURVE",
"259 357 LINE",
"259 740 LINE",
"218 740 LINE",
"218 1 LINE",
"258 1 LINE",
"259 171 LINE",
"239 171 LINE",
"284 54 OFFCURVE",
"394 -10 OFFCURVE",
"534 -10 CURVE SMOOTH"
);
},
{
closed = 1;
nodes = (
"369 29 OFFCURVE",
"258 125 OFFCURVE",
"256 265 CURVE SMOOTH",
"257 395 OFFCURVE",
"366 497 OFFCURVE",
"533 497 CURVE SMOOTH",
"687 497 OFFCURVE",
"802 397 OFFCURVE",
"801 263 CURVE SMOOTH",
"800 126 OFFCURVE",
"684 29 OFFCURVE",
"533 29 CURVE SMOOTH"
);
}
);
userData = {
com.schriftgestaltung.Glyphs.glyph.leftMetricsKey = n;
com.schriftgestaltung.Glyphs.glyph.rightMetricsKey = o;
};
width = 971.13953;
},
{
anchors = (
{
name = bottom;
position = "{327, 0}";
},
{
name = top;
position = "{327, 740}";
}
);
layerId = "CC139F8F-4E38-4355-A9C7-97F3CAE4F8B4";
paths = (
{
closed = 1;
nodes = (
"519 -10 OFFCURVE",
"619 105 OFFCURVE",
"619 265 CURVE SMOOTH",
"619 425 OFFCURVE",
"518 541 OFFCURVE",
"380 541 CURVE SMOOTH",
"292 541 OFFCURVE",
"208 482 OFFCURVE",
"193 416 CURVE",
"224 405 LINE",
"224 740 LINE",
"71 740 LINE",
"71 2 LINE",
"213 2 LINE",
"221 125 LINE",
"188 113 LINE",
"202 48 OFFCURVE",
"289 -10 OFFCURVE",
"384 -10 CURVE SMOOTH"
);
},
{
closed = 1;
nodes = (
"269 118 OFFCURVE",
"219 177 OFFCURVE",
"219 265 CURVE SMOOTH",
"219 353 OFFCURVE",
"269 412 OFFCURVE",
"345 412 CURVE SMOOTH",
"421 412 OFFCURVE",
"471 353 OFFCURVE",
"471 265 CURVE SMOOTH",
"471 177 OFFCURVE",
"420 118 OFFCURVE",
"345 118 CURVE SMOOTH"
);
}
);
width = 654.01;
},
{
anchors = (
{
name = bottom;
position = "{531, 0}";
},
{
name = top;
position = "{531, 740}";
}
);
layerId = "7CDCAA7C-A29A-47F9-8FBC-7C0A555C33C4";
paths = (
{
closed = 1;
nodes = (
"757 -10 OFFCURVE",
"888 104 OFFCURVE",
"888 265 CURVE SMOOTH",
"888 425 OFFCURVE",
"751 541 OFFCURVE",
"579 541 CURVE SMOOTH",
"438 541 OFFCURVE",
"330 464 OFFCURVE",
"312 406 CURVE",
"363 405 LINE",
"363 740 LINE",
"210 740 LINE",
"210 2 LINE",
"352 2 LINE",
"360 125 LINE",
"307 123 LINE",
"322 67 OFFCURVE",
"430 -10 OFFCURVE",
"573 -10 CURVE SMOOTH"
);
},
{
closed = 1;
nodes = (
"427 120 OFFCURVE",
"348 181 OFFCURVE",
"348 265 CURVE SMOOTH",
"348 352 OFFCURVE",
"427 411 OFFCURVE",
"544 411 CURVE SMOOTH",
"660 411 OFFCURVE",
"739 352 OFFCURVE",
"739 265 CURVE SMOOTH",
"739 181 OFFCURVE",
"661 120 OFFCURVE",
"544 120 CURVE SMOOTH"
);
}
);
width = 1018.09;
}
);
leftKerningGroup = b;
leftMetricsKey = n;
rightKerningGroup = b;
rightMetricsKey = o;
unicode = 0062;
},
{
color = 6;
glyphname = c;
layers = (
{
anchors = (
{
name = bottom;
position = "{296, 0}";
},
{
name = top;
position = "{295, 525}";
}
);
layerId = "5A878C7E-547A-4951-B48F-676DBBC9B762";
paths = (
{
closed = 1;
nodes = (
"380.333 -10 OFFCURVE",
"467.333 33 OFFCURVE",
"510 93 CURVE",
"453 163 LINE",
"410.333 111 OFFCURVE",
"359.333 83 OFFCURVE",
"306 83 CURVE SMOOTH",
"214 83 OFFCURVE",
"138 161.667 OFFCURVE",
"138 263 CURVE SMOOTH",
"138 365.667 OFFCURVE",
"209 443 OFFCURVE",
"305 443 CURVE SMOOTH",
"357 443 OFFCURVE",
"421 406.667 OFFCURVE",
"453 360 CURVE",
"510 430 LINE",
"470 495.333 OFFCURVE",
"388.333 536 OFFCURVE",
"295 536 CURVE SMOOTH",
"149.667 536 OFFCURVE",
"40 417.667 OFFCURVE",
"40 263 CURVE SMOOTH",
"40 108.333 OFFCURVE",
"149.667 -10 OFFCURVE",
"295 -10 CURVE SMOOTH"
);
}
);
width = 535;
},
{
anchors = (
{
name = bottom;
position = "{456, 0}";
},
{
name = top;
position = "{454, 525}";
}
);
layerId = "649E0662-786D-44F6-8E8D-A6782F19FFAA";
paths = (
{
closed = 1;
nodes = (
"580 -10 OFFCURVE",
"675 31 OFFCURVE",
"750 76 CURVE",
"694 156 LINE",
"638 123 OFFCURVE",
"564 83 OFFCURVE",
"456 83 CURVE SMOOTH",
"335 83 OFFCURVE",
"238 159 OFFCURVE",
"238 263 CURVE SMOOTH",
"238 367 OFFCURVE",
"326 443 OFFCURVE",
"455 443 CURVE SMOOTH",
"540 443 OFFCURVE",
"637 402 OFFCURVE",
"692 350 CURVE",
"750 434 LINE",
"690 498 OFFCURVE",
"578 536 OFFCURVE",
"455 536 CURVE SMOOTH",
"271 536 OFFCURVE",
"130 418 OFFCURVE",
"130 263 CURVE SMOOTH",
"130 108 OFFCURVE",
"271 -10 OFFCURVE",
"455 -10 CURVE SMOOTH"
);
}
);
width = 880;
},
{
anchors = (
{
name = bottom;
position = "{304, 0}";
},
{
name = top;
position = "{304, 525}";
}
);
layerId = "E41BA830-E06B-4916-8D61-039D08A6FFE2";
paths = (
{
closed = 1;
nodes = (
"387 -10 OFFCURVE",
"458 25 OFFCURVE",
"505 80 CURVE",
"480 110 LINE",
"436 59 OFFCURVE",
"376 29 OFFCURVE",
"306 29 CURVE SMOOTH",
"176 29 OFFCURVE",
"81 127 OFFCURVE",
"80 263 CURVE SMOOTH",
"81 397 OFFCURVE",
"175 492 OFFCURVE",
"306 492 CURVE SMOOTH",
"376 492 OFFCURVE",
"439 460 OFFCURVE",
"481 410 CURVE",
"507 440 LINE",
"461 497 OFFCURVE",
"390 531 OFFCURVE",
"304 531 CURVE SMOOTH",
"150 531 OFFCURVE",
"40 419 OFFCURVE",
"40 263 CURVE SMOOTH",
"40 105 OFFCURVE",
"149.99 -10 OFFCURVE",
"304 -10 CURVE SMOOTH"
);
}
);
userData = {
com.schriftgestaltung.Glyphs.glyph.leftMetricsKey = o;
};
width = 528.09302;
},
{
anchors = (
{
name = bottom;
position = "{464, 0}";
},
{
name = top;
position = "{462, 525}";
}
);
layerId = "60FFA52A-095B-47EE-98E9-9B5B7A5F3F54";
paths = (
{
closed = 1;
nodes = (
"587 -10 OFFCURVE",
"673 23 OFFCURVE",
"745 64 CURVE",
"724 98 LINE",
"668 66 OFFCURVE",
"591 29 OFFCURVE",
"456 29 CURVE SMOOTH",
"302 29 OFFCURVE",
"172 122 OFFCURVE",
"172 263 CURVE SMOOTH",
"172 397 OFFCURVE",
"290 497 OFFCURVE",
"456 497 CURVE SMOOTH",
"577 497 OFFCURVE",
"671 453 OFFCURVE",
"724 411 CURVE",
"747 444 LINE",
"674 500 OFFCURVE",
"571 536 OFFCURVE",
"463 536 CURVE SMOOTH",
"271 536 OFFCURVE",
"130 419 OFFCURVE",
"130 263 CURVE SMOOTH",
"130 105 OFFCURVE",
"268 -10 OFFCURVE",
"463 -10 CURVE SMOOTH"
);
}
);
userData = {
com.schriftgestaltung.Glyphs.glyph.leftMetricsKey = o;
};
width = 873.09302;
},
{
anchors = (
{
name = bottom;
position = "{304, 0}";
},
{
name = top;
position = "{303, 530}";
}
);
layerId = "CC139F8F-4E38-4355-A9C7-97F3CAE4F8B4";
paths = (
{
closed = 1;
nodes = (
"393 -10 OFFCURVE",
"480 27 OFFCURVE",
"526 84 CURVE",
"443 184 LINE",
"410 145 OFFCURVE",
"369 123 OFFCURVE",
"317 123 CURVE SMOOTH",
"240 123 OFFCURVE",
"183 185 OFFCURVE",
"183 266 CURVE SMOOTH",
"183 348 OFFCURVE",
"238 409 OFFCURVE",
"317 409 CURVE SMOOTH",
"367 409 OFFCURVE",
"416 381 OFFCURVE",
"443 345 CURVE",
"526 445 LINE",
"481 505 OFFCURVE",
"397 541 OFFCURVE",
"303 541 CURVE SMOOTH",
"149 541 OFFCURVE",
"35 423 OFFCURVE",
"35 265 CURVE SMOOTH",
"35 108 OFFCURVE",
"149 -10 OFFCURVE",
"303 -10 CURVE SMOOTH"
);
}
);
width = 543.82;
},
{
anchors = (
{
name = bottom;
position = "{470, 0}";
},
{
name = top;
position = "{467, 530}";
}
);
layerId = "7CDCAA7C-A29A-47F9-8FBC-7C0A555C33C4";
paths = (
{
closed = 1;
nodes = (
"598 -10 OFFCURVE",
"693 25 OFFCURVE",
"771 67 CURVE",
"689 177 LINE",
"643 153 OFFCURVE",
"578 123 OFFCURVE",
"478 123 CURVE SMOOTH",
"365 123 OFFCURVE",
"288 182 OFFCURVE",
"288 266 CURVE SMOOTH",
"288 350 OFFCURVE",
"360 409 OFFCURVE",
"479 409 CURVE SMOOTH",
"556 409 OFFCURVE",
"637 376 OFFCURVE",
"687 335 CURVE",
"771 449 LINE",
"700 508 OFFCURVE",
"592 541 OFFCURVE",
"468 541 CURVE SMOOTH",
"275 541 OFFCURVE",
"130 423 OFFCURVE",
"130 265 CURVE SMOOTH",
"130 108 OFFCURVE",
"275 -10 OFFCURVE",
"477 -10 CURVE SMOOTH"
);
}
);
width = 893.72;
}
);
leftKerningGroup = c;
leftMetricsKey = o;
rightKerningGroup = c;
unicode = 0063;
},
{
color = 6;
glyphname = d;
layers = (
{
anchors = (
{
name = bottom;
position = "{317, 0}";
},
{
name = center;
position = "{500, 634}";
},
{
name = top;
position = "{317, 740}";
},
{
name = topright;
position = "{594, 740}";
}
);
layerId = "5A878C7E-547A-4951-B48F-676DBBC9B762";
paths = (
{
closed = 1;
nodes = (
"388.333 -10 OFFCURVE",
"481 62.333 OFFCURVE",
"481 125 CURVE",
"461 125 LINE",
"461 0 LINE",
"564 0 LINE",
"564 740 LINE",
"461 740 LINE",
"461 389 LINE",
"491 391 LINE",
"491 460.333 OFFCURVE",
"393.333 536 OFFCURVE",
"288 536 CURVE SMOOTH",
"146.667 536 OFFCURVE",
"40 420.333 OFFCURVE",
"40 263 CURVE SMOOTH",
"40 105.667 OFFCURVE",
"147 -10 OFFCURVE",
"291 -10 CURVE SMOOTH"
);
},
{
closed = 1;
nodes = (
"211.667 79 OFFCURVE",
"145 156.333 OFFCURVE",
"145 263 CURVE SMOOTH",
"145 369.667 OFFCURVE",
"211.667 447 OFFCURVE",
"305 447 CURVE SMOOTH",
"398.333 447 OFFCURVE",
"465 369.667 OFFCURVE",
"465 263 CURVE SMOOTH",
"465 156.333 OFFCURVE",
"398.333 79 OFFCURVE",
"305 79 CURVE SMOOTH"
);
}
);
width = 634;
},
{
anchors = (
{
name = bottom;
position = "{467, 0}";
},
{
name = center;
position = "{661, 634}";
},
{
name = top;
position = "{467, 740}";
},
{
name = topright;
position = "{834, 740}";
}
);
layerId = "649E0662-786D-44F6-8E8D-A6782F19FFAA";
paths = (
{
closed = 1;
nodes = (
"573 -10 OFFCURVE",
"701 76 OFFCURVE",
"701 137 CURVE",
"681 145 LINE",
"681 0 LINE",
"784 0 LINE",
"784 740 LINE",
"681 740 LINE",
"681 389 LINE",
"711 391 LINE",
"711 454 OFFCURVE",
"593 536 OFFCURVE",
"438 536 CURVE SMOOTH",
"251 536 OFFCURVE",
"120 422 OFFCURVE",
"120 263 CURVE SMOOTH",
"120 104 OFFCURVE",
"241 -10 OFFCURVE",
"432 -10 CURVE SMOOTH"
);
},
{
closed = 1;
nodes = (
"320 85 OFFCURVE",
"225 162 OFFCURVE",
"225 263 CURVE SMOOTH",
"225 363 OFFCURVE",
"320 440 OFFCURVE",
"455 440 CURVE SMOOTH",
"591 440 OFFCURVE",
"685 363 OFFCURVE",
"685 263 CURVE SMOOTH",
"685 162 OFFCURVE",
"591 85 OFFCURVE",
"455 85 CURVE SMOOTH"
);
}
);
width = 964;
},
{
anchors = (
{
name = bottom;
position = "{305, 0}";
},
{
name = center;
position = "{501, 634}";
},
{
name = top;
position = "{305, 740}";
},
{
name = topright;
position = "{554, 740}";
}
);
layerId = "E41BA830-E06B-4916-8D61-039D08A6FFE2";
paths = (
{
closed = 1;
nodes = (
"399 -10 OFFCURVE",
"490 66 OFFCURVE",
"510 164 CURVE",
"499 161 LINE",
"499 0 LINE",
"540 0 LINE",
"540 740 LINE",
"499 740 LINE",
"499 362 LINE",
"510 360 LINE",
"496 454 OFFCURVE",
"396 531 OFFCURVE",
"290 531 CURVE SMOOTH",
"151 531 OFFCURVE",
"40 416 OFFCURVE",
"40 259 CURVE SMOOTH",
"40 103 OFFCURVE",
"147 -10 OFFCURVE",
"293 -10 CURVE SMOOTH"
);
},
{
closed = 1;
nodes = (
"168 28 OFFCURVE",
"81 126 OFFCURVE",
"81 259 CURVE SMOOTH",
"81 395 OFFCURVE",
"169 494 OFFCURVE",
"294 494 CURVE SMOOTH",
"413 494 OFFCURVE",
"500 396 OFFCURVE",
"500 261 CURVE SMOOTH",
"500 123 OFFCURVE",
"412 28 OFFCURVE",
"296 28 CURVE SMOOTH"
);
}
);
width = 610.97674;
},
{
anchors = (
{
name = bottom;
position = "{457, 0}";
},
{
name = center;
position = "{661, 634}";
},
{
name = top;
position = "{457, 740}";
},
{
name = topright;
position = "{806, 740}";
}
);
layerId = "60FFA52A-095B-47EE-98E9-9B5B7A5F3F54";
paths = (
{
closed = 1;
nodes = (
"573 -10 OFFCURVE",
"686 54 OFFCURVE",
"727 173 CURVE",
"713 174 LINE",
"715 0 LINE",
"754 0 LINE",
"754 740 LINE",
"713 740 LINE",
"713 353 LINE",
"729 353 LINE",
"683 472 OFFCURVE",
"578 536 OFFCURVE",
"433 536 CURVE SMOOTH",
"254 536 OFFCURVE",
"128 420 OFFCURVE",
"128 263 CURVE SMOOTH",
"128 106 OFFCURVE",
"256 -10 OFFCURVE",
"432 -10 CURVE SMOOTH"
);
},
{
closed = 1;
nodes = (
"285 29 OFFCURVE",
"170 125 OFFCURVE",
"169 263 CURVE SMOOTH",
"168 397 OFFCURVE",
"283 497 OFFCURVE",
"437 497 CURVE SMOOTH",
"605 497 OFFCURVE",
"713 394 OFFCURVE",
"714 265 CURVE SMOOTH",
"712 124 OFFCURVE",
"601 29 OFFCURVE",
"437 29 CURVE SMOOTH"
);
}
);
width = 964.76744;
},
{
anchors = (
{
name = bottom;
position = "{326, 0}";
},
{
name = center;
position = "{483, 634}";
},
{
name = top;
position = "{326, 740}";
},
{
name = topright;
position = "{621, 740}";
}
);
layerId = "CC139F8F-4E38-4355-A9C7-97F3CAE4F8B4";
paths = (
{
closed = 1;
nodes = (
"373 -10 OFFCURVE",
"460 51 OFFCURVE",
"466 117 CURVE",
"436 122 LINE",
"444 0 LINE",
"586 0 LINE",
"586 740 LINE",
"434 740 LINE",
"434 396 LINE",
"471 404 LINE",
"462 476 OFFCURVE",
"374 541 OFFCURVE",
"276 541 CURVE SMOOTH",
"137 541 OFFCURVE",
"35 424 OFFCURVE",
"35 265 CURVE SMOOTH",
"35 104 OFFCURVE",
"137 -10 OFFCURVE",
"275 -10 CURVE SMOOTH"
);
},
{
closed = 1;
nodes = (
"236 116 OFFCURVE",
"186 175 OFFCURVE",
"186 265 CURVE SMOOTH",
"186 355 OFFCURVE",
"236 414 OFFCURVE",
"312 414 CURVE SMOOTH",
"388 414 OFFCURVE",
"438 355 OFFCURVE",
"438 265 CURVE SMOOTH",
"438 175 OFFCURVE",
"388 116 OFFCURVE",
"312 116 CURVE SMOOTH"
);
}
);
width = 651.15;
},
{
anchors = (
{
name = bottom;
position = "{476, 0}";
},
{
name = center;
position = "{644, 634}";
},
{
name = top;
position = "{476, 740}";
},
{
name = topright;
position = "{861, 740}";
}
);
layerId = "7CDCAA7C-A29A-47F9-8FBC-7C0A555C33C4";
paths = (
{
closed = 1;
nodes = (
"558 -10 OFFCURVE",
"680 65 OFFCURVE",
"686 129 CURVE",
"656 142 LINE",
"664 0 LINE",
"806 0 LINE",
"806 740 LINE",
"654 740 LINE",
"654 396 LINE",
"691 404 LINE",
"683 469 OFFCURVE",
"573 541 OFFCURVE",
"426 541 CURVE SMOOTH",
"242 541 OFFCURVE",
"115 426 OFFCURVE",
"115 265 CURVE SMOOTH",
"115 103 OFFCURVE",
"231 -10 OFFCURVE",
"416 -10 CURVE SMOOTH"
);
},
{
closed = 1;
nodes = (
"345 122 OFFCURVE",
"266 181 OFFCURVE",
"266 265 CURVE SMOOTH",
"266 348 OFFCURVE",
"345 407 OFFCURVE",
"462 407 CURVE SMOOTH",
"581 407 OFFCURVE",
"658 348 OFFCURVE",
"658 265 CURVE SMOOTH",
"658 181 OFFCURVE",
"581 122 OFFCURVE",
"462 122 CURVE SMOOTH"
);
}
);
width = 981.15;
}
);
leftKerningGroup = c;
rightKerningGroup = d;
unicode = 0064;
},
